<svg width="50" height="50" viewBox="0 0 50 50" fill="none" xmlns="http://www.w3.org/2000/svg">
<path d="M49.5 39.0137C49.5 44.7825 44.7825 49.5 39.0137 49.5H10.9863C5.21755 49.5 0.5 44.7825 0.5 39.0137V10.9863C0.5 5.21755 5.21755 0.5 10.9863 0.5H39.0137C44.7825 0.5 49.5 5.21755 49.5 10.9863V39.0137Z" fill="white" stroke="#E5E5E5"/>
<path d="M29.2766 35.105L29.2854 31.9294L24.7215 29.2943C24.6557 29.2562 24.5902 29.2162 24.5252 29.1744L24.5148 29.168C24.452 29.128 24.3896 29.088 24.3273 29.0432C24.3057 29.0284 24.2845 29.0128 24.2629 28.9976C24.2229 28.9685 24.1805 28.9389 24.1397 28.9085C24.1141 28.8893 24.0889 28.8685 24.0637 28.8505C24.0266 28.8221 23.9898 28.7933 23.9534 28.7637C23.9267 28.7419 23.9001 28.7197 23.8734 28.6974C23.8382 28.6683 23.8032 28.6387 23.7683 28.6086C23.7416 28.5849 23.7149 28.561 23.6883 28.537C23.6539 28.5066 23.6198 28.4757 23.5859 28.4443C23.5587 28.4191 23.5315 28.3943 23.506 28.3687C23.4716 28.3359 23.4376 28.3027 23.4036 28.2695C23.3788 28.2451 23.3536 28.2207 23.3288 28.1959C23.2932 28.16 23.258 28.1236 23.2229 28.0868C23.2005 28.0632 23.1777 28.04 23.1557 28.0164C23.1157 27.9724 23.0757 27.9276 23.0337 27.8825L22.9885 27.8325C22.9331 27.7696 22.8785 27.7057 22.8246 27.6409C22.8122 27.6262 22.8006 27.611 22.7882 27.5962C22.7482 27.5454 22.7051 27.4942 22.6643 27.4426C22.615 27.3797 22.5664 27.316 22.5187 27.2515L22.4943 27.2195C22.4168 27.1143 22.3416 27.0064 22.268 26.8972L22.228 26.8372C22.1355 26.6981 22.0466 26.5565 21.9613 26.4126L21.9285 26.3578C21.8691 26.256 21.8114 26.1531 21.7554 26.0491C21.735 26.0112 21.7154 25.9732 21.6958 25.9352C21.6762 25.8972 21.6558 25.8552 21.6335 25.8152C21.6051 25.7584 21.5775 25.7017 21.5499 25.6445C21.5411 25.6261 21.5319 25.6077 21.5231 25.5893C21.4884 25.5155 21.4547 25.4412 21.4219 25.3666C21.4135 25.347 21.4051 25.3266 21.3971 25.3082C21.3731 25.2528 21.3497 25.1971 21.3268 25.1411L21.296 25.0647C21.2749 25.0114 21.2543 24.9581 21.234 24.9048C21.2252 24.8816 21.2164 24.858 21.2076 24.8348C21.1828 24.7668 21.1588 24.6987 21.1356 24.6305L21.1264 24.6041C21.0998 24.5273 21.0753 24.4505 21.0529 24.3738C21.0453 24.3494 21.0385 24.325 21.0317 24.3006C21.0161 24.247 21.0005 24.1934 20.9861 24.1406C20.9781 24.1115 20.9705 24.0823 20.9629 24.0531C20.9501 24.0035 20.9377 23.954 20.9257 23.9047C20.9188 23.8754 20.912 23.8461 20.9053 23.8168C20.8937 23.766 20.8829 23.7152 20.8725 23.6648C20.8669 23.638 20.8613 23.6108 20.8561 23.5849C20.8436 23.5198 20.832 23.455 20.8214 23.3905C20.8214 23.3793 20.8174 23.3681 20.8158 23.3569C20.8038 23.2812 20.7931 23.2057 20.7838 23.1302C20.7814 23.1098 20.7794 23.0902 20.777 23.069C20.7708 23.0144 20.7652 22.9599 20.7602 22.9055C20.7578 22.8799 20.7562 22.8543 20.7542 22.8291C20.7502 22.778 20.7474 22.7272 20.745 22.6764C20.745 22.6524 20.7426 22.628 20.7418 22.604C20.7394 22.532 20.7374 22.4605 20.7378 22.3897L20.7506 17.5115L20.3507 17.2812L18.3023 16.1C17.8821 15.8477 17.4191 15.6746 16.9364 15.5894V15.5922C16.9332 15.617 16.9312 15.643 16.9284 15.6678C16.9256 15.6926 16.9224 15.7222 16.92 15.7502C16.92 15.7618 16.9176 15.7725 16.9164 15.7841C16.9132 15.8209 16.9116 15.8585 16.9096 15.8961C16.9096 15.9165 16.9068 15.9361 16.906 15.9573V15.9721C16.9033 16.0353 16.9019 16.0994 16.9016 16.1644V16.176L16.8784 24.6285C16.8784 24.6882 16.8792 24.748 16.8808 24.808C16.8808 24.8196 16.8808 24.8308 16.8808 24.8424C16.8808 24.8668 16.8832 24.8916 16.8844 24.916C16.8856 24.9403 16.8864 24.9723 16.8884 25.0007C16.8884 25.0227 16.892 25.0451 16.8936 25.0675C16.8952 25.0899 16.8976 25.1191 16.9 25.1451C16.9 25.1615 16.9024 25.1783 16.904 25.1947C16.9076 25.2318 16.9124 25.2694 16.9164 25.307C16.9188 25.3278 16.9208 25.347 16.9232 25.3698L16.9256 25.3898C16.9341 25.4564 16.9436 25.5231 16.954 25.5897V25.5953C16.954 25.6065 16.958 25.6181 16.96 25.6293C16.9688 25.6833 16.978 25.7373 16.988 25.7916C16.99 25.802 16.9924 25.8124 16.9944 25.8228C16.9996 25.85 17.0056 25.8772 17.0112 25.9028C17.0168 25.9284 17.0236 25.9664 17.0304 25.998C17.0344 26.0168 17.0392 26.0355 17.0436 26.0539C17.0502 26.083 17.057 26.1122 17.0639 26.1415C17.0691 26.1635 17.0739 26.1855 17.0791 26.2071C17.0843 26.2287 17.0939 26.2627 17.1011 26.2902C17.1083 26.3178 17.1163 26.3486 17.1239 26.3774C17.1279 26.3914 17.1311 26.4054 17.1347 26.4174C17.1455 26.4574 17.1575 26.4974 17.1695 26.5374C17.1767 26.5617 17.1835 26.5861 17.1907 26.6105L17.1963 26.6305C17.2174 26.6996 17.2395 26.7686 17.2627 26.8376V26.8412L17.2719 26.8676C17.2915 26.9256 17.3119 26.9836 17.3326 27.0416C17.3362 27.0516 17.3402 27.0616 17.3438 27.0716C17.3522 27.0947 17.361 27.1175 17.3698 27.1407C17.3818 27.1731 17.3938 27.2051 17.4062 27.2375C17.4146 27.2591 17.4234 27.2803 17.4322 27.3019L17.4626 27.3774C17.4702 27.3954 17.477 27.4138 17.4846 27.4318C17.5002 27.4694 17.5166 27.507 17.533 27.5446C17.5414 27.5642 17.5494 27.5846 17.5582 27.603L17.567 27.6234C17.5958 27.6881 17.6252 27.7528 17.6553 27.8173L17.6593 27.8261C17.6681 27.8445 17.6773 27.8629 17.6861 27.8813C17.7097 27.9304 17.7329 27.98 17.7573 28.0288L17.7693 28.052C17.7897 28.092 17.8093 28.132 17.8317 28.1719C17.8485 28.2043 17.8645 28.2367 17.8816 28.2687L17.8912 28.2859C17.947 28.3899 18.0047 28.4928 18.0644 28.5946C18.0696 28.6034 18.074 28.6122 18.0792 28.621C18.0844 28.6298 18.0916 28.6398 18.0972 28.6494C18.1825 28.7933 18.2714 28.9349 18.3639 29.074C18.3691 29.0816 18.3735 29.0896 18.3787 29.0976C18.3839 29.1056 18.3963 29.122 18.4047 29.1348C18.4782 29.2436 18.553 29.3515 18.631 29.4567L18.6538 29.4863C18.7017 29.5508 18.7504 29.6147 18.7997 29.6782L18.8081 29.689C18.8481 29.7378 18.8857 29.7858 18.9249 29.8333L18.9596 29.8761L18.9624 29.8793C19.0134 29.9406 19.0649 30.001 19.1172 30.0605L19.1236 30.0676L19.1688 30.1176C19.2032 30.1576 19.2379 30.1952 19.2727 30.2332L19.2907 30.252C19.3131 30.2756 19.3355 30.2988 19.3579 30.3224C19.3803 30.3459 19.4099 30.3775 19.4379 30.4047L19.4651 30.4319C19.4898 30.4567 19.5146 30.4811 19.5398 30.5055C19.565 30.5299 19.5838 30.5499 19.6062 30.5711L19.6422 30.6046C19.669 30.6302 19.6962 30.6554 19.7222 30.6802C19.7418 30.6982 19.7621 30.7166 19.7805 30.7342L19.8245 30.7742L19.9045 30.8458C19.9217 30.8606 19.9385 30.8761 19.9561 30.8905C19.9737 30.9049 19.9921 30.9197 20.0097 30.9341L20.0896 31.0005C20.104 31.0121 20.118 31.0241 20.1324 31.0357C20.1548 31.0533 20.1776 31.0701 20.2 31.0873C20.2224 31.1045 20.2504 31.1273 20.2756 31.1448L20.3071 31.1688C20.3375 31.1912 20.3687 31.2124 20.3991 31.2344C20.4203 31.2496 20.4415 31.2652 20.4631 31.28L20.4803 31.2924C20.5363 31.3308 20.5926 31.3681 20.6494 31.4044L20.6582 31.41C20.7106 31.4431 20.7634 31.4755 20.8182 31.5067L20.8581 31.5295L27.8731 35.5812C27.9155 35.6057 27.9578 35.6293 27.9999 35.652L28.0487 35.6772L28.113 35.7104C28.1298 35.7188 28.1466 35.7279 28.163 35.7363C28.1902 35.7499 28.2174 35.7619 28.243 35.7763L28.2998 35.8031L28.3226 35.8139C28.3759 35.8379 28.4292 35.8604 28.4825 35.8815L28.4889 35.8839C28.5404 35.9044 28.5915 35.9236 28.6424 35.9415L28.664 35.9487L28.7228 35.9679C28.7492 35.9767 28.776 35.9859 28.8028 35.9939L28.8428 36.0054L28.9135 36.025C28.9311 36.0298 28.9491 36.0354 28.9663 36.0398C28.9835 36.0442 29.0063 36.0482 29.0243 36.0526L29.0947 36.0682L29.1303 36.0762L29.1659 36.0822C29.1922 35.9687 29.2142 35.8511 29.231 35.7283C29.2599 35.5218 29.2751 35.3135 29.2766 35.105Z" fill="url(#paint0_linear)"/>
<path d="M25.3242 15.685L20.4815 12.8889L19.6958 12.435L18.3164 11.6385C13.9704 9.12986 10.4225 11.1519 10.4081 16.1457L10.3853 24.1967C10.3713 29.1948 13.896 35.2973 18.242 37.8064L25.2498 41.8521C29.5954 44.3612 33.1436 42.3407 33.1576 37.3454L33.1676 33.8019V33.4852L33.1796 29.2928C33.1948 24.2994 29.6697 18.1941 25.3242 15.685ZM29.2863 31.7591V31.9278L29.2775 35.1034C29.2771 35.3115 29.2631 35.5193 29.2355 35.7256C29.2187 35.8483 29.1955 35.9655 29.1703 36.0795C28.7541 37.8788 27.1587 38.485 25.2634 37.391L18.2548 33.3465C16.0492 32.0737 14.2607 28.9753 14.2679 26.4394L14.2906 18.3868C14.2958 16.5775 15.2151 15.5375 16.5434 15.5539C16.6756 15.5562 16.8075 15.5681 16.9381 15.5895C17.4202 15.6749 17.8826 15.8479 18.3024 16.1001L20.3484 17.2792L20.7482 17.5095L25.3122 20.1446C27.5169 21.4193 29.3067 24.5165 29.2983 27.0524L29.2863 31.7591Z" fill="url(#paint1_linear)"/>
<path d="M39.2287 25.3015C39.2287 25.2787 39.2263 25.2556 39.2255 25.2328C39.2255 25.1856 39.2211 25.138 39.2187 25.0908C39.2159 25.0344 39.2143 24.9789 39.2107 24.9221C39.2079 24.8781 39.2036 24.8333 39.2 24.7889C39.1964 24.7445 39.1924 24.689 39.188 24.6386C39.1852 24.6058 39.1832 24.573 39.18 24.5402C39.1728 24.4658 39.1636 24.3911 39.1552 24.3167C39.1504 24.2767 39.1468 24.2367 39.1416 24.1967C39.1416 24.1836 39.1388 24.1704 39.1372 24.1568C39.1206 24.0256 39.1019 23.8939 39.0808 23.7617L39.0788 23.7501C39.0752 23.7273 39.0708 23.7045 39.0668 23.6817C39.0496 23.5762 39.032 23.4706 39.012 23.3647C39.008 23.3435 39.0032 23.3227 38.9992 23.3015C38.9888 23.2483 38.9776 23.1951 38.9668 23.1415C38.954 23.0788 38.9424 23.0164 38.9268 22.954C38.9189 22.9168 38.9093 22.8796 38.9009 22.8424C38.8878 22.7849 38.8745 22.7273 38.8609 22.6697C38.8505 22.6269 38.8417 22.5841 38.8309 22.5414C38.8173 22.4866 38.8017 22.4314 38.7877 22.3762C38.7737 22.321 38.7581 22.2619 38.7425 22.2047C38.7353 22.1775 38.7285 22.1503 38.7209 22.1247C38.6989 22.0447 38.6749 21.9672 38.6518 21.8884C38.6378 21.8412 38.6246 21.7936 38.6118 21.7465C38.6078 21.7337 38.6046 21.7209 38.6006 21.7065C38.5587 21.5703 38.5151 21.4342 38.4698 21.2982L38.467 21.2902C38.4606 21.2714 38.4538 21.253 38.4474 21.2342C38.4074 21.1215 38.3703 21.0083 38.3275 20.8956C38.3203 20.8756 38.3123 20.8556 38.3051 20.8356C38.2883 20.7896 38.2707 20.7436 38.2531 20.6976C38.2295 20.6349 38.2067 20.5721 38.1823 20.5093C38.1659 20.4669 38.1483 20.4249 38.1311 20.3826C38.1112 20.3324 38.091 20.2825 38.0708 20.2326C38.0564 20.197 38.0428 20.1614 38.028 20.1263C37.9968 20.0515 37.9644 19.9775 37.9324 19.9031C37.916 19.8632 37.9 19.8268 37.8832 19.7884L37.8664 19.7484C37.8099 19.6207 37.752 19.4934 37.6925 19.3665L37.6845 19.3497C37.6665 19.3098 37.6473 19.2738 37.6293 19.2354C37.5837 19.1398 37.5382 19.0443 37.491 18.9495C37.4834 18.9343 37.475 18.9191 37.4674 18.9035C37.4274 18.8235 37.3874 18.7436 37.3446 18.666C37.3119 18.6024 37.2799 18.5388 37.2463 18.4757C37.2399 18.4641 37.2331 18.4529 37.2267 18.4409C37.1169 18.2364 37.0032 18.0338 36.8856 17.8331C36.8756 17.8159 36.8668 17.7987 36.8568 17.7815C36.8272 17.7311 36.796 17.682 36.7661 17.632C36.7157 17.5484 36.6657 17.4648 36.6141 17.3821C36.5693 17.3101 36.5237 17.2389 36.4782 17.1678C36.4258 17.0878 36.3738 17.005 36.3202 16.9242C36.3022 16.8967 36.285 16.8687 36.2666 16.8415C36.2482 16.8143 36.2319 16.7931 36.2151 16.7683C36.0699 16.5536 35.9224 16.3413 35.7696 16.1337L35.7676 16.1305C35.7528 16.1101 35.7368 16.0906 35.722 16.0706C35.6277 15.9437 35.532 15.8181 35.4349 15.6939L35.4182 15.6719C35.3422 15.5755 35.2646 15.4812 35.1874 15.3864C35.1646 15.3588 35.1427 15.3304 35.1199 15.3028L35.1147 15.2964C35.0144 15.176 34.9129 15.0571 34.81 14.9398L34.7968 14.9254C34.7676 14.8918 34.7372 14.8598 34.7076 14.8266C34.6396 14.7507 34.5717 14.6739 34.5025 14.5995L34.4673 14.5627C34.4233 14.5155 34.3785 14.4696 34.3338 14.4228C34.2826 14.3692 34.2318 14.3144 34.1798 14.2628C34.1622 14.2448 34.1438 14.2276 34.1258 14.2097C34.0771 14.1605 34.0279 14.1125 33.9787 14.0641C33.9295 14.0157 33.8919 13.9769 33.8479 13.9346C33.8243 13.9122 33.8004 13.8906 33.7768 13.8682C33.7236 13.8178 33.67 13.7682 33.6168 13.719C33.5768 13.6838 33.5408 13.6475 33.5025 13.6127C33.4741 13.5871 33.4449 13.5627 33.4161 13.5371C33.3628 13.4894 33.3088 13.4422 33.2542 13.3956C33.2202 13.3664 33.187 13.336 33.1526 13.3072C33.1182 13.2784 33.0818 13.25 33.0466 13.2208C32.9933 13.1771 32.94 13.1338 32.8867 13.0909C32.8583 13.0681 32.8303 13.0441 32.8015 13.0213C32.7571 12.9865 32.7124 12.9537 32.668 12.9193C32.6236 12.8849 32.5688 12.843 32.5192 12.8058C32.4984 12.7902 32.4792 12.7738 32.4569 12.7582C32.3965 12.7138 32.3369 12.6718 32.2745 12.6286C32.2345 12.5991 32.1913 12.5687 32.1494 12.5399L32.115 12.5155C32.0046 12.4398 31.8936 12.3663 31.7819 12.2952H31.7795L31.7627 12.2848C31.6591 12.2192 31.5548 12.1548 31.45 12.0932L31.3729 12.0485L24.3691 8.00276C24.2856 7.95451 24.2024 7.90799 24.1195 7.86321C24.0876 7.84601 24.056 7.83042 24.024 7.81363L23.8964 7.74765C23.8636 7.73086 23.8305 7.71286 23.7981 7.69647C23.7441 7.66968 23.6909 7.64609 23.6381 7.6209C23.6005 7.6033 23.5634 7.58491 23.5262 7.56812L23.481 7.54693C23.3744 7.49974 23.2696 7.45536 23.1667 7.41377L23.1507 7.40778C23.0503 7.36779 22.9508 7.33021 22.8512 7.29502L22.8056 7.27822C22.7656 7.26503 22.7289 7.25303 22.6905 7.24064C22.6381 7.22345 22.5857 7.20505 22.5337 7.18946C22.5061 7.18106 22.479 7.17466 22.4514 7.16667C22.405 7.15307 22.359 7.14068 22.3126 7.12668C22.2778 7.11748 22.2426 7.10629 22.2083 7.09789C22.1739 7.0895 22.1327 7.0831 22.0943 7.0743C22.0483 7.0639 22.0019 7.05311 21.9563 7.04311C21.9332 7.03831 21.9092 7.03192 21.886 7.02752C21.8416 7.01872 21.7984 7.01352 21.754 7.00593C21.7008 6.99673 21.6473 6.98713 21.5941 6.97954C21.5769 6.97754 21.5585 6.97354 21.5409 6.97114C21.4961 6.96314 21.4521 6.96314 21.4077 6.95754C21.351 6.95115 21.2942 6.94475 21.2382 6.94035C21.2226 6.94035 21.2062 6.93675 21.1906 6.93555C21.1506 6.93275 21.1143 6.93355 21.0755 6.93155C21.0079 6.92835 20.9411 6.92556 20.8739 6.92316C20.856 6.92316 20.8376 6.92316 20.8196 6.92316C20.7904 6.92316 20.7624 6.92676 20.7332 6.92716C20.6492 6.92716 20.5661 6.93275 20.4841 6.93875C20.4597 6.93875 20.4345 6.93875 20.4105 6.94235C20.3749 6.94555 20.3405 6.95075 20.3054 6.95475L20.2294 6.96314C20.137 6.97554 20.0455 6.98953 19.9555 7.00793L19.9455 7.01112C19.9187 7.01672 19.8927 7.02392 19.8655 7.02992C19.7923 7.04631 19.7196 7.0635 19.6484 7.0835C19.612 7.09389 19.5768 7.10589 19.5408 7.11748C19.4949 7.13188 19.4481 7.14467 19.4025 7.16107C19.3905 7.16507 19.3793 7.17106 19.3677 7.17506C19.2965 7.20105 19.2278 7.23024 19.1586 7.26023C19.125 7.27463 19.0906 7.28782 19.0578 7.30302C18.9571 7.3502 18.8579 7.40098 18.7623 7.45656L14.9058 9.69573C15.0017 9.64015 15.1005 9.58937 15.2009 9.54218C15.234 9.52659 15.2684 9.5138 15.302 9.499C15.3708 9.46901 15.44 9.43982 15.5107 9.41383C15.5675 9.39304 15.6255 9.37385 15.6839 9.35625C15.7199 9.34506 15.755 9.33266 15.7914 9.32227C15.8626 9.30227 15.9358 9.28508 16.0086 9.26869C16.0349 9.26269 16.0609 9.25549 16.0885 9.24989C16.1817 9.2311 16.2765 9.21591 16.3724 9.20311C16.3976 9.19991 16.4232 9.19711 16.4484 9.19431C16.5076 9.18752 16.5683 9.18272 16.6271 9.17832C16.7091 9.17192 16.7923 9.16832 16.8762 9.16632C16.923 9.16632 16.9694 9.16353 17.0166 9.16393C17.083 9.16393 17.1505 9.16752 17.2165 9.17072C17.2705 9.17312 17.3245 9.17512 17.3792 9.17952C17.434 9.18392 17.492 9.19072 17.5488 9.19671C17.6056 9.20271 17.6727 9.21031 17.7359 9.2191C17.7887 9.2267 17.8419 9.2363 17.8959 9.2455C17.963 9.25709 18.0302 9.26869 18.0982 9.28308C18.1438 9.29268 18.1901 9.30307 18.2361 9.31387C18.3086 9.33066 18.3815 9.34879 18.4548 9.36825C18.5008 9.38064 18.5472 9.39304 18.5932 9.40823C18.6732 9.43103 18.7531 9.45622 18.8331 9.48221C18.8731 9.4946 18.9095 9.5066 18.9479 9.51979C19.0614 9.55978 19.1754 9.59976 19.2905 9.64655L19.3065 9.65254C19.4265 9.70053 19.5464 9.75291 19.6664 9.80769C19.7036 9.82448 19.7408 9.84287 19.7784 9.86047C19.8645 9.90099 19.951 9.94324 20.0379 9.98722C20.0802 10.0088 20.1228 10.0308 20.1654 10.0532C20.2798 10.1136 20.3945 10.1752 20.5101 10.2419L27.5203 14.288C27.6506 14.3632 27.7802 14.4417 27.9089 14.5235L27.9273 14.5347C28.0513 14.6147 28.1744 14.6947 28.2968 14.7806C28.3388 14.8098 28.3804 14.8402 28.4219 14.8698C28.5019 14.9278 28.5855 14.9866 28.6667 15.0469C28.7162 15.0841 28.7654 15.1221 28.815 15.1601C28.8883 15.2163 28.9613 15.2737 29.0341 15.332C29.0874 15.3747 29.1407 15.4179 29.1941 15.4616C29.2636 15.5192 29.3328 15.5775 29.4016 15.6367C29.4549 15.6834 29.5082 15.7304 29.5615 15.7779C29.629 15.8376 29.6956 15.8982 29.7615 15.9598C29.815 16.009 29.8686 16.0586 29.9214 16.1089C29.9894 16.1733 30.0569 16.2389 30.1241 16.3049C30.1729 16.3529 30.2221 16.4008 30.2705 16.4496C30.3404 16.52 30.4092 16.592 30.4784 16.6639C30.5232 16.7107 30.568 16.7567 30.6123 16.8043C30.6923 16.8907 30.7723 16.979 30.8522 17.0674C30.8818 17.1006 30.9122 17.133 30.9418 17.1666C31.0508 17.2905 31.1585 17.4165 31.2649 17.5444C31.2877 17.572 31.3097 17.6004 31.3325 17.628C31.4156 17.7295 31.4988 17.8315 31.58 17.9355C31.677 18.0594 31.7726 18.185 31.8667 18.3121C31.8823 18.3333 31.8987 18.3521 31.9147 18.3753C32.0674 18.5828 32.2153 18.7952 32.3601 19.0095C32.3953 19.0615 32.4309 19.1134 32.4652 19.1658C32.5184 19.2458 32.5708 19.3278 32.6232 19.4093C32.6688 19.4805 32.7144 19.5517 32.7591 19.6236C32.8107 19.7064 32.8607 19.79 32.9111 19.8736C32.9511 19.9403 32.9911 20.0071 33.031 20.0735C33.1483 20.2742 33.262 20.4769 33.3721 20.6817C33.4121 20.756 33.4521 20.8308 33.4893 20.9052C33.5265 20.9795 33.5724 21.0651 33.6124 21.1451C33.6676 21.255 33.7216 21.3658 33.7744 21.4766C33.7928 21.5165 33.8115 21.5525 33.8295 21.5909C33.8978 21.7362 33.9644 21.8828 34.0295 22.0308C34.0463 22.0707 34.0627 22.1079 34.0791 22.1467C34.1262 22.256 34.1723 22.3657 34.2174 22.4758C34.2379 22.5259 34.2581 22.5759 34.2778 22.6257C34.3196 22.7308 34.3596 22.8359 34.3977 22.9412C34.4149 22.9872 34.4325 23.0332 34.4497 23.0792C34.4982 23.2124 34.545 23.3457 34.5901 23.479C34.5965 23.4974 34.6033 23.5162 34.6097 23.5346C34.6603 23.686 34.7085 23.8374 34.7544 23.9888C34.7688 24.0364 34.782 24.084 34.7944 24.1316C34.8256 24.2371 34.856 24.3427 34.8844 24.4483C34.8999 24.5058 34.9147 24.5634 34.9299 24.6214C34.9553 24.7187 34.9795 24.816 35.0027 24.9133C35.0166 24.9711 35.0299 25.0288 35.0427 25.0864C35.0653 25.1861 35.0867 25.2858 35.1067 25.3855C35.1175 25.4387 35.1287 25.4919 35.1391 25.5454C35.1636 25.6726 35.1861 25.7994 35.2066 25.9257C35.2102 25.9485 35.215 25.9713 35.2186 25.9941C35.2424 26.1434 35.2633 26.2921 35.2814 26.4403C35.2866 26.4803 35.2902 26.5203 35.295 26.5603C35.3073 26.6669 35.3182 26.7742 35.3278 26.8822C35.3322 26.9325 35.3362 26.9825 35.3398 27.0325C35.3472 27.1333 35.3534 27.2336 35.3582 27.3336C35.3606 27.3812 35.363 27.4287 35.365 27.4763C35.3702 27.6179 35.3734 27.7586 35.373 27.8986L35.3502 35.9512C35.3502 36.0979 35.3458 36.2415 35.3394 36.383C35.3394 36.423 35.3342 36.463 35.3322 36.503C35.3266 36.6001 35.3202 36.6965 35.3114 36.7913C35.3066 36.8461 35.3006 36.8996 35.2946 36.9536C35.2858 37.0336 35.2766 37.1136 35.2658 37.1935C35.2578 37.2511 35.2494 37.3075 35.2402 37.3639C35.2288 37.4364 35.2164 37.5079 35.203 37.5786C35.191 37.6418 35.1785 37.7043 35.1654 37.7661C35.1524 37.828 35.138 37.8907 35.1223 37.9544C35.1047 38.0272 35.086 38.0989 35.0663 38.1696C35.0507 38.2251 35.0351 38.2803 35.0183 38.3347C34.9923 38.4191 34.9647 38.5014 34.9359 38.583C34.9199 38.6278 34.9047 38.673 34.8883 38.717C34.836 38.8545 34.7804 38.9885 34.7196 39.1168C34.6724 39.2168 34.6232 39.3143 34.5713 39.4083C34.5657 39.4187 34.5589 39.4283 34.5533 39.4387C34.5057 39.5235 34.4565 39.6058 34.4053 39.6858C34.3929 39.705 34.3797 39.7234 34.3653 39.7426C34.3222 39.8074 34.2778 39.8707 34.2322 39.9325C34.2134 39.9577 34.1942 39.9829 34.175 40.0077C34.1308 40.0647 34.0853 40.1202 34.0387 40.174C34.0215 40.1944 34.0043 40.214 33.9867 40.2348C33.9231 40.306 33.8575 40.3751 33.79 40.4407C33.7796 40.4507 33.7684 40.4603 33.758 40.4703C33.6999 40.5255 33.6404 40.5788 33.5796 40.6302C33.5572 40.649 33.5341 40.6674 33.5113 40.6858C33.4579 40.7282 33.4046 40.769 33.3513 40.8082C33.3285 40.8246 33.3061 40.8414 33.2829 40.857C33.2066 40.9093 33.129 40.9597 33.049 41.0061L36.9052 38.7669C36.9852 38.7206 37.0627 38.6702 37.1395 38.6178C37.1627 38.6022 37.1851 38.5854 37.2075 38.569C37.2621 38.5298 37.3155 38.489 37.3674 38.4467C37.3902 38.4283 37.4134 38.4099 37.4358 38.3911C37.4968 38.3399 37.5566 38.2866 37.6149 38.2311C37.6253 38.2215 37.6361 38.2123 37.6461 38.2023C37.7137 38.1368 37.7793 38.0676 37.8429 37.9964C37.8604 37.9764 37.8776 37.9564 37.8952 37.9352C37.9416 37.8819 37.9871 37.8265 38.0316 37.7689C38.0508 37.7441 38.0716 37.7189 38.0888 37.6937C38.1343 37.6322 38.1786 37.569 38.2215 37.5042C38.2343 37.485 38.2475 37.4666 38.2615 37.447L38.2735 37.4294C38.3207 37.3555 38.3651 37.2787 38.409 37.2011C38.415 37.1903 38.4218 37.1807 38.4278 37.1699C38.478 37.0793 38.5258 36.986 38.5714 36.89L38.5762 36.8784C38.637 36.7501 38.6925 36.6161 38.7449 36.4786C38.7497 36.4662 38.7553 36.455 38.7601 36.4426C38.7717 36.411 38.7813 36.377 38.7925 36.345C38.8213 36.2651 38.8493 36.1807 38.8753 36.0963C38.8825 36.0731 38.8909 36.0515 38.8977 36.0284C38.9069 35.9972 38.9141 35.9636 38.9229 35.932C38.9426 35.8611 38.9614 35.7892 38.9792 35.7165C38.9864 35.6861 38.9956 35.6577 39.0024 35.6269C39.0092 35.5961 39.0152 35.5613 39.022 35.5289C39.0353 35.4668 39.048 35.4041 39.06 35.3406C39.0664 35.3074 39.074 35.2754 39.08 35.2418C39.086 35.2083 39.0912 35.1647 39.0972 35.1267C39.106 35.0703 39.1148 35.0135 39.1228 34.956C39.1268 34.926 39.1324 34.8972 39.136 34.8668C39.142 34.818 39.146 34.7672 39.1516 34.718C39.1572 34.6689 39.1636 34.6101 39.1684 34.5549C39.1704 34.5325 39.1736 34.5109 39.1752 34.4885C39.1812 34.4166 39.1844 34.3418 39.1888 34.2682C39.1912 34.2282 39.1944 34.1882 39.1964 34.1483C39.1964 34.1383 39.1964 34.1287 39.1964 34.1187C39.2017 33.9942 39.2046 33.8677 39.2051 33.7392V33.7168L39.2279 25.6642C39.2319 25.5408 39.2322 25.4199 39.2287 25.3015Z" fill="url(#paint2_linear)"/>
<defs>
<linearGradient id="paint0_linear" x1="16.8784" y1="25.8352" x2="29.2854" y2="25.8352" gradientUnits="userSpaceOnUse">
<stop stop-color="#FFAA55"/>
<stop offset="1" stop-color="#E661C9"/>
</linearGradient>
<linearGradient id="paint1_linear" x1="10.3853" y1="26.7457" x2="33.1808" y2="26.7457" gradientUnits="userSpaceOnUse">
<stop stop-color="#00D2C9"/>
<stop offset="1" stop-color="#E661C9"/>
</linearGradient>
<linearGradient id="paint2_linear" x1="289.977" y1="1459.27" x2="1769.93" y2="1459.27" gradientUnits="userSpaceOnUse">
<stop stop-color="#FFAA55"/>
<stop offset="1" stop-color="#E661C9"/>
</linearGradient>
</defs>
</svg>
