<svg width="24" height="24" viewBox="0 0 24 24" fill="none" xmlns="http://www.w3.org/2000/svg">
<g opacity="0.5" clip-path="url(#clip0)">
<path d="M12 0C5.37266 0 0 5.37266 0 12C0 18.6273 5.37266 24 12 24C12.3615 24 12.7217 23.9838 13.0801 23.9516C13.4133 23.9217 13.7436 23.876 14.0713 23.8188L14.1973 23.7965C20.2904 22.6594 24.5152 17.0689 23.9453 10.8967C23.3754 4.72441 18.1984 0.00195312 12 0V0ZM11.0359 23.1576H11.0076C10.6965 23.1301 10.3877 23.0885 10.0816 23.0352C10.0641 23.032 10.0465 23.0301 10.0293 23.0268C9.73008 22.9732 9.43398 22.9068 9.14082 22.8293L9.06992 22.8111C8.78398 22.7336 8.50117 22.6436 8.22246 22.5436C8.19355 22.5332 8.16445 22.524 8.13555 22.5133C7.8623 22.4129 7.59395 22.3004 7.32969 22.1787C7.29688 22.1641 7.26406 22.15 7.23125 22.1344C6.97207 22.0145 6.71797 21.8793 6.46875 21.7371C6.43359 21.7172 6.39805 21.6973 6.36289 21.6775C6.11758 21.5344 5.87793 21.3809 5.64277 21.2188C5.60723 21.1939 5.57129 21.1699 5.53594 21.1451C5.30488 20.9813 5.07969 20.8072 4.86035 20.6252L4.8 20.5725V17.2C4.80293 14.7711 6.77109 12.8029 9.2 12.8H14.8C17.2289 12.8029 19.1971 14.7711 19.2 17.2V20.5729L19.1469 20.6172C18.9232 20.8039 18.6938 20.9805 18.458 21.1473C18.4268 21.1691 18.3951 21.19 18.3641 21.2115C18.1262 21.3768 17.8824 21.5322 17.6328 21.6783C17.6016 21.6965 17.5695 21.7137 17.5385 21.7316C17.2855 21.8756 17.0283 22.0115 16.766 22.134C16.7359 22.148 16.7057 22.1611 16.6752 22.174C16.4088 22.2969 16.1381 22.41 15.8629 22.5111C15.8355 22.5213 15.808 22.5301 15.7828 22.5396C15.5027 22.64 15.2188 22.7309 14.9313 22.8088L14.8623 22.826C14.5688 22.9035 14.2725 22.9703 13.9729 23.024C13.9557 23.0271 13.9385 23.0293 13.9213 23.032C13.6148 23.0855 13.3057 23.1271 12.9943 23.1549H12.966C12.6461 23.1824 12.326 23.1973 12.002 23.1973C11.6779 23.1973 11.3553 23.1852 11.0359 23.1576ZM20 19.8313V17.2C19.9967 14.3295 17.6705 12.0033 14.8 12H9.2C6.32949 12.0033 4.00332 14.3295 4 17.2V19.8309C-0.308203 15.4338 -0.260156 8.38398 4.10742 4.0459C8.475 -0.291992 15.525 -0.291992 19.8926 4.0459C24.2602 8.38398 24.3082 15.4338 20 19.8309V19.8313Z" fill="white"/>
<path d="M12 3.2002C9.79082 3.2002 8 4.99102 8 7.2002C8 9.40937 9.79082 11.2002 12 11.2002C14.2092 11.2002 16 9.40937 16 7.2002C15.9977 4.99199 14.2082 3.20254 12 3.2002ZM12 10.4002C10.2326 10.4002 8.8 8.96758 8.8 7.2002C8.8 5.43281 10.2326 4.0002 12 4.0002C13.7674 4.0002 15.2 5.43281 15.2 7.2002C15.198 8.9666 13.7664 10.3982 12 10.4002Z" fill="white"/>
</g>
<defs>
<clipPath id="clip0">
<rect width="24" height="24" fill="white"/>
</clipPath>
</defs>
</svg>
