<svg width="36" height="37" viewBox="0 0 36 37" fill="none" xmlns="http://www.w3.org/2000/svg">
<path d="M32.7015 6.86912C32.7015 6.74092 32.7015 6.61265 32.7015 6.48443C32.1045 3.92033 26.7313 3.02295 22.1045 3.02295C17.4777 3.02295 12.1045 3.92033 11.5075 6.48443C11.5075 6.61265 11.5075 6.61258 11.5075 6.74078C11.5075 6.74078 11.5075 6.74092 11.5075 6.86912V6.99713V7.2538C7.1791 7.51022 3 8.66407 3 11.1V29.3051C3 29.4333 3.00002 29.6898 3.14927 29.6898C3.89553 32.1256 9.26865 33.0229 13.7463 33.0229C18.2238 33.0229 23.597 32.1256 24.3433 29.6898C24.3433 29.5616 24.4925 29.4331 24.4925 29.1768V28.7921C26.8805 28.6639 32.1045 28.0229 32.8507 25.587C32.8507 25.4588 33 25.3306 33 25.0743L32.7015 6.86912C32.7015 6.99733 32.7015 6.99733 32.7015 6.86912ZM13.597 14.3051C17.7762 14.3051 21.0597 13.4074 22.8507 12.51V16.9973C22.5522 17.5101 19.5672 19.1766 13.597 19.1766C7.77613 19.1766 4.79105 17.5101 4.49253 16.9973V12.6384C6.28358 13.4076 9.41792 14.3051 13.597 14.3051ZM31.209 12.8947C30.9105 13.2793 28.8208 14.5614 24.3433 14.9461V11.1C24.3433 11.1 24.3433 11.0998 24.3433 10.9716C24.3433 10.8434 24.3433 10.7153 24.3433 10.7153C24.3433 10.4589 24.194 10.3307 24.0448 10.0743C27.1792 9.81785 29.7163 9.17677 31.209 8.40753V12.8947ZM4.49253 18.6639C6.13433 19.5614 9.26867 20.4588 13.597 20.4588C17.7762 20.4588 21.0597 19.5614 22.8507 18.6639V23.1511C22.5522 23.6639 19.5672 25.3306 13.597 25.3306C7.77613 25.3306 4.79105 23.6639 4.49253 23.1511V18.6639ZM24.3433 16.2281C27.3283 15.9718 29.8657 15.3306 31.209 14.5615V19.0486C30.9105 19.4333 28.6717 20.7151 24.3433 21.0998V16.2281ZM22.1045 4.43302C26.8807 4.43302 30.7612 5.45873 31.209 6.74078C30.7612 7.25362 28.0747 8.664 22.7015 8.7922C20.612 7.63835 17.0298 7.12547 13.597 7.12547C13.2985 7.12547 13.1493 7.12547 12.8507 7.12547V6.99713C13 5.58688 17.0298 4.43302 22.1045 4.43302ZM13.7463 8.53585C18.6717 8.53585 22.5522 9.56125 22.8507 10.8433C22.403 11.3561 19.5672 13.0231 13.7463 13.0231C8.07462 13.0231 5.08957 11.4843 4.6418 10.8433C4.9403 9.56125 8.82088 8.53585 13.7463 8.53585ZM13.7463 31.7409C8.97015 31.7409 4.9403 30.7155 4.6418 29.3051V24.8179C6.28358 25.7153 9.4179 26.6126 13.7463 26.6126C17.9253 26.6126 21.209 25.7153 23 24.8179V29.4331C22.403 30.7151 18.5223 31.7409 13.7463 31.7409ZM24.3433 27.6384V22.3818C27.3283 22.1255 29.8657 21.4846 31.209 20.7155V25.3306C30.9105 26.4844 28.2238 27.3819 24.3433 27.6384Z" fill="white"/>
</svg>
