<svg width="24" height="24" viewBox="0 0 24 24" fill="none" xmlns="http://www.w3.org/2000/svg">
<path d="M17.3654 0.152772C17.5726 -0.0473748 17.9028 -0.0416047 18.1029 0.165584C18.2981 0.367735 18.2981 0.688175 18.1029 0.890278L6.99707 11.9972L18.104 23.103C18.3112 23.3032 18.3169 23.6334 18.1168 23.8406C17.9166 24.0478 17.5865 24.0535 17.3792 23.8534C17.3749 23.8492 17.3706 23.8449 17.3664 23.8406L5.89125 12.3654C5.68763 12.1618 5.68763 11.8316 5.89125 11.6279L17.3654 0.152772Z" fill="white"/>
<path d="M17.7343 23.9941C18.0224 23.9947 18.2563 23.7615 18.2568 23.4735C18.2571 23.3346 18.2019 23.2013 18.1036 23.1032L6.99669 11.9974L18.1036 0.891553C18.3075 0.687592 18.3075 0.356932 18.1036 0.152971C17.8996 -0.0509902 17.569 -0.0509902 17.365 0.152971L5.88984 11.6281C5.68622 11.8318 5.68622 12.162 5.88984 12.3657L17.365 23.8408C17.4628 23.9389 17.5957 23.9941 17.7343 23.9941Z" fill="white"/>
</svg>
