<svg width="24" height="20" viewBox="0 0 24 20" fill="none" xmlns="http://www.w3.org/2000/svg">
<path d="M19.8269 1H4.17307C2.42343 1 1 2.42343 1 4.17307V16.0192C1 17.7689 2.42343 19.1923 4.17307 19.1923H19.8269C21.5766 19.1923 23 17.7689 23 16.0192V4.17307C23 2.42343 21.5766 1 19.8269 1ZM21.7308 12H17.0769C16.0272 12 15.1731 11.146 15.1731 10.0961C15.1731 9.04633 16.0271 8.19228 17.0769 8.19228H21.7308V12ZM21.7308 6.92307H17.0769C15.3273 6.92307 13.9039 8.3465 13.9039 10.0961C13.9039 11.8458 15.3273 13.2692 17.0769 13.2692H21.7308V16.0192C21.7308 17.069 20.8767 17.9231 19.8269 17.9231H4.17307C3.1233 17.9231 2.26921 17.069 2.26921 16.0192V4.17307C2.26921 3.1233 3.12326 2.26921 4.17307 2.26921H19.8269C20.8767 2.26921 21.7308 3.12326 21.7308 4.17307V6.92307Z" fill="black" stroke="black" stroke-width="0.3"/>
</svg>
