<svg width="18" height="18" viewBox="0 0 18 18" fill="none" xmlns="http://www.w3.org/2000/svg">
<path d="M15.3668 2.63318C11.8552 -0.877727 6.14425 -0.877727 2.6326 2.63318C-0.877533 6.14409 -0.877533 11.8565 2.6326 15.3674C4.38842 17.1225 6.69424 17.9996 9.0001 17.9996C11.306 17.9996 13.611 17.1224 15.3668 15.3674C18.8777 11.8565 18.8777 6.14409 15.3668 2.63318ZM12.7136 11.6532C13.0069 11.9465 13.0069 12.4208 12.7136 12.7141C12.5672 12.8605 12.3752 12.934 12.1831 12.934C11.991 12.934 11.7989 12.8605 11.6525 12.7141L9.00006 10.0609L6.34832 12.7134C6.20126 12.8597 6.00915 12.9332 5.81781 12.9332C5.62573 12.9332 5.43362 12.8597 5.2873 12.7134C4.99392 12.42 4.99392 11.945 5.2873 11.6524L7.93904 8.9999L5.28656 6.34742C4.99318 6.05405 4.99318 5.57907 5.28656 5.28644C5.5792 4.99306 6.05417 4.99306 6.34754 5.28644L9.00003 7.93892L11.6525 5.28644C11.9459 4.99306 12.4201 4.99306 12.7135 5.28644C13.0069 5.57907 13.0069 6.05405 12.7135 6.34742L10.061 8.9999L12.7136 11.6532Z" fill="#EB5757"/>
</svg>
