<svg width="24" height="24" viewBox="0 0 24 24" fill="none" xmlns="http://www.w3.org/2000/svg">
<g clip-path="url(#clip0)">
<path d="M23.6246 4.93932C23.3027 4.54098 22.8242 4.31256 22.3119 4.31256H4.0189L3.85554 3.14182C3.73985 2.31279 3.02136 1.68758 2.18422 1.68758H0.749996C0.335811 1.68758 0 2.02339 0 2.43757C0 2.85176 0.335811 3.18757 0.749996 3.18757H2.18422C2.27722 3.18757 2.3571 3.25704 2.36989 3.34914L4.39436 17.8582C4.51005 18.6873 5.22855 19.3125 6.06568 19.3125H6.87891C6.79566 19.5472 6.74991 19.7995 6.74991 20.0625C6.74991 21.3031 7.75927 22.3125 8.9999 22.3125C10.2405 22.3125 11.2499 21.3031 11.2499 20.0625C11.2499 19.7995 11.2041 19.5472 11.1209 19.3125H15.1289C15.0456 19.5472 14.9999 19.7995 14.9999 20.0625C14.9999 21.3031 16.0092 22.3125 17.2499 22.3125C18.4905 22.3125 19.4998 21.3031 19.4998 20.0625C19.4998 19.7995 19.4541 19.5472 19.3708 19.3125H20.9999C21.4141 19.3125 21.7499 18.9767 21.7499 18.5625C21.7499 18.1483 21.4141 17.8125 20.9999 17.8125H6.06573C5.97273 17.8125 5.89286 17.743 5.88006 17.6509L5.69331 16.3125H20.4636C21.2538 16.3125 21.9478 15.7516 22.1139 14.9785L23.9621 6.35372C24.0695 5.85305 23.9465 5.33752 23.6246 4.93932ZM9.74994 20.0625C9.74994 20.476 9.41348 20.8125 8.99995 20.8125C8.58642 20.8125 8.24995 20.476 8.24995 20.0625C8.24995 19.6489 8.58642 19.3125 8.99995 19.3125C9.41348 19.3125 9.74994 19.6489 9.74994 20.0625ZM17.9999 20.0625C17.9999 20.476 17.6634 20.8125 17.2499 20.8125C16.8364 20.8125 16.4999 20.476 16.4999 20.0625C16.4999 19.6489 16.8364 19.3125 17.2499 19.3125C17.6634 19.3125 17.9999 19.6489 17.9999 20.0625ZM22.4954 6.03929L20.6472 14.6639C20.6288 14.75 20.5515 14.8125 20.4636 14.8125H5.48397L4.22819 5.81251H22.3119C22.3861 5.81251 22.4323 5.85038 22.458 5.88216C22.4836 5.9139 22.5109 5.96691 22.4954 6.03929Z" fill="black"/>
</g>
<defs>
<clipPath id="clip0">
<rect width="24" height="24" fill="white"/>
</clipPath>
</defs>
</svg>
