<svg width="20" height="21" viewBox="0 0 20 21" fill="none" xmlns="http://www.w3.org/2000/svg">
<path d="M19.7626 19.2028L11.1467 10.5869L19.7625 1.97104C20.0792 1.65444 20.0792 1.14104 19.7625 0.824395C19.4459 0.507754 18.9325 0.507754 18.6159 0.824395L10.0001 9.44024L1.38415 0.824395C1.06755 0.507754 0.554152 0.507754 0.237511 0.824395C-0.0791297 1.141 -0.0791297 1.6544 0.237511 1.97104L8.85338 10.5869L0.237511 19.2028C-0.0791297 19.5194 -0.0791297 20.0328 0.237511 20.3494C0.554113 20.666 1.06751 20.6661 1.38415 20.3494L10.0001 11.7335L18.616 20.3494C18.9326 20.666 19.446 20.6661 19.7626 20.3494C20.0792 20.0328 20.0792 19.5194 19.7626 19.2028Z" fill="#828282"/>
</svg>
