<svg width="24" height="24" viewBox="0 0 24 24" fill="none" xmlns="http://www.w3.org/2000/svg">
<g opacity="0.5">
<path d="M24 5.37919H22.3448V3.72402H20.6897V2.06885H3.31034V3.72402H1.65517V5.37919H0V18.6206H1.65517V20.2757H3.31034V21.9309H20.6897V20.2757H22.3448V18.6206H24V5.37919ZM0.827586 17.793V6.20678H1.65517V17.793H0.827586ZM2.48276 19.4482V18.6206V5.37919V4.55161H3.31034V19.4482H2.48276ZM19.8621 21.1033H4.13793V20.2757V3.72402V2.89643H19.8621V3.72402V20.2757V21.1033ZM21.5172 19.4482H20.6897V4.55161H21.5172V5.37919V18.6206V19.4482ZM23.1724 17.793H22.3448V6.20678H23.1724V17.793Z" fill="white"/>
</g>
</svg>
