<svg width="150" height="150" viewBox="0 0 150 150" fill="none" xmlns="http://www.w3.org/2000/svg">
<g clip-path="url(#clip0)">
<path d="M121.631 60.1963L28.5163 60.1147L4.98242 74.3823V150H145.016V74.3832L121.631 60.1963Z" fill="#AC1428"/>
<path d="M145.016 74.383L121.631 60.196L75.0078 60.1553V150H145.016V74.383Z" fill="#820213"/>
<path d="M25.3516 0V122.178L124.797 122.082V0H25.3516Z" fill="#FFEDF0"/>
<path d="M124.798 0H75.0078V122.13L124.798 122.082V0Z" fill="#FFDFE4"/>
<path d="M145.016 74.3832V150H4.98242V74.3823L74.9994 109.107L145.016 74.3832Z" fill="#B42033"/>
<path d="M145.016 74.3833L75.0078 109.103V150H145.016V74.3833Z" fill="#8E0E1F"/>
<path d="M41.9684 35.296V61H47.2604V43.792H47.3324L58.0244 61H63.6764V35.296H58.3844V52.54H58.3124L47.5844 35.296H41.9684ZM68.652 35.296V61H74.304V50.38H85.068V45.988H74.304V40.048H86.724V35.296H68.652ZM95.6798 40.048V61H101.332V40.048H109.036V35.296H87.9758V40.048H95.6798Z" fill="#B42033"/>
</g>
<defs>
<clipPath id="clip0">
<rect width="150" height="150" fill="white"/>
</clipPath>
</defs>
</svg>
