<svg width="24" height="24" viewBox="0 0 24 24" fill="none" xmlns="http://www.w3.org/2000/svg">
<g clip-path="url(#clip0)">
<path d="M16.5 24H3.5C2.122 24 1 22.878 1 21.5V7.5C1 6.122 2.122 5 3.5 5H4.5C4.776 5 5 5.224 5 5.5C5 5.776 4.776 6 4.5 6H3.5C2.673 6 2 6.673 2 7.5V21.5C2 22.327 2.673 23 3.5 23H16.5C17.327 23 18 22.327 18 21.5V20.5C18 20.224 18.224 20 18.5 20C18.776 20 19 20.224 19 20.5V21.5C19 22.878 17.878 24 16.5 24Z" fill="white"/>
<path d="M20.5 18H9.5C8.122 18 7 16.878 7 15.5V2.5C7 1.122 8.122 0 9.5 0H20.5C21.878 0 23 1.122 23 2.5V15.5C23 16.878 21.878 18 20.5 18ZM9.5 1C8.673 1 8 1.673 8 2.5V15.5C8 16.327 8.673 17 9.5 17H20.5C21.327 17 22 16.327 22 15.5V2.5C22 1.673 21.327 1 20.5 1H9.5Z" fill="white"/>
</g>
<defs>
<clipPath id="clip0">
<rect width="24" height="24" fill="white"/>
</clipPath>
</defs>
</svg>
