<svg width="30" height="30" viewBox="0 0 30 30" fill="none" xmlns="http://www.w3.org/2000/svg">
<g clip-path="url(#clip0)">
<path d="M5.09008 25.0458H5.10448L14.0834 24.9949C14.8862 27.0827 16.6733 28.6354 18.8526 29.1388C21.032 29.6421 23.319 29.0305 24.9562 27.5063L27.3378 29.8882C27.4868 30.0372 27.7284 30.0372 27.8771 29.8882C28.0261 29.7395 28.0261 29.4978 27.8774 29.3489L25.4849 26.9566C27.1012 25.0738 27.5514 22.4551 26.6564 20.1408C25.7615 17.8264 23.6667 16.1918 21.2041 15.8863L21.155 6.99435L21.1545 6.88484C21.154 6.78353 21.1132 6.68668 21.0412 6.61542L14.4722 0.122917C14.4097 0.0610861 14.3277 0.0228452 14.2403 0.0144024L14.1037 0.00173822C14.0911 0.000496634 14.0782 0.000496634 14.0655 0L4.98429 0.0434555C3.34515 0.0531399 2.02311 1.38784 2.02932 3.02674L2.12095 22.0908C2.13063 23.7242 3.45665 25.0438 5.09008 25.0458ZM26.3468 22.573C26.3468 25.8732 23.6716 28.5485 20.3713 28.5485C17.0711 28.5485 14.3958 25.8732 14.3958 22.573C14.3958 19.2726 17.0711 16.5975 20.3713 16.5975C23.6702 16.6012 26.3433 19.2744 26.3468 22.5733V22.573ZM19.8627 6.52304L16.8079 6.53769H16.797C15.5827 6.53745 14.5969 5.5561 14.5909 4.34207L14.5763 1.29795L19.8627 6.52304ZM3.43082 1.45986C3.84179 1.04293 4.40224 0.807527 4.98777 0.806286L13.8107 0.763824L13.8281 4.3458C13.8361 5.97997 15.1626 7.30052 16.7967 7.30077H16.8114L20.3939 7.28364L20.441 15.8357C20.4179 15.8357 20.3946 15.8349 20.3713 15.8349C18.2916 15.8354 16.3289 16.7959 15.0526 18.4375C13.776 20.0789 13.3285 22.2179 13.8403 24.2333L5.10051 24.2829C3.88226 24.2886 2.88974 23.3058 2.88378 22.0876L2.79215 3.02301C2.78768 2.43773 3.01762 1.87479 3.43082 1.45986Z" fill="#828282" stroke="#828282" stroke-width="0.3"/>
<path d="M12.5382 14.082H11.2447C11.0341 14.082 10.8633 14.2529 10.8633 14.4634C10.8633 14.674 11.0341 14.8449 11.2447 14.8449H12.5382C12.749 14.8449 12.9196 14.674 12.9196 14.4634C12.9196 14.2529 12.749 14.082 12.5382 14.082Z" fill="#828282" stroke="#828282" stroke-width="0.3"/>
<path d="M6.25837 11.61H16.9976C17.2082 11.61 17.379 11.4392 17.379 11.2286C17.379 11.018 17.2082 10.8472 16.9976 10.8472H6.25837C6.04755 10.8472 5.87695 11.018 5.87695 11.2286C5.87695 11.4392 6.04755 11.61 6.25837 11.61Z" fill="#828282" stroke="#828282" stroke-width="0.3"/>
<path d="M6.25837 14.8449H9.60568C9.8165 14.8449 9.9871 14.674 9.9871 14.4634C9.9871 14.2529 9.8165 14.082 9.60568 14.082H6.25837C6.04755 14.082 5.87695 14.2529 5.87695 14.4634C5.87695 14.674 6.04755 14.8449 6.25837 14.8449Z" fill="#828282" stroke="#828282" stroke-width="0.3"/>
</g>
<defs>
<clipPath id="clip0">
<rect width="30" height="30" fill="white"/>
</clipPath>
</defs>
</svg>
