<svg width="24" height="25" viewBox="0 0 24 25" fill="none" xmlns="http://www.w3.org/2000/svg">
<path d="M3.20637 21.0955C3.2345 21.1237 3.26262 21.1447 3.29778 21.1588C5.55504 23.5567 8.70534 24.9209 12.0033 24.9209C15.3013 24.9209 18.4516 23.5567 20.7089 21.1518C20.737 21.1377 20.7651 21.1166 20.7932 21.0885C20.8143 21.0604 20.8284 21.0322 20.8425 21.0041C25.0546 16.4334 25.0546 9.40141 20.8425 4.83066C20.8284 4.80253 20.8073 4.76737 20.7932 4.74627C20.7651 4.71814 20.737 4.69705 20.7018 4.67595C18.4446 2.27806 15.2943 0.920898 11.9963 0.920898C8.69831 0.920898 5.55504 2.27806 3.29778 4.68298C3.26262 4.70408 3.2345 4.72518 3.20637 4.7533C3.18527 4.78143 3.17121 4.80956 3.15714 4.83769C-1.05499 9.40845 -1.05499 16.4404 3.15714 21.0111C3.17121 21.0393 3.1923 21.0674 3.20637 21.0955ZM15.2732 23.2121C16.1944 22.1011 16.8905 20.8142 17.3195 19.429C18.0719 19.7806 18.7821 20.2165 19.4361 20.7369C18.2547 21.862 16.8272 22.7129 15.2732 23.2121ZM20.2658 19.8579C19.4642 19.218 18.5922 18.6765 17.657 18.2617C18.0438 16.7076 18.2547 15.1184 18.2828 13.5221H22.7692C22.6426 15.8497 21.7637 18.0788 20.2658 19.8579ZM22.7692 12.3197H18.2828C18.2477 10.7234 18.0438 9.1342 17.657 7.58014C18.5922 7.15823 19.4642 6.6238 20.2658 5.98389C21.7637 7.77001 22.6426 9.9921 22.7692 12.3197ZM19.4361 5.1049C18.7821 5.61823 18.0719 6.05421 17.3195 6.41284C16.8905 5.02755 16.2014 3.74774 15.2732 2.62966C16.8272 3.12893 18.2547 3.97979 19.4361 5.1049ZM12.601 2.20071C14.0707 2.58747 15.3716 4.35248 16.1944 6.85585C15.0341 7.25667 13.8246 7.48873 12.601 7.53795V2.20071ZM12.601 8.74744C13.9371 8.69822 15.2591 8.4521 16.5249 8.03019C16.8624 9.43657 17.0523 10.8781 17.0874 12.3267H12.601V8.74744ZM12.601 13.5221H17.0874C17.0523 14.9707 16.8624 16.4123 16.5249 17.8186C15.2591 17.3897 13.9371 17.1506 12.601 17.1014V13.5221ZM12.601 18.2968C13.8246 18.3531 15.0341 18.5781 16.1944 18.9789C15.3716 21.4823 14.0707 23.2473 12.601 23.6341V18.2968ZM4.56353 20.7299C5.2175 20.2165 5.92773 19.7806 6.68015 19.429C7.10909 20.8142 7.79822 22.0941 8.72644 23.2121C7.16535 22.7058 5.7449 21.862 4.56353 20.7299ZM11.3986 23.6411C9.9289 23.2543 8.62799 21.4893 7.80525 18.9859C8.96552 18.5851 10.175 18.3531 11.3986 18.3038V23.6411ZM11.3986 17.0944C10.0625 17.1436 8.7405 17.3897 7.47475 17.8116C7.13722 16.4052 6.94736 14.9637 6.9122 13.5151H11.3986V17.0944ZM11.3986 12.3197H6.9122C6.94736 10.8711 7.13722 9.42954 7.47475 8.02315C8.7405 8.4521 10.0625 8.69119 11.3986 8.74041V12.3197ZM11.3986 2.20071V7.54498C10.175 7.48873 8.96552 7.26371 7.80525 6.86288C8.62799 4.35952 9.9289 2.58747 11.3986 2.20071ZM8.72644 2.62966C7.80525 3.74071 7.10909 5.02755 6.68015 6.41284C5.92773 6.06124 5.2175 5.62526 4.56353 5.1049C5.7449 3.97276 7.16535 3.12893 8.72644 2.62966ZM3.73376 5.98389C4.5354 6.6238 5.40736 7.16526 6.34261 7.58014C5.95586 9.1342 5.7449 10.7234 5.71677 12.3197H1.23039C1.34994 9.9921 2.22893 7.76297 3.73376 5.98389ZM5.71677 13.5221C5.7449 15.1184 5.95586 16.7076 6.34261 18.2617C5.40736 18.6836 4.5354 19.218 3.73376 19.8579C2.23596 18.0718 1.34994 15.8497 1.23039 13.5221H5.71677Z" fill="#F2994A"/>
</svg>
