<svg width="24" height="25" viewBox="0 0 24 25" fill="none" xmlns="http://www.w3.org/2000/svg">
<path d="M3.20637 20.4119C3.2345 20.4401 3.26262 20.4612 3.29778 20.4752C5.55504 22.8731 8.70534 24.2373 12.0033 24.2373C15.3013 24.2373 18.4516 22.8731 20.7089 20.4682C20.737 20.4541 20.7651 20.433 20.7932 20.4049C20.8143 20.3768 20.8284 20.3486 20.8425 20.3205C25.0546 15.7498 25.0546 8.71782 20.8425 4.14706C20.8284 4.11893 20.8073 4.08377 20.7932 4.06268C20.7651 4.03455 20.737 4.01345 20.7018 3.99236C18.4446 1.59447 15.2943 0.237305 11.9963 0.237305C8.69831 0.237305 5.55504 1.59447 3.29778 3.99939C3.26262 4.02049 3.2345 4.04158 3.20637 4.06971C3.18527 4.09784 3.17121 4.12597 3.15714 4.15409C-1.05499 8.72485 -1.05499 15.7568 3.15714 20.3275C3.17121 20.3557 3.1923 20.3838 3.20637 20.4119ZM15.2732 22.5285C16.1944 21.4175 16.8905 20.1307 17.3195 18.7454C18.0719 19.097 18.7821 19.5329 19.4361 20.0533C18.2547 21.1784 16.8272 22.0293 15.2732 22.5285ZM20.2658 19.1743C19.4642 18.5344 18.5922 17.9929 17.657 17.5781C18.0438 16.024 18.2547 14.4348 18.2828 12.8385H22.7692C22.6426 15.1661 21.7637 17.3952 20.2658 19.1743ZM22.7692 11.6361H18.2828C18.2477 10.0398 18.0438 8.45061 17.657 6.89655C18.5922 6.47463 19.4642 5.94021 20.2658 5.3003C21.7637 7.08641 22.6426 9.3085 22.7692 11.6361ZM19.4361 4.42131C18.7821 4.93464 18.0719 5.37062 17.3195 5.72925C16.8905 4.34396 16.2014 3.06414 15.2732 1.94607C16.8272 2.44533 18.2547 3.2962 19.4361 4.42131ZM12.601 1.51712C14.0707 1.90387 15.3716 3.66889 16.1944 6.17226C15.0341 6.57308 13.8246 6.80513 12.601 6.85436V1.51712ZM12.601 8.06385C13.9371 8.01463 15.2591 7.76851 16.5249 7.34659C16.8624 8.75298 17.0523 10.1945 17.0874 11.6431H12.601V8.06385ZM12.601 12.8385H17.0874C17.0523 14.2871 16.8624 15.7287 16.5249 17.135C15.2591 16.7061 13.9371 16.467 12.601 16.4178V12.8385ZM12.601 17.6132C13.8246 17.6695 15.0341 17.8945 16.1944 18.2953C15.3716 20.7987 14.0707 22.5637 12.601 22.9505V17.6132ZM4.56353 20.0463C5.2175 19.5329 5.92773 19.097 6.68015 18.7454C7.10909 20.1307 7.79822 21.4105 8.72644 22.5285C7.16535 22.0222 5.7449 21.1784 4.56353 20.0463ZM11.3986 22.9575C9.9289 22.5707 8.62799 20.8057 7.80525 18.3024C8.96552 17.9015 10.175 17.6695 11.3986 17.6203V22.9575ZM11.3986 16.4108C10.0625 16.46 8.7405 16.7061 7.47475 17.128C7.13722 15.7216 6.94736 14.2801 6.9122 12.8315H11.3986V16.4108ZM11.3986 11.6361H6.9122C6.94736 10.1875 7.13722 8.74595 7.47475 7.33956C8.7405 7.76851 10.0625 8.00759 11.3986 8.05682V11.6361ZM11.3986 1.51712V6.86139C10.175 6.80513 8.96552 6.58011 7.80525 6.17929C8.62799 3.67592 9.9289 1.90387 11.3986 1.51712ZM8.72644 1.94607C7.80525 3.05711 7.10909 4.34396 6.68015 5.72925C5.92773 5.37765 5.2175 4.94167 4.56353 4.42131C5.7449 3.28917 7.16535 2.44533 8.72644 1.94607ZM3.73376 5.3003C4.5354 5.94021 5.40736 6.48166 6.34261 6.89655C5.95586 8.45061 5.7449 10.0398 5.71677 11.6361H1.23039C1.34994 9.3085 2.22893 7.07938 3.73376 5.3003ZM5.71677 12.8385C5.7449 14.4348 5.95586 16.024 6.34261 17.5781C5.40736 18 4.5354 18.5344 3.73376 19.1743C2.23596 17.3882 1.34994 15.1661 1.23039 12.8385H5.71677Z" fill="black"/>
</svg>
