<svg width="24" height="24" viewBox="0 0 24 24" fill="none" xmlns="http://www.w3.org/2000/svg">
<g opacity="0.5" clip-path="url(#clip0)">
<path d="M23.2383 10.5382L12.5592 0.227438C12.2481 -0.0758127 11.7519 -0.0758127 11.4408 0.227438L0.762096 10.5378C0.604884 10.6895 0.516113 10.8986 0.516113 11.1171C0.516113 11.5618 0.876633 11.9223 1.32129 11.9223H2.74042V23.1948C2.74042 23.6395 3.10089 24 3.5456 24H9.18186C9.62657 24 9.98704 23.6395 9.98704 23.1948V16.7534H14.0129V23.1948C14.0129 23.6395 14.3734 24 14.8181 24H20.4544C20.8991 24 21.2596 23.6395 21.2596 23.1948V11.9223H22.6787C22.897 11.9223 23.1059 11.8337 23.2576 11.6767C23.5667 11.3569 23.558 10.8472 23.2383 10.5382ZM21.2596 11.1171C20.8149 11.1171 20.4544 11.4776 20.4544 11.9223V23.1948H14.8181V16.7534C14.8181 16.3086 14.4577 15.9482 14.0129 15.9482H9.98704C9.54233 15.9482 9.18186 16.3086 9.18186 16.7534V23.1948H3.5456V11.9223C3.5456 11.4776 3.18513 11.1171 2.74042 11.1171H1.32129L12 0.806765L22.6827 11.1171H21.2596Z" fill="white"/>
</g>
<defs>
<clipPath id="clip0">
<rect width="24" height="24" fill="white"/>
</clipPath>
</defs>
</svg>
