<svg width="24" height="24" viewBox="0 0 24 24" fill="none" xmlns="http://www.w3.org/2000/svg">
<g clip-path="url(#clip0)">
<path d="M23.2388 10.5382L12.5597 0.227438C12.2486 -0.0758127 11.7524 -0.0758127 11.4413 0.227438L0.762584 10.5378C0.605373 10.6895 0.516602 10.8986 0.516602 11.1171C0.516602 11.5618 0.877121 11.9223 1.32178 11.9223H2.74091V23.1948C2.74091 23.6395 3.10138 24 3.54609 24H9.18235C9.62706 24 9.98753 23.6395 9.98753 23.1948V16.7534H14.0134V23.1948C14.0134 23.6395 14.3739 24 14.8186 24H20.4549C20.8996 24 21.2601 23.6395 21.2601 23.1948V11.9223H22.6792C22.8975 11.9223 23.1064 11.8337 23.2581 11.6767C23.5671 11.3569 23.5585 10.8472 23.2388 10.5382ZM21.2601 11.1171C20.8153 11.1171 20.4549 11.4776 20.4549 11.9223V23.1948H14.8186V16.7534C14.8186 16.3086 14.4581 15.9482 14.0134 15.9482H9.98753C9.54282 15.9482 9.18235 16.3086 9.18235 16.7534V23.1948H3.54609V11.9223C3.54609 11.4776 3.18562 11.1171 2.74091 11.1171H1.32178L12.0005 0.806765L22.6832 11.1171H21.2601Z" fill="white"/>
</g>
<defs>
<clipPath id="clip0">
<rect width="24" height="24" fill="white"/>
</clipPath>
</defs>
</svg>
