<svg width="30" height="30" viewBox="0 0 30 30" fill="none" xmlns="http://www.w3.org/2000/svg">
<circle cx="15" cy="15" r="15" fill="black"/>
<g clip-path="url(#clip0)">
<path d="M15.0043 11.0353C12.7329 11.0353 10.9007 12.8675 10.9007 15.1389C10.9007 17.4103 12.7329 19.2425 15.0043 19.2425C17.2757 19.2425 19.1079 17.4103 19.1079 15.1389C19.1079 12.8675 17.2757 11.0353 15.0043 11.0353ZM15.0043 17.8068C13.5364 17.8068 12.3364 16.6103 12.3364 15.1389C12.3364 13.6675 13.5329 12.4711 15.0043 12.4711C16.4757 12.4711 17.6722 13.6675 17.6722 15.1389C17.6722 16.6103 16.4722 17.8068 15.0043 17.8068ZM20.2329 10.8675C20.2329 11.3996 19.8043 11.8246 19.2757 11.8246C18.7436 11.8246 18.3186 11.3961 18.3186 10.8675C18.3186 10.3389 18.7472 9.91034 19.2757 9.91034C19.8043 9.91034 20.2329 10.3389 20.2329 10.8675ZM22.9507 11.8389C22.89 10.5568 22.5972 9.42105 21.6579 8.48534C20.7222 7.54962 19.5864 7.25677 18.3043 7.19248C16.9829 7.11748 13.0222 7.11748 11.7007 7.19248C10.4222 7.25319 9.28644 7.54605 8.34715 8.48177C7.40787 9.41748 7.11858 10.5532 7.0543 11.8353C6.9793 13.1568 6.9793 17.1175 7.0543 18.4389C7.11501 19.7211 7.40787 20.8568 8.34715 21.7925C9.28644 22.7282 10.4186 23.0211 11.7007 23.0853C13.0222 23.1603 16.9829 23.1603 18.3043 23.0853C19.5864 23.0246 20.7222 22.7318 21.6579 21.7925C22.5936 20.8568 22.8864 19.7211 22.9507 18.4389C23.0257 17.1175 23.0257 13.1603 22.9507 11.8389ZM21.2436 19.8568C20.965 20.5568 20.4257 21.0961 19.7222 21.3782C18.6686 21.7961 16.1686 21.6996 15.0043 21.6996C13.84 21.6996 11.3364 21.7925 10.2864 21.3782C9.58644 21.0996 9.04715 20.5603 8.76501 19.8568C8.34715 18.8032 8.44358 16.3032 8.44358 15.1389C8.44358 13.9746 8.35073 11.4711 8.76501 10.4211C9.04358 9.72105 9.58287 9.18177 10.2864 8.89962C11.34 8.48177 13.84 8.57819 15.0043 8.57819C16.1686 8.57819 18.6722 8.48534 19.7222 8.89962C20.4222 9.17819 20.9614 9.71748 21.2436 10.4211C21.6614 11.4746 21.565 13.9746 21.565 15.1389C21.565 16.3032 21.6614 18.8068 21.2436 19.8568Z" fill="white"/>
</g>
<defs>
<clipPath id="clip0">
<rect width="16" height="18.2857" fill="white" transform="translate(7 6)"/>
</clipPath>
</defs>
</svg>
