<svg width="24" height="24" viewBox="0 0 24 24" fill="none" xmlns="http://www.w3.org/2000/svg">
<g clip-path="url(#clip0)">
<path d="M7.06397 16.3829C6.76397 16.6876 6.76397 17.1751 7.06397 17.4798C7.36397 17.7845 7.85616 17.7845 8.15616 17.4798C10.2796 15.3563 13.7155 15.3563 15.839 17.4798C15.989 17.6298 16.1905 17.7048 16.3874 17.7048C17.0718 17.7048 17.4233 16.8704 16.9358 16.3829C14.2077 13.6548 9.7921 13.6548 7.06397 16.3829ZM3.31866 14.3767C2.91085 14.8876 3.28116 15.6329 3.92335 15.6329C4.14835 15.6329 4.37335 15.5345 4.52804 15.3423C8.35304 10.5751 15.5858 10.5657 19.4296 15.2813C19.7015 15.6142 20.189 15.661 20.5171 15.3938C20.8499 15.122 20.8968 14.6345 20.6296 14.3063C16.1437 8.80791 7.75772 8.83604 3.31866 14.3767ZM23.8358 12.0563C17.8077 4.37822 6.20147 4.36416 0.163974 12.0563C-0.234463 12.5673 0.135849 13.3079 0.773349 13.3079C1.00304 13.3079 1.22804 13.2048 1.38272 13.0126C6.78741 6.12197 17.203 6.1126 22.6171 13.0126C22.8796 13.3501 23.3671 13.4063 23.7046 13.1438C24.0421 12.8813 24.0983 12.3938 23.8358 12.0563Z" fill="#B42033" stroke="#B42033" stroke-width="0.2"/>
</g>
<defs>
<clipPath id="clip0">
<rect width="24" height="24" fill="white"/>
</clipPath>
</defs>
</svg>
