<svg width="30" height="30" viewBox="0 0 30 30" fill="none" xmlns="http://www.w3.org/2000/svg">
<circle cx="15" cy="15" r="15" fill="#122240"/>
<path d="M12.9044 14.4369C12.8984 14.4419 12.8927 14.4472 12.887 14.4529C12.8577 14.4822 12.8345 14.517 12.8187 14.5552C12.8028 14.5935 12.7947 14.6345 12.7947 14.6759C12.7947 14.7173 12.8028 14.7583 12.8187 14.7965C12.8345 14.8348 12.8577 14.8695 12.887 14.8988L12.889 14.9006L17.082 19.0938L15.0041 21.1717L10.8128 16.9806C10.7881 16.955 10.7592 16.9339 10.7274 16.918C10.665 16.8868 10.5939 16.8772 10.5254 16.8908C10.4569 16.9043 10.3949 16.9402 10.349 16.9929L6.16986 21.1717L4.0918 19.0938L8.28517 14.8995C8.31451 14.8703 8.33779 14.8355 8.35368 14.7972C8.36956 14.7589 8.37774 14.7179 8.37774 14.6765C8.37774 14.635 8.36956 14.594 8.35368 14.5557C8.33779 14.5174 8.31451 14.4826 8.28517 14.4534L4.0918 10.2596L6.16986 8.18164L10.3628 12.3747L10.3647 12.3765C10.394 12.4058 10.4288 12.429 10.467 12.4449C10.5053 12.4607 10.5463 12.4689 10.5877 12.4689C10.6291 12.4689 10.6701 12.4607 10.7083 12.4449C10.7466 12.429 10.7813 12.4058 10.8106 12.3765C10.8161 12.3708 10.8215 12.3651 10.8266 12.3592L15.0041 8.18164L17.082 10.2596L12.9044 14.4369Z" fill="white"/>
<path d="M21.7325 14.4369C21.7265 14.4419 21.7208 14.4472 21.7151 14.4529C21.6859 14.4822 21.6626 14.517 21.6468 14.5552C21.6309 14.5935 21.6228 14.6345 21.6228 14.6759C21.6228 14.7173 21.6309 14.7583 21.6468 14.7965C21.6626 14.8348 21.6859 14.8695 21.7151 14.8988L21.7171 14.9006L25.9102 19.0937L23.8322 21.1717L19.641 16.9806C19.6163 16.955 19.5874 16.9339 19.5555 16.918C19.4931 16.8868 19.422 16.8772 19.3535 16.8908C19.2851 16.9043 19.223 16.9402 19.1771 16.9929L14.998 21.1717L12.9199 19.0938L17.1133 14.8995C17.1426 14.8703 17.1659 14.8355 17.1818 14.7972C17.1977 14.7589 17.2059 14.7179 17.2059 14.6765C17.2059 14.635 17.1977 14.594 17.1818 14.5557C17.1659 14.5174 17.1426 14.4826 17.1133 14.4534L12.9199 10.2596L14.998 8.18164L19.1909 12.3747L19.1929 12.3765C19.2221 12.4058 19.2569 12.429 19.2951 12.4449C19.3334 12.4607 19.3744 12.4689 19.4158 12.4689C19.4572 12.4689 19.4982 12.4607 19.5364 12.4449C19.5747 12.429 19.6094 12.4058 19.6387 12.3765C19.6443 12.3708 19.6496 12.3651 19.6547 12.3592L23.8322 8.18164L25.9102 10.2596L21.7325 14.4369Z" fill="white"/>
</svg>
