<svg width="30" height="30" viewBox="0 0 30 30" fill="none" xmlns="http://www.w3.org/2000/svg">
<path d="M15 0C6.71575 0 0 6.71575 0 15C0 23.2843 6.71575 30 15 30C23.2804 29.9906 29.9906 23.2804 30 15C30 6.71575 23.2843 0 15 0ZM15 29C7.268 29 1 22.732 1 15C1 7.268 7.268 1 15 1C22.7283 1.00881 28.9912 7.27169 29 15C29 22.732 22.732 29 15 29Z" fill="#828282"/>
<path d="M12.5 8.5C12.2239 8.5 12 8.72387 12 9V21C12 21.2761 12.2239 21.5 12.5 21.5C12.7761 21.5 13 21.2761 13 21V9C13 8.72387 12.7761 8.5 12.5 8.5Z" fill="#828282"/>
<path d="M17.5 8.5C17.2239 8.5 17 8.72387 17 9V21C17 21.2761 17.2239 21.5 17.5 21.5C17.7761 21.5 18 21.2761 18 21V9C18 8.72387 17.7761 8.5 17.5 8.5Z" fill="#828282"/>
</svg>
