<svg width="30" height="30" viewBox="0 0 30 30" fill="none" xmlns="http://www.w3.org/2000/svg">
<path d="M22.7815 14.5867L11.7815 7.08674C11.628 6.98274 11.43 6.97124 11.266 7.05774C11.1025 7.14424 11 7.31424 11 7.49974V22.4997C11 22.6852 11.1025 22.8552 11.2665 22.9417C11.3395 22.9807 11.42 22.9997 11.5 22.9997C11.5985 22.9997 11.697 22.9702 11.7815 22.9127L22.7815 15.4127C22.918 15.3197 23 15.1652 23 14.9997C23 14.8342 22.918 14.6797 22.7815 14.5867ZM12 21.5532V8.44624L21.6125 14.9997L12 21.5532Z" fill="#828282"/>
<path d="M15 0C6.729 0 0 6.729 0 15C0 23.271 6.729 30 15 30C23.271 30 30 23.271 30 15C30 6.729 23.271 0 15 0ZM15 29C7.2805 29 1 22.7195 1 15C1 7.2805 7.2805 1 15 1C22.7195 1 29 7.2805 29 15C29 22.7195 22.7195 29 15 29Z" fill="#828282"/>
</svg>
