<svg width="50" height="50" viewBox="0 0 50 50" fill="none" xmlns="http://www.w3.org/2000/svg">
<path d="M50 39.0137C50 45.0586 45.0586 50 39.0137 50H10.9863C4.94141 50 0 45.0586 0 39.0137V10.9863C0 4.94141 4.94141 0 10.9863 0H39.0137C45.0586 0 50 4.94141 50 10.9863V39.0137Z" fill="#0057B6"/>
<path d="M16.0162 29.454C15.8054 28.8054 15.6919 28.1081 15.6919 27.3946V13.4486H17.6865V27.3946C17.6865 27.4432 17.6865 27.4756 17.6865 27.5243C17.0378 28.0432 16.454 28.7081 16.0162 29.454ZM22.6 35.0324C22.1946 35.0324 21.7892 35 21.4 34.9351V41.8108C21.4 42.8324 20.573 43.6594 19.5513 43.6594C18.5297 43.6594 17.7027 42.8324 17.7027 41.8108V33.2648C17.7027 33.2648 17.7027 33.2486 17.7027 33.2324C17.7027 32.9243 17.7351 32.6162 17.8 32.3081C17.9459 31.5783 18.2703 30.8973 18.7243 30.3459C18.8865 30.1513 19.0649 29.9567 19.2432 29.7946C19.6486 29.4216 20.1189 29.1297 20.6378 28.9189V26.8108C19.8432 27.0216 19.1135 27.3783 18.4811 27.8486C18.254 28.027 18.027 28.2054 17.8162 28.4C17.2324 28.9513 16.7459 29.6162 16.373 30.3459C16.227 30.6378 16.1135 30.9459 16.0162 31.254C15.8216 31.8865 15.7081 32.5675 15.7081 33.2648V41.8108C15.7081 43.9351 17.427 45.654 19.5513 45.654C21.6757 45.654 23.3946 43.9351 23.3946 41.8108V35.0162H22.6V35.0324ZM27.6432 16.3838H25.227C23.1027 16.3838 21.3838 18.1027 21.3838 20.227V31.3513C21.7567 31.4648 22.1784 31.5297 22.5838 31.5297H23.3784V20.227C23.3784 19.2054 24.2054 18.3784 25.227 18.3784H27.6432C29.8973 18.3784 31.7459 20.2108 31.7459 22.4811C31.7459 24.7513 29.9135 26.5838 27.6432 26.5838H24.1405V28.5783H27.6594C31.0324 28.5783 33.7567 25.8378 33.7567 22.4811C33.7567 19.1243 31.0162 16.3838 27.6432 16.3838ZM28.2108 10.6919H13.8432C12.8216 10.6919 11.9946 9.86486 11.9946 8.84324C11.9946 7.82162 12.8216 6.99459 13.8432 6.99459C14.8649 6.99459 15.6919 7.82162 15.6919 8.84324V9.94594H17.6865V8.84324C17.6865 6.71892 15.9676 5 13.8432 5C11.7189 5 10 6.71892 10 8.84324C10 10.9676 11.7189 12.6865 13.8432 12.6865H28.2108C33.6108 12.6865 38.0054 17.0811 38.0054 22.4811C38.0054 27.8811 33.6108 32.2756 28.2108 32.2756H22.6C22.1784 32.2756 21.773 32.2108 21.4 32.1135C21.1405 32.0486 20.8811 31.9675 20.654 31.854C20.1351 31.627 19.6486 31.3027 19.2432 30.9135C18.8216 31.481 18.5459 32.1459 18.4811 32.8919C19.1297 33.3783 19.8594 33.7513 20.654 33.9783C20.8973 34.0594 21.1405 34.1081 21.4 34.1567C21.7892 34.2216 22.1946 34.2702 22.6 34.2702H28.2108C34.7135 34.2702 40 28.9838 40 22.4811C40.0162 15.9784 34.7135 10.6919 28.2108 10.6919Z" fill="white"/>
</svg>
