<svg width="24" height="24" viewBox="0 0 24 24" fill="none" xmlns="http://www.w3.org/2000/svg">
<path d="M23.5 11.5C23.224 11.5 23 11.724 23 12C23 18.065 18.065 23 12 23C5.93494 23 0.999984 18.065 0.999984 12C0.999984 5.93498 5.93498 0.999984 12 0.999984C17.521 0.999984 20.756 5.17898 22.499 8.68397C22.622 8.93095 22.92 9.03098 23.169 8.90995C23.416 8.78695 23.517 8.48597 23.394 8.23894C20.715 2.85 16.775 0 12 0C5.38298 0 0 5.38298 0 12C0 18.617 5.38298 24 12 24C18.617 24 24 18.617 24 12C24 11.724 23.776 11.5 23.5 11.5Z" fill="white"/>
<path d="M23.5 4.04199C23.224 4.04199 23 4.26601 23 4.54201V8.00003H19.5C19.224 8.00003 19 8.22405 19 8.50005C19 8.77605 19.224 9.00002 19.5 9.00002H23.5C23.776 9.00002 24 8.776 24 8.5V4.54201C24 4.26601 23.776 4.04199 23.5 4.04199Z" fill="white"/>
</svg>
