<svg width="20" height="20" viewBox="0 0 20 20" fill="none" xmlns="http://www.w3.org/2000/svg">
<path d="M19.5833 9.58332C19.3533 9.58332 19.1666 9.77 19.1666 10C19.1666 15.0542 15.0541 19.1667 9.99996 19.1667C4.94578 19.1667 0.83332 15.0542 0.83332 10C0.83332 4.94582 4.94582 0.83332 10 0.83332C14.6008 0.83332 17.2967 4.31582 18.7492 7.23664C18.8517 7.44246 19.1 7.52582 19.3075 7.42496C19.5133 7.32246 19.5975 7.07164 19.495 6.86578C17.2625 2.375 13.9792 0 10 0C4.48582 0 0 4.48582 0 10C0 15.5142 4.48582 20 10 20C15.5142 20 20 15.5142 20 10C20 9.77 19.8133 9.58332 19.5833 9.58332Z" fill="#828282"/>
<path d="M19.584 3.36816C19.354 3.36816 19.1673 3.55484 19.1673 3.78484V6.66653H16.2507C16.0207 6.66653 15.834 6.85321 15.834 7.08321C15.834 7.31321 16.0207 7.49985 16.2507 7.49985H19.584C19.814 7.49985 20.0007 7.31317 20.0007 7.08317V3.78484C20.0007 3.55484 19.814 3.36816 19.584 3.36816Z" fill="#828282"/>
</svg>
