<svg width="24" height="24" viewBox="0 0 24 24" fill="none" xmlns="http://www.w3.org/2000/svg">
<path d="M20.7695 20.7695H15.4375V22H22V15.4375H20.7695V20.7695Z" fill="white"/>
<path d="M2.23047 2.23047H7.5625V1H1V7.5625H2.23047V2.23047Z" fill="white"/>
<path d="M15.4375 1V2.23047H20.7695V7.5625H22V1H15.4375Z" fill="white"/>
<path d="M2.23047 15.4375H1V22H7.5625V20.7695H2.23047V15.4375Z" fill="white"/>
<path d="M3.50195 9.6543H9.6543V3.50195H3.50195V9.6543ZM4.73242 4.73242H8.42383V8.42383H4.73242V4.73242Z" fill="white"/>
<path d="M3.50195 19.4775H9.6543V13.3662H3.50195V19.4775ZM4.73242 14.5967H8.42383V18.2471H4.73242V14.5967Z" fill="white"/>
<path d="M19.498 3.50195H13.3457V9.6543H19.498V3.50195ZM18.2676 8.42383H14.5762V4.73242H18.2676V8.42383Z" fill="white"/>
<path d="M19.498 13.3457H13.3457V19.498H19.498V13.3457ZM18.2676 18.2676H14.5762V14.5762H18.2676V18.2676Z" fill="white"/>
<path d="M5.96289 5.96289H7.19336V7.19336H5.96289V5.96289Z" fill="white"/>
<path d="M5.96289 15.8066H7.19336V17.0371H5.96289V15.8066Z" fill="white"/>
<path d="M15.8066 15.8066H17.0371V17.0371H15.8066V15.8066Z" fill="white"/>
<path d="M15.8066 5.96289H17.0371V7.19336H15.8066V5.96289Z" fill="white"/>
<path d="M19.2827 12.1152V10.8848H12.1152V3.50195H10.8848V10.8848H3.71729V12.1152H10.8848V19.498H12.1152V12.1152H19.2827Z" fill="white"/>
</svg>
