<svg width="20" height="20" viewBox="0 0 20 20" fill="none" xmlns="http://www.w3.org/2000/svg">
<g clip-path="url(#clip0)">
<path d="M19.8781 19.2882L13.7932 13.2032C15.0565 11.7999 15.8332 9.94994 15.8332 7.9166C15.8332 3.55165 12.2815 0 7.91656 0C3.55161 0 0 3.55165 0 7.9166C0 12.2816 3.55165 15.8332 7.9166 15.8332C9.9499 15.8332 11.7999 15.0565 13.2032 13.7924L19.2882 19.8773C19.3699 19.959 19.4765 19.9998 19.5832 19.9998C19.6898 19.9998 19.7965 19.959 19.8782 19.8782C20.0406 19.7148 20.0406 19.4515 19.8781 19.2882ZM7.9166 14.9999C4.01082 14.9999 0.833351 11.8224 0.833351 7.91664C0.833351 4.01086 4.01078 0.833351 7.9166 0.833351C11.8224 0.833351 14.9999 4.01082 14.9999 7.9166C14.9999 11.8224 11.8224 14.9999 7.9166 14.9999Z" fill="#B42033"/>
</g>
<defs>
<clipPath id="clip0">
<rect width="20" height="20" fill="white"/>
</clipPath>
</defs>
</svg>
