<svg width="19" height="21" viewBox="0 0 19 21" fill="none" xmlns="http://www.w3.org/2000/svg">
<path d="M18.511 20.3481L17.3101 5.4868C17.2863 5.19362 17.0415 4.96774 16.7473 4.96774H13.5234V4.25306C13.5234 1.90791 11.6406 0 9.29536 0H9.22084C6.87569 0 4.94271 1.90791 4.94271 4.25306V4.96774H1.76885C1.4747 4.96774 1.22985 5.19362 1.20614 5.4868L0.00184175 20.39C-0.0108787 20.5472 0.0427127 20.7024 0.149594 20.8182C0.256476 20.9341 0.407014 21 0.564551 21H17.9516C17.9521 21 17.9527 21 17.9532 21C18.265 21 18.5177 20.7473 18.5177 20.4355C18.5177 20.4058 18.5154 20.3765 18.511 20.3481ZM6.07174 4.25306C6.07174 2.53046 7.49824 1.12903 9.22084 1.12903H9.29536C11.018 1.12903 12.3943 2.53046 12.3943 4.25306V4.96774H6.07174V4.25306Z" fill="#F2994A"/>
</svg>
