<svg width="30" height="30" viewBox="0 0 30 30" fill="none" xmlns="http://www.w3.org/2000/svg">
<path d="M28.9012 0.49745L0.776204 10.8099C0.689093 10.8419 0.613415 10.8989 0.558752 10.9739C0.504089 11.0489 0.472901 11.1384 0.469136 11.2311C0.465372 11.3238 0.4892 11.4155 0.537605 11.4946C0.586009 11.5738 0.656812 11.6368 0.741048 11.6757L12.7718 17.2283L18.3244 29.259C18.3619 29.3403 18.422 29.4092 18.4974 29.4574C18.5728 29.5057 18.6605 29.5313 18.7501 29.5313C18.7564 29.5313 18.7628 29.5313 18.7692 29.5309C18.8619 29.5271 18.9514 29.496 19.0263 29.4413C19.1013 29.3867 19.1583 29.311 19.1903 29.2239L29.5028 1.09891C29.5336 1.01495 29.5397 0.923927 29.5205 0.83659C29.5012 0.749252 29.4574 0.669245 29.3941 0.606012C29.3309 0.542778 29.2509 0.498957 29.1635 0.479721C29.0762 0.460485 28.9852 0.466637 28.9012 0.49745ZM18.7004 27.8364L13.6876 16.9754L20.4935 10.1696C20.5814 10.0817 20.6308 9.96245 20.6308 9.83813C20.6308 9.7138 20.5814 9.59457 20.4935 9.50665C20.4056 9.41873 20.2864 9.36933 20.1621 9.36932C20.0378 9.36931 19.9185 9.41869 19.8306 9.50659L13.0247 16.3125L2.16376 11.2997L28.2743 1.72587L18.7004 27.8364Z" fill="#828282"/>
</svg>
