<svg width="22" height="23" viewBox="0 0 22 23" fill="none" xmlns="http://www.w3.org/2000/svg">
<path d="M21.0525 13.4899L19.0303 11.9087C19.056 11.6649 19.078 11.3798 19.078 11.0782C19.078 10.7766 19.0569 10.4915 19.0303 10.2477L21.0543 8.66555C21.4302 8.36855 21.5328 7.84145 21.2936 7.40239L19.1907 3.7641C18.9661 3.35345 18.4739 3.1426 17.9743 3.32685L15.5882 4.28475C15.1308 3.95475 14.6514 3.6761 14.1555 3.45335L13.7925 0.922449C13.7329 0.442102 13.3149 0.0791016 12.8208 0.0791016H8.60418C8.11008 0.0791016 7.69303 0.442102 7.63433 0.915102L7.27043 3.4552C6.79008 3.67155 6.31803 3.94655 5.84043 4.2866L3.44793 3.32595C2.99964 3.1527 2.46339 3.347 2.24064 3.75585L0.135082 7.3987C-0.11332 7.81855 -0.0106678 8.36395 0.37343 8.6683L2.39558 10.2495C2.36348 10.5584 2.34793 10.827 2.34793 11.0791C2.34793 11.3312 2.36353 11.5998 2.39558 11.9096L0.371582 13.4918C-0.00426542 13.7897 -0.106015 14.3168 0.133235 14.7549L2.23608 18.3932C2.46068 18.8029 2.94833 19.0156 3.45248 18.8304L5.83858 17.8725C6.29508 18.2016 6.77448 18.4803 7.27043 18.7039L7.63343 21.2339C7.69298 21.7161 8.11008 22.0791 8.60508 22.0791H12.8217C13.3158 22.0791 13.7338 21.7161 13.7925 21.2431L14.1564 18.7039C14.6367 18.4867 15.1079 18.2126 15.5864 17.8716L17.9789 18.8323C18.0944 18.8772 18.2145 18.9001 18.3382 18.9001C18.6939 18.9001 19.0211 18.7058 19.1861 18.4033L21.2981 14.7458C21.5328 14.3168 21.4301 13.7897 21.0525 13.4899ZM10.7125 14.7458C8.69033 14.7458 7.04583 13.1013 7.04583 11.0791C7.04583 9.05695 8.69033 7.41245 10.7125 7.41245C12.7346 7.41245 14.3791 9.05695 14.3791 11.0791C14.3791 13.1013 12.7346 14.7458 10.7125 14.7458Z" fill="#F2994A"/>
</svg>
