<svg width="12" height="12" viewBox="0 0 12 12" fill="none" xmlns="http://www.w3.org/2000/svg">
<path d="M0.0528327 6.49912L2.31738 8.76367L4.58193 6.49912L2.31738 4.23457L0.0528327 6.49912Z" fill="#828282"/>
<path d="M3.28623 3.26279L5.55078 5.52734L7.81533 3.26279L5.55078 0.998244L3.28623 3.26279Z" fill="#828282"/>
<path d="M3.28574 9.73643L5.55029 12.001L7.81484 9.73643L5.55029 7.47188L3.28574 9.73643Z" fill="#828282"/>
<path d="M6.52598 6.5001L8.79053 8.76465L11.0551 6.5001L8.79053 4.23555L6.52598 6.5001Z" fill="#828282"/>
<path d="M1.22097 10.5081L1.54492 10.832L9.88287 2.49408L9.55891 2.17013L1.22097 10.5081Z" fill="#828282"/>
<path d="M1.54564 2.17018L1.22168 2.49414L9.55963 10.8321L9.88359 10.5081L1.54564 2.17018Z" fill="#828282"/>
</svg>
