<svg width="20" height="16" viewBox="0 0 20 16" fill="none" xmlns="http://www.w3.org/2000/svg">
<path d="M5.39444 15.3709C5.99405 15.9706 6.96739 15.9706 7.567 15.3709L15.0046 7.9333C15.2182 7.71974 15.3825 7.46511 15.4893 7.19405C16.2367 7.4035 16.9636 7.51439 17.6043 7.51028C19.1896 7.50207 19.7153 6.808 19.8878 6.3932C20.0603 5.9825 20.1835 5.12005 19.0705 3.98654C19.0582 3.97422 19.0458 3.96189 19.0335 3.94957C18.3436 3.25961 17.3415 2.62304 16.2039 2.15074C15.9944 2.06449 15.785 1.98646 15.5796 1.91254V1.90022C15.5673 0.988477 14.8321 0.253337 13.9204 0.241016L9.4644 0.179412C8.873 0.171198 8.30625 0.401186 7.89145 0.820093L0.449708 8.25774C-0.149903 8.85736 -0.149903 9.8307 0.449708 10.4303L5.39444 15.3709ZM11.1277 2.8407C11.6246 2.34376 12.4296 2.34376 12.9265 2.8407C13.2222 3.1364 13.3413 3.54299 13.2838 3.92493C13.7726 4.26991 14.3557 4.59025 14.98 4.84899C15.2018 4.93934 15.4153 5.02148 15.6207 5.0913L15.596 3.30068C15.633 3.31711 15.6659 3.32943 15.7028 3.34586C16.6762 3.75244 17.5509 4.30277 18.1136 4.86542C18.1218 4.87363 18.13 4.88185 18.1382 4.89006C18.6721 5.43628 18.7296 5.78537 18.6844 5.89215C18.5448 6.22481 17.0458 6.52051 14.7705 5.57181C14.1052 5.29254 13.481 4.94756 12.9758 4.57383C12.9594 4.59436 12.9389 4.6149 12.9224 4.63543C12.4255 5.13237 11.6205 5.13237 11.1236 4.63543C10.6308 4.1426 10.6308 3.33764 11.1277 2.8407Z" fill="#F2994A"/>
</svg>
