<svg width="30" height="30" viewBox="0 0 30 30" fill="none" xmlns="http://www.w3.org/2000/svg">
<circle cx="15" cy="15" r="15" fill="black"/>
<path d="M21.3553 11.741C21.3655 11.8831 21.3655 12.0253 21.3655 12.1674C21.3655 16.5024 18.066 21.4973 12.0355 21.4973C10.1777 21.4973 8.45178 20.9593 7 20.0253C7.26397 20.0557 7.51775 20.0659 7.79188 20.0659C9.32484 20.0659 10.736 19.5481 11.8629 18.6649C10.4213 18.6344 9.21319 17.6903 8.79694 16.3908C9 16.4212 9.20303 16.4415 9.41625 16.4415C9.71066 16.4415 10.0051 16.4009 10.2792 16.3298C8.77666 16.0253 7.64972 14.7055 7.64972 13.1116V13.071C8.08625 13.3146 8.59391 13.4669 9.13194 13.4872C8.24869 12.8983 7.67003 11.8933 7.67003 10.7562C7.67003 10.1471 7.83244 9.58872 8.11672 9.10141C9.73094 11.0913 12.1573 12.3907 14.8781 12.5329C14.8274 12.2892 14.7969 12.0354 14.7969 11.7816C14.7969 9.9745 16.2588 8.50244 18.0761 8.50244C19.0203 8.50244 19.873 8.89838 20.472 9.53797C21.2131 9.39585 21.9238 9.12172 22.5533 8.7461C22.3096 9.50754 21.7918 10.1471 21.1116 10.5532C21.7715 10.4822 22.4111 10.2994 22.9999 10.0456C22.5533 10.6953 21.9949 11.274 21.3553 11.741Z" fill="white"/>
</svg>
