<svg width="24" height="24" viewBox="0 0 24 24" fill="none" xmlns="http://www.w3.org/2000/svg">
<path d="M23.8477 17.3654C24.0479 17.5726 24.0421 17.9028 23.8349 18.1029C23.6328 18.2981 23.3123 18.2981 23.1102 18.1029L12.0033 6.99707L0.897448 18.104C0.6973 18.3112 0.367128 18.3169 0.159891 18.1168C-0.0472965 17.9166 -0.0530186 17.5865 0.147079 17.3792C0.151285 17.3749 0.155539 17.3706 0.159891 17.3664L11.6351 5.89125C11.8387 5.68763 12.1689 5.68763 12.3726 5.89125L23.8477 17.3654Z" fill="white"/>
<path d="M0.00585747 17.7343C0.0053196 18.0224 0.238472 18.2563 0.526541 18.2568C0.665415 18.2571 0.798668 18.2019 0.896761 18.1036L12.0026 6.99669L23.1084 18.1036C23.3124 18.3075 23.6431 18.3075 23.847 18.1036C24.051 17.8996 24.051 17.569 23.847 17.365L12.3719 5.88984C12.1682 5.68622 11.838 5.68622 11.6343 5.88984L0.159206 17.365C0.0610638 17.4628 0.00585747 17.5957 0.00585747 17.7343Z" fill="white"/>
</svg>
