<svg width="18" height="18" viewBox="0 0 18 18" fill="none" xmlns="http://www.w3.org/2000/svg">
<g clip-path="url(#clip0)">
<path d="M15.4039 1.55774H2.59615C1.16462 1.55774 0 2.72236 0 4.15389V13.8462C0 15.2777 1.16462 16.4423 2.59615 16.4423H15.4039C16.8354 16.4423 18 15.2777 18 13.8462V4.15389C18 2.72236 16.8354 1.55774 15.4039 1.55774ZM16.9616 10.5577H13.1539C12.2949 10.5577 11.5961 9.85897 11.5961 9.00004C11.5961 8.1411 12.2949 7.44233 13.1539 7.44233H16.9616V10.5577ZM16.9616 6.40389H13.1539C11.7223 6.40389 10.5577 7.56851 10.5577 9.00004C10.5577 10.4316 11.7223 11.5962 13.1539 11.5962H16.9616V13.8462C16.9616 14.7051 16.2628 15.4039 15.4039 15.4039H2.59615C1.73725 15.4039 1.03845 14.7051 1.03845 13.8462V4.15389C1.03845 3.29499 1.73721 2.59618 2.59615 2.59618H15.4039C16.2628 2.59618 16.9616 3.29495 16.9616 4.15389V6.40389Z" fill="#fff" stroke="#fff" stroke-width="0.5"/>
<path d="M13.8463 8.48071H13.154C12.8672 8.48071 12.6348 8.7132 12.6348 8.99993C12.6348 9.2867 12.8673 9.51916 13.154 9.51916H13.8463C14.1331 9.51916 14.3655 9.28667 14.3655 8.99993C14.3655 8.71317 14.1331 8.48071 13.8463 8.48071Z" fill="#fff" stroke="#fff" stroke-width="0.5"/>
</g>
<defs>
<clipPath id="clip0">
<rect width="18" height="18" fill="white"/>
</clipPath>
</defs>
</svg>
