<svg width="18" height="18" viewBox="0 0 18 18" fill="none" xmlns="http://www.w3.org/2000/svg">
<path d="M0.829643 7.00329L7.0028 0.830132C8.10574 -0.272804 9.89404 -0.272804 10.997 0.830132L17.1701 7.00329C18.2731 8.10623 18.2731 9.89453 17.1701 10.9975L10.997 17.1706C9.89404 18.2736 8.10574 18.2736 7.0028 17.1706L0.829643 10.9975C-0.273293 9.89453 -0.273293 8.10623 0.829643 7.00329Z" fill="#FFDA6B"/>
<path d="M8.9999 5.0459C9.31184 5.0459 9.56475 5.29881 9.56475 5.61074V10.1295C9.56475 10.4414 9.31184 10.6943 8.9999 10.6943C8.68797 10.6943 8.43506 10.4414 8.43506 10.1295V5.61074C8.43506 5.29881 8.68797 5.0459 8.9999 5.0459Z" fill="white"/>
<path d="M8.43506 11.8242H9.56475V12.9539H8.43506V11.8242Z" fill="white"/>
</svg>
