<svg width="30" height="30" viewBox="0 0 30 30" fill="none" xmlns="http://www.w3.org/2000/svg">
<circle cx="15" cy="15" r="15" fill="black"/>
<path d="M22.2694 11.4468C22.0949 10.7899 21.5809 10.2725 20.9282 10.0969C19.7451 9.77783 15.0012 9.77783 15.0012 9.77783C15.0012 9.77783 10.2573 9.77783 9.07424 10.0969C8.42154 10.2725 7.90749 10.7899 7.73302 11.4468C7.41602 12.6376 7.41602 15.1219 7.41602 15.1219C7.41602 15.1219 7.41602 17.6063 7.73302 18.7971C7.90749 19.454 8.42154 19.9499 9.07424 20.1254C10.2573 20.4445 15.0012 20.4445 15.0012 20.4445C15.0012 20.4445 19.7451 20.4445 20.9282 20.1254C21.5809 19.9499 22.0949 19.454 22.2694 18.7971C22.5864 17.6063 22.5864 15.1219 22.5864 15.1219C22.5864 15.1219 22.5864 12.6376 22.2694 11.4468ZM13.4497 17.3776V12.8663L17.4147 15.122L13.4497 17.3776Z" fill="white"/>
</svg>
