<svg width="148" height="187" viewBox="0 0 148 187" fill="none" xmlns="http://www.w3.org/2000/svg">
<g clip-path="url(#clip0_4002_22661)">
<g filter="url(#filter0_iii_4002_22661)">
<path d="M76.6403 45.5037L51.7965 30.982L47.7656 28.625L40.6885 24.4885C18.3925 11.4599 0.190988 21.9612 0.117139 47.8959L0.000213065 89.7083C-0.0715838 115.666 18.011 147.359 40.307 160.39L76.2587 181.401C98.5527 194.431 116.756 183.938 116.828 157.995L116.879 139.592V137.948L116.941 116.175C117.019 90.242 98.9342 58.5343 76.6403 45.5037ZM96.967 128.983V129.859L96.9219 146.352C96.9201 147.432 96.8481 148.512 96.7065 149.583C96.6203 150.22 96.5014 150.829 96.3721 151.421C94.2367 160.765 86.0518 163.914 76.3285 158.232L40.3726 137.227C29.0574 130.617 19.8818 114.526 19.9187 101.356L20.0356 59.5353C20.0623 50.1386 24.7783 44.7374 31.5929 44.8225C32.2713 44.8348 32.9479 44.8966 33.6176 45.0073C36.0911 45.4509 38.4633 46.3497 40.6167 47.6592L51.1134 53.7831L53.1648 54.9792L76.5788 68.664C87.8898 75.2842 97.0716 91.3695 97.0285 104.539L96.967 128.983Z" fill="url(#paint0_linear_4002_22661)"/>
</g>
<g filter="url(#filter1_ii_4002_22661)">
<path d="M96.9184 146.36L96.9635 129.868L73.5495 116.183C73.2117 115.985 72.876 115.778 72.5423 115.56L72.489 115.527C72.1669 115.319 71.8469 115.112 71.5269 114.879C71.4161 114.802 71.3074 114.721 71.1966 114.642C70.9915 114.491 70.774 114.337 70.5648 114.179C70.4335 114.08 70.3043 113.972 70.1751 113.878C69.9843 113.731 69.7956 113.581 69.6089 113.428C69.4721 113.314 69.3354 113.199 69.1986 113.083C69.0181 112.932 68.8383 112.778 68.6591 112.622C68.5224 112.499 68.3856 112.375 68.2488 112.25C68.0724 112.092 67.8974 111.932 67.7237 111.768C67.5842 111.638 67.4447 111.509 67.3134 111.376C67.137 111.206 66.9627 111.033 66.7883 110.861C66.6611 110.734 66.5319 110.608 66.4047 110.479C66.2221 110.292 66.0416 110.103 65.8611 109.912C65.7462 109.789 65.6293 109.669 65.5165 109.546C65.3113 109.318 65.1062 109.085 64.8908 108.851L64.659 108.591C64.3746 108.265 64.0942 107.933 63.818 107.597C63.7544 107.52 63.6949 107.441 63.6313 107.364C63.4261 107.1 63.2046 106.834 62.9954 106.567C62.7424 106.24 62.4935 105.909 62.2487 105.574L62.1236 105.408C61.7256 104.862 61.3399 104.301 60.9625 103.734L60.7574 103.423C60.2828 102.7 59.8267 101.965 59.3891 101.217L59.2209 100.933C58.9159 100.404 58.6199 99.8695 58.3327 99.3296C58.2281 99.1323 58.1275 98.9351 58.027 98.7378C57.9265 98.5405 57.8219 98.3225 57.707 98.1148C57.5614 97.8199 57.4198 97.525 57.2783 97.2281C57.2332 97.1326 57.186 97.037 57.1408 96.9415C56.9631 96.558 56.7901 96.1725 56.6219 95.7849C56.5788 95.6831 56.5357 95.5772 56.4947 95.4817C56.3716 95.1937 56.2513 94.9044 56.1336 94.6137L55.9757 94.217C55.8677 93.9401 55.7617 93.6633 55.6577 93.3864C55.6126 93.2659 55.5675 93.1434 55.5223 93.023C55.3952 92.67 55.2721 92.3162 55.1531 91.9618L55.1059 91.8248C54.9692 91.4261 54.8434 91.0274 54.7285 90.6287C54.6895 90.502 54.6546 90.3753 54.6198 90.2486C54.5398 89.9704 54.4597 89.6921 54.3859 89.418C54.3449 89.2664 54.3059 89.1148 54.2669 88.9632C54.2013 88.7057 54.1377 88.4489 54.0761 88.1928C54.0406 88.0405 54.0057 87.8882 53.9715 87.736C53.912 87.4722 53.8567 87.2085 53.8033 86.9468C53.7746 86.8077 53.7459 86.6665 53.7192 86.5315C53.6549 86.1937 53.5955 85.8573 53.5408 85.5223C53.5408 85.4641 53.5202 85.406 53.512 85.3479C53.4505 84.9547 53.3958 84.5622 53.3479 84.1704C53.3356 84.0645 53.3254 83.9628 53.3131 83.8527C53.2816 83.5689 53.2529 83.2858 53.2269 83.0034C53.2146 82.8705 53.2064 82.7376 53.1961 82.6067C53.1756 82.3409 53.1613 82.0772 53.1489 81.8135C53.1489 81.6889 53.1366 81.5622 53.1325 81.4376C53.1202 81.0638 53.11 80.6921 53.112 80.3246L53.1777 54.99L51.1263 53.7939L40.6173 47.6596C38.4614 46.3493 36.0863 45.4504 33.6099 45.0078V45.0223C33.5935 45.1511 33.5833 45.2861 33.5689 45.4148C33.5546 45.5436 33.5381 45.6972 33.5258 45.8426C33.5258 45.9028 33.5135 45.9589 33.5074 46.0191C33.491 46.2102 33.4828 46.4054 33.4725 46.6006C33.4725 46.7065 33.4581 46.8082 33.454 46.9183V46.9951C33.4404 47.3232 33.4328 47.6562 33.4315 47.994V48.0542L33.3125 91.9514C33.3125 92.2616 33.3166 92.5724 33.3248 92.8838C33.3248 92.9441 33.3248 93.0022 33.3248 93.0624C33.3248 93.1891 33.3371 93.3179 33.3433 93.4445C33.3494 93.5712 33.3535 93.7373 33.3638 93.8848C33.3638 93.999 33.3822 94.1153 33.3905 94.2316C33.3987 94.3478 33.411 94.4994 33.4233 94.6344C33.4233 94.7196 33.4356 94.8068 33.4438 94.8919C33.4622 95.085 33.4869 95.2802 33.5074 95.4754C33.5197 95.5834 33.5299 95.6831 33.5422 95.8015L33.5546 95.9053C33.5983 96.2514 33.6469 96.5975 33.7002 96.9436V96.9727C33.7002 97.0308 33.7207 97.091 33.731 97.1492C33.7761 97.4295 33.8233 97.7099 33.8746 97.9923C33.8848 98.0463 33.8971 98.1003 33.9074 98.1543C33.9341 98.2955 33.9648 98.4367 33.9935 98.5696C34.0223 98.7025 34.0571 98.8998 34.092 99.0638C34.1125 99.1614 34.1371 99.259 34.1597 99.3545C34.1939 99.5054 34.2288 99.657 34.2643 99.8093C34.291 99.9235 34.3156 100.038 34.3423 100.15C34.3689 100.262 34.4182 100.439 34.4551 100.582C34.492 100.725 34.533 100.885 34.572 101.035C34.5925 101.107 34.6089 101.18 34.6274 101.242C34.6828 101.45 34.7443 101.657 34.8059 101.865C34.8428 101.992 34.8777 102.118 34.9146 102.245L34.9433 102.349C35.0514 102.708 35.1649 103.066 35.2838 103.425V103.443L35.331 103.58C35.4315 103.882 35.5362 104.183 35.6428 104.484C35.6613 104.536 35.6818 104.588 35.7003 104.639C35.7433 104.76 35.7885 104.878 35.8336 104.999C35.8951 105.167 35.9567 105.333 36.0203 105.501C36.0633 105.613 36.1085 105.723 36.1536 105.836L36.3095 106.228C36.3485 106.322 36.3834 106.417 36.4223 106.51C36.5023 106.706 36.5864 106.901 36.6705 107.096C36.7136 107.198 36.7546 107.304 36.7998 107.399L36.8449 107.505C36.9926 107.842 37.1437 108.177 37.2982 108.512L37.3188 108.558C37.3639 108.654 37.4111 108.749 37.4562 108.845C37.5772 109.1 37.6962 109.358 37.8213 109.611L37.8829 109.731C37.9875 109.939 38.088 110.147 38.2029 110.354C38.289 110.522 38.3711 110.691 38.4593 110.857L38.5085 110.946C38.7944 111.486 39.0904 112.02 39.3968 112.549C39.4234 112.595 39.446 112.641 39.4727 112.686C39.4993 112.732 39.5363 112.784 39.565 112.834C40.0026 113.581 40.4587 114.316 40.9332 115.039C40.9599 115.079 40.9825 115.12 41.0091 115.162C41.0358 115.203 41.0994 115.288 41.1425 115.355C41.5199 115.92 41.9035 116.48 42.3035 117.026L42.4204 117.18C42.6666 117.515 42.9162 117.847 43.1692 118.177L43.2123 118.233C43.4174 118.486 43.6102 118.735 43.8113 118.983L43.9897 119.205L44.0041 119.221C44.2653 119.54 44.5299 119.853 44.7979 120.162L44.8308 120.199L45.0626 120.459C45.239 120.667 45.4174 120.862 45.5959 121.059L45.6882 121.157C45.8031 121.279 45.918 121.4 46.0329 121.522C46.1477 121.645 46.2995 121.809 46.4431 121.95L46.5826 122.091C46.7098 122.22 46.837 122.347 46.9662 122.473C47.0954 122.6 47.1919 122.704 47.3067 122.814L47.4914 122.988C47.6288 123.121 47.7683 123.252 47.9016 123.381C48.0021 123.474 48.1068 123.57 48.2011 123.661L48.4268 123.869L48.837 124.241C48.9252 124.317 49.0114 124.398 49.1017 124.473C49.1919 124.548 49.2863 124.625 49.3765 124.699L49.7868 125.044C49.8606 125.104 49.9324 125.167 50.0063 125.227C50.1212 125.318 50.2381 125.405 50.353 125.495C50.4678 125.584 50.6114 125.702 50.7407 125.794L50.9027 125.918C51.0586 126.035 51.2186 126.145 51.3745 126.259C51.4833 126.338 51.592 126.419 51.7028 126.496L51.791 126.56C52.0781 126.759 52.3674 126.953 52.6587 127.142L52.7038 127.171C52.9725 127.343 53.2433 127.511 53.5243 127.673L53.7295 127.792L89.7182 148.834C89.9356 148.961 90.1524 149.084 90.3684 149.201L90.6187 149.332L90.949 149.504C91.0351 149.548 91.1213 149.596 91.2054 149.639C91.3449 149.71 91.4844 149.772 91.6156 149.847L91.9069 149.986L92.0239 150.042C92.2974 150.167 92.5709 150.284 92.8444 150.393L92.8772 150.406C93.1412 150.512 93.4037 150.612 93.6649 150.705L93.7757 150.742L94.0773 150.842C94.2126 150.887 94.3501 150.935 94.4875 150.977L94.6927 151.037L95.0557 151.139C95.146 151.164 95.2383 151.193 95.3265 151.216C95.4147 151.238 95.5317 151.259 95.624 151.282L95.985 151.363L96.1676 151.405L96.3501 151.436C96.4855 150.846 96.5984 150.235 96.6845 149.598C96.8326 148.525 96.9107 147.444 96.9184 146.36Z" fill="url(#paint1_linear_4002_22661)"/>
<g filter="url(#filter2_i_4002_22661)">
<path d="M147.976 95.4468C147.976 95.3284 147.964 95.208 147.96 95.0896C147.96 94.8446 147.937 94.5975 147.925 94.3524C147.911 94.0596 147.902 93.771 147.884 93.4761C147.87 93.2477 147.847 93.0151 147.829 92.7846C147.81 92.5541 147.79 92.2655 147.767 92.0038C147.753 91.8335 147.742 91.6632 147.726 91.493C147.689 91.1067 147.642 90.7184 147.599 90.3321C147.574 90.1245 147.556 89.9168 147.529 89.7092C147.529 89.6406 147.515 89.5721 147.507 89.5015C147.422 88.8204 147.325 88.1365 147.217 87.4498L147.207 87.3896C147.189 87.2712 147.166 87.1529 147.146 87.0345C147.057 86.4863 146.967 85.938 146.864 85.3877C146.844 85.2777 146.819 85.1697 146.799 85.0596C146.746 84.7835 146.688 84.5073 146.633 84.229C146.567 83.903 146.508 83.579 146.428 83.2551C146.387 83.062 146.337 82.8688 146.294 82.6757C146.227 82.3767 146.159 82.0777 146.089 81.7786C146.036 81.5564 145.991 81.3342 145.935 81.112C145.865 80.8275 145.785 80.541 145.714 80.2544C145.642 79.9678 145.562 79.6605 145.482 79.3635C145.445 79.2223 145.41 79.0811 145.371 78.9482C145.258 78.5329 145.135 78.13 145.016 77.7209C144.944 77.4759 144.877 77.2288 144.811 76.9837C144.791 76.9173 144.774 76.8509 144.754 76.7761C144.539 76.0687 144.315 75.3619 144.083 74.6559L144.069 74.6143C144.036 74.5167 144.001 74.4212 143.968 74.3236C143.763 73.738 143.572 73.1503 143.353 72.5647C143.316 72.4609 143.275 72.3571 143.238 72.2533C143.152 72.0144 143.061 71.7756 142.971 71.5368C142.85 71.2108 142.733 70.8848 142.608 70.5587C142.524 70.3386 142.434 70.1206 142.345 69.9005C142.243 69.6402 142.14 69.3806 142.036 69.1217C141.962 68.9369 141.892 68.7521 141.816 68.5694C141.656 68.181 141.49 67.7969 141.326 67.4106C141.242 67.203 141.16 67.014 141.074 66.8146L140.987 66.607C140.697 65.9438 140.4 65.2828 140.095 64.6238L140.054 64.5366C139.962 64.3289 139.863 64.1421 139.771 63.9427C139.537 63.4464 139.303 62.9501 139.061 62.4579C139.022 62.379 138.979 62.3001 138.94 62.2191C138.735 61.8038 138.53 61.3885 138.31 60.9856C138.142 60.6554 137.978 60.3253 137.806 59.9972C137.773 59.9369 137.738 59.8788 137.705 59.8165C137.142 58.7547 136.559 57.7025 135.955 56.6601C135.904 56.5708 135.859 56.4815 135.808 56.3922C135.656 56.1305 135.496 55.8751 135.342 55.6155C135.084 55.1815 134.827 54.7475 134.563 54.3176C134.333 53.9439 134.099 53.5742 133.865 53.2046C133.596 52.7893 133.33 52.3594 133.055 51.9399C132.963 51.7967 132.874 51.6513 132.78 51.5101C132.686 51.3689 132.602 51.2588 132.515 51.1301C131.771 50.0149 131.014 48.9123 130.23 47.8345L130.22 47.8179C130.144 47.712 130.062 47.6102 129.986 47.5064C129.502 46.8474 129.011 46.1954 128.513 45.5502L128.427 45.436C128.037 44.9356 127.639 44.4455 127.243 43.9533C127.127 43.8101 127.014 43.6626 126.897 43.5193L126.87 43.4861C126.356 42.8604 125.835 42.2429 125.307 41.6338L125.239 41.559C125.09 41.3846 124.934 41.2185 124.782 41.0461C124.433 40.6515 124.084 40.2528 123.729 39.8666L123.549 39.6755C123.323 39.4305 123.094 39.1917 122.864 38.9487C122.601 38.6705 122.341 38.386 122.074 38.1181C121.984 38.0246 121.889 37.9353 121.797 37.8419C121.547 37.5865 121.295 37.3373 121.042 37.086C120.79 36.8347 120.597 36.6333 120.371 36.4132C120.25 36.2969 120.127 36.1848 120.006 36.0685C119.733 35.8068 119.459 35.5493 119.186 35.2939C118.981 35.1112 118.796 34.9222 118.599 34.7415C118.453 34.6086 118.304 34.482 118.156 34.3491C117.882 34.1012 117.606 33.8562 117.325 33.6139C117.151 33.4623 116.981 33.3045 116.804 33.155C116.628 33.0055 116.441 32.8581 116.261 32.7065C115.987 32.4794 115.714 32.2545 115.44 32.0316C115.294 31.9132 115.151 31.7886 115.003 31.6702C114.775 31.4896 114.546 31.3193 114.318 31.1407C114.09 30.9621 113.809 30.7441 113.555 30.551C113.448 30.47 113.35 30.3848 113.235 30.3038C112.925 30.0733 112.619 29.8553 112.299 29.631C112.094 29.4773 111.873 29.3195 111.657 29.17L111.481 29.0433C110.915 28.6502 110.345 28.2688 109.772 27.8991H109.76L109.674 27.8451C109.142 27.5046 108.607 27.1702 108.07 26.8505L107.674 26.6179L71.7424 5.60682C71.3144 5.35625 70.8877 5.11467 70.4624 4.88209C70.2983 4.79279 70.1362 4.71181 69.9721 4.62459L69.3177 4.28195C69.1495 4.19473 68.9792 4.10129 68.8131 4.01615C68.5362 3.87701 68.2633 3.75449 67.9926 3.62367C67.7997 3.5323 67.609 3.43677 67.4182 3.34956L67.1864 3.2395C66.6394 2.99446 66.1019 2.76396 65.574 2.54799L65.492 2.51684C64.9771 2.30918 64.4663 2.11398 63.9555 1.93124L63.7217 1.84402C63.5165 1.77549 63.3278 1.7132 63.1309 1.64882C62.8622 1.55953 62.5934 1.464 62.3268 1.38302C62.1852 1.33941 62.0457 1.30618 61.9042 1.26465C61.6662 1.19405 61.4303 1.12967 61.1924 1.05699C61.0139 1.00923 60.8334 0.951083 60.657 0.907475C60.4806 0.863866 60.2693 0.83064 60.0723 0.784955C59.8364 0.730964 59.5985 0.674895 59.3646 0.62298C59.2456 0.598061 59.1226 0.564835 59.0036 0.541993C58.7759 0.496308 58.5543 0.469312 58.3266 0.429856C58.0538 0.382095 57.7789 0.332256 57.5061 0.292801C57.4179 0.282418 57.3235 0.261652 57.2333 0.249192C57.0035 0.20766 56.7779 0.20766 56.5502 0.178588C56.2589 0.145362 55.9676 0.112136 55.6804 0.0892938C55.6004 0.0892938 55.5163 0.0706044 55.4363 0.0643746C55.2312 0.0498384 55.0445 0.0539916 54.8455 0.0436086C54.4988 0.0269958 54.1563 0.0124596 53.8116 0C53.7193 0 53.625 0 53.5327 0C53.3829 0 53.2393 0.0186894 53.0896 0.020766C52.6588 0.020766 52.2321 0.0498384 51.8116 0.0809874C51.6865 0.0809874 51.5572 0.0809874 51.4341 0.0996768C51.2516 0.11629 51.0752 0.143285 50.8946 0.164051L50.5049 0.20766C50.031 0.272035 49.5613 0.344716 49.0997 0.440239L49.0484 0.456852C48.911 0.485925 48.7777 0.523303 48.6382 0.554452C48.2628 0.639593 47.8894 0.728887 47.5243 0.832717C47.3376 0.886709 47.1571 0.949007 46.9725 1.00923C46.7366 1.08399 46.4966 1.15044 46.2627 1.23558C46.2012 1.25634 46.1437 1.28749 46.0843 1.30826C45.7191 1.44324 45.3663 1.59483 45.0114 1.75057C44.8391 1.82533 44.6627 1.89386 44.4945 1.97277C43.9775 2.21781 43.4688 2.48154 42.9785 2.77019L23.1934 14.3991C23.6857 14.1105 24.1924 13.8468 24.7072 13.6017C24.8775 13.5207 25.0539 13.4543 25.2262 13.3775C25.5791 13.2217 25.9339 13.0701 26.297 12.9351C26.5883 12.8272 26.8858 12.7275 27.1853 12.6361C27.3699 12.578 27.5504 12.5136 27.7371 12.4596C28.1022 12.3558 28.4776 12.2665 28.851 12.1813C28.9863 12.1502 29.1197 12.1128 29.2612 12.0837C29.7392 11.9861 30.2254 11.9072 30.7177 11.8408C30.8469 11.8242 30.9782 11.8096 31.1074 11.7951C31.411 11.7598 31.7228 11.7349 32.0244 11.712C32.4449 11.6788 32.8716 11.6601 33.3024 11.6497C33.5424 11.6497 33.7803 11.6352 34.0224 11.6373C34.3629 11.6373 34.7096 11.656 35.048 11.6726C35.325 11.685 35.6019 11.6954 35.8829 11.7183C36.164 11.7411 36.4614 11.7764 36.7527 11.8076C37.044 11.8387 37.3886 11.8782 37.7127 11.9238C37.9835 11.9633 38.2563 12.0131 38.5333 12.0609C38.8779 12.1211 39.2225 12.1813 39.5713 12.2561C39.8051 12.3059 40.0431 12.3599 40.279 12.416C40.6509 12.5032 41.025 12.5974 41.401 12.6984C41.6369 12.7628 41.8749 12.8272 42.1108 12.9061C42.5211 13.0244 42.9313 13.1553 43.3416 13.2902C43.5467 13.3546 43.7334 13.4169 43.9303 13.4854C44.5129 13.6931 45.0976 13.9008 45.6883 14.1437L45.7704 14.1749C46.3858 14.4241 47.0012 14.6961 47.6166 14.9806C47.8074 15.0678 47.9982 15.1633 48.191 15.2547C48.6327 15.4651 49.0765 15.6846 49.5223 15.913C49.7397 16.0251 49.9579 16.1393 50.1767 16.2556C50.7634 16.5692 51.3521 16.889 51.9449 17.2358L87.909 38.2489C88.5777 38.6393 89.2424 39.047 89.9029 39.472L89.9973 39.5302C90.6332 39.9455 91.265 40.3608 91.8927 40.8073C92.1081 40.9589 92.3214 41.1167 92.5348 41.2704C92.945 41.5715 93.3738 41.8767 93.7902 42.1903C94.0446 42.3834 94.2969 42.5807 94.5512 42.778C94.9273 43.0701 95.302 43.3677 95.6754 43.6709C95.9489 43.8924 96.2224 44.1167 96.4959 44.3437C96.8528 44.6428 97.2077 44.9459 97.5606 45.2533C97.8341 45.4956 98.1076 45.7399 98.3811 45.9863C98.7271 46.2964 99.069 46.6114 99.4068 46.9312C99.6816 47.1866 99.9565 47.4441 100.227 47.7057C100.576 48.0401 100.923 48.3806 101.267 48.7233C101.518 48.9725 101.77 49.2217 102.018 49.475C102.377 49.8405 102.73 50.2143 103.085 50.5881C103.315 50.831 103.544 51.0698 103.772 51.317C104.182 51.7655 104.593 52.2244 105.003 52.6834C105.155 52.8557 105.311 53.0239 105.462 53.1984C106.022 53.8421 106.574 54.4962 107.12 55.1607C107.237 55.304 107.35 55.4515 107.466 55.5948C107.893 56.1222 108.32 56.6517 108.736 57.1917C109.234 57.8354 109.724 58.4875 110.207 59.1478C110.287 59.2579 110.371 59.3555 110.453 59.4759C111.237 60.5537 111.996 61.6564 112.738 62.7694C112.919 63.0394 113.102 63.3093 113.278 63.5814C113.551 63.9967 113.819 64.4224 114.088 64.846C114.322 65.2157 114.556 65.5853 114.786 65.9591C115.05 66.3889 115.307 66.8229 115.565 67.257C115.77 67.6037 115.975 67.9505 116.181 68.2952C116.782 69.3377 117.366 70.3905 117.93 71.4538C118.135 71.84 118.341 72.2283 118.531 72.6146C118.722 73.0008 118.958 73.4452 119.163 73.8605C119.446 74.4316 119.723 75.0068 119.994 75.582C120.088 75.7897 120.185 75.9766 120.277 76.1759C120.627 76.9304 120.969 77.6919 121.303 78.4602C121.389 78.6679 121.473 78.861 121.557 79.0624C121.799 79.63 122.036 80.1997 122.267 80.7715C122.372 81.0317 122.475 81.2913 122.577 81.5502C122.791 82.0956 122.996 82.6418 123.192 83.1886C123.28 83.4274 123.37 83.6662 123.459 83.9051C123.708 84.5973 123.948 85.2895 124.179 85.9817C124.212 86.0772 124.246 86.1748 124.279 86.2703C124.539 87.0566 124.787 87.843 125.022 88.6293C125.096 88.8764 125.163 89.1236 125.227 89.3707C125.387 89.9189 125.543 90.4671 125.689 91.0153C125.769 91.3144 125.844 91.6134 125.922 91.9145C126.052 92.4198 126.177 92.9251 126.296 93.4304C126.367 93.7308 126.435 94.0306 126.501 94.3296C126.617 94.8474 126.726 95.3651 126.829 95.8829C126.884 96.1591 126.942 96.4353 126.995 96.7135C127.121 97.3739 127.237 98.0322 127.342 98.6884C127.36 98.8067 127.385 98.9251 127.403 99.0435C127.525 99.8187 127.632 100.591 127.725 101.361C127.752 101.569 127.771 101.776 127.795 101.984C127.858 102.538 127.914 103.095 127.963 103.656C127.986 103.917 128.007 104.177 128.025 104.436C128.063 104.96 128.095 105.481 128.119 106C128.132 106.247 128.144 106.494 128.154 106.741C128.181 107.477 128.197 108.208 128.195 108.934L128.078 150.755C128.078 151.517 128.056 152.263 128.023 152.998C128.023 153.205 127.996 153.413 127.986 153.621C127.957 154.125 127.924 154.626 127.879 155.118C127.855 155.402 127.824 155.681 127.793 155.961C127.748 156.376 127.701 156.792 127.645 157.207C127.604 157.506 127.561 157.799 127.514 158.092C127.455 158.468 127.392 158.84 127.323 159.207C127.262 159.535 127.198 159.86 127.131 160.181C127.064 160.502 126.99 160.828 126.909 161.159C126.819 161.537 126.723 161.909 126.622 162.276C126.542 162.565 126.462 162.851 126.376 163.134C126.242 163.572 126.101 164 125.953 164.423C125.871 164.656 125.793 164.89 125.709 165.119C125.44 165.833 125.155 166.529 124.843 167.195C124.601 167.715 124.349 168.221 124.082 168.709C124.054 168.763 124.019 168.813 123.99 168.867C123.746 169.307 123.494 169.735 123.231 170.15C123.167 170.25 123.1 170.346 123.026 170.445C122.804 170.782 122.577 171.111 122.343 171.432C122.246 171.563 122.148 171.693 122.049 171.822C121.822 172.118 121.589 172.406 121.35 172.686C121.262 172.792 121.174 172.894 121.083 173.002C120.757 173.371 120.421 173.73 120.074 174.071C120.021 174.123 119.963 174.173 119.91 174.225C119.612 174.511 119.307 174.788 118.995 175.055C118.88 175.153 118.761 175.249 118.644 175.344C118.371 175.564 118.097 175.776 117.824 175.979C117.707 176.065 117.592 176.152 117.473 176.233C117.081 176.505 116.683 176.766 116.273 177.007L136.056 165.378C136.466 165.138 136.864 164.876 137.258 164.604C137.377 164.523 137.492 164.436 137.607 164.35C137.887 164.147 138.161 163.935 138.427 163.715C138.544 163.62 138.663 163.524 138.778 163.426C139.091 163.161 139.398 162.884 139.697 162.596C139.75 162.546 139.806 162.498 139.857 162.446C140.204 162.106 140.54 161.746 140.866 161.377C140.957 161.273 141.045 161.169 141.135 161.059C141.373 160.782 141.606 160.494 141.835 160.195C141.933 160.066 142.04 159.936 142.128 159.805C142.362 159.485 142.589 159.157 142.809 158.821C142.875 158.721 142.942 158.625 143.014 158.524L143.076 158.432C143.318 158.048 143.545 157.649 143.771 157.246C143.802 157.19 143.837 157.141 143.867 157.084C144.125 156.614 144.37 156.129 144.604 155.631L144.629 155.571C144.94 154.904 145.225 154.208 145.494 153.494C145.519 153.43 145.548 153.372 145.572 153.307C145.632 153.143 145.681 152.967 145.738 152.8C145.886 152.385 146.03 151.947 146.163 151.509C146.2 151.388 146.243 151.276 146.278 151.156C146.325 150.994 146.362 150.819 146.407 150.655C146.508 150.287 146.605 149.914 146.696 149.536C146.733 149.378 146.78 149.231 146.815 149.071C146.85 148.911 146.881 148.73 146.916 148.562C146.984 148.24 147.049 147.913 147.111 147.584C147.143 147.412 147.182 147.246 147.213 147.071C147.244 146.897 147.271 146.67 147.301 146.473C147.347 146.18 147.392 145.885 147.433 145.586C147.453 145.431 147.482 145.281 147.5 145.123C147.531 144.87 147.552 144.606 147.58 144.351C147.609 144.095 147.642 143.79 147.667 143.504C147.677 143.387 147.693 143.275 147.701 143.159C147.732 142.785 147.749 142.397 147.771 142.015C147.783 141.807 147.8 141.599 147.81 141.392C147.81 141.34 147.81 141.29 147.81 141.238C147.838 140.591 147.853 139.935 147.855 139.267V139.151L147.972 97.3303C147.993 96.6893 147.994 96.0615 147.976 95.4468Z" fill="url(#paint2_linear_4002_22661)"/>
</g>
</g>
<g clip-path="url(#clip1_4002_22661)" filter="url(#filter3_f_4002_22661)">
<path d="M17.8614 80.807L7.64072 90.6907L19.7468 95.5826V93.8854L10.0222 90.3912L19.7468 81.3062V78.8104L0 68.5273V70.9234L17.8614 80.807Z" fill="black" fill-opacity="0.22"/>
<path d="M21.6326 50.4563C22.6249 48.5594 23.9149 46.962 25.6018 45.9637L8.23652 24C6.15269 25.9967 4.46577 28.4926 3.17578 31.4876L21.5334 50.6559L21.6326 50.4563Z" fill="#25A3B4" fill-opacity="0.64"/>
<path d="M63.3029 37.7721L58.3641 34.8496L61.4235 49.3582L52.3936 53.7509L52.9889 54.2501L53.2866 54.0504V54.5496L54.1797 55.3483L56.8589 56.9456L63.2096 53.0521L63.4081 60.7394L67.5758 63.2352L66.5835 52.1536C66.5835 52.1536 79.7811 50.656 83.3533 50.057C81.8649 48.859 80.3764 47.7608 78.888 46.7625L65.7896 47.7608L65.4857 38.95L63.3029 37.7721Z" fill="#2A5A89" fill-opacity="0.36"/>
<path d="M100.917 70.024L89.1087 69.5248L89.8033 56.0471C88.9102 55.1486 87.9179 54.2501 87.0249 53.3516L86.1318 69.425H85.1395L81.2695 72.2204C89.5056 79.6082 95.5587 91.6882 96.154 102.271L97.0471 103.768L105.184 120.241L96.2533 122.338V128.328V129.226V141.805L116 137.013L116.099 115.549C116 100.873 110.145 84.1007 100.917 70.024Z" fill="black" fill-opacity="0.16"/>
<path d="M86.1315 123.435L85.3376 123.535H75.7123L70.9492 114.55L70.85 114.35C70.7508 114.35 70.7508 114.25 70.6516 114.25C70.4531 114.05 70.2546 113.951 70.0562 113.751C69.9569 113.651 69.7585 113.551 69.6593 113.451C69.4608 113.352 69.2623 113.152 69.0639 112.952C68.9646 112.852 68.7662 112.753 68.667 112.653C68.4685 112.453 68.27 112.353 68.1708 112.154C68.0716 112.054 67.8731 111.954 67.7739 111.754C67.5754 111.555 67.377 111.455 67.2777 111.255C67.1785 111.155 66.98 110.956 66.8808 110.856C66.6824 110.656 66.4839 110.556 66.3847 110.357C66.2854 110.257 66.087 110.057 65.9877 109.957C65.7893 109.758 65.5908 109.558 65.4916 109.358C65.3924 109.258 65.2931 109.159 65.1939 108.959C64.9954 108.759 64.797 108.46 64.5985 108.26L64.4001 107.961C64.1024 107.661 63.8047 107.262 63.6062 106.962C63.507 106.862 63.507 106.763 63.4078 106.763C63.2093 106.463 63.0108 106.263 62.8124 105.964C62.5147 105.664 62.3162 105.265 62.1178 104.965L62.0185 104.766C61.6216 104.267 61.2247 103.668 60.8278 103.069L60.6293 102.769C60.1332 102.07 59.7362 101.272 59.2401 100.573L59.0416 100.273C58.7439 99.7741 58.4463 99.1751 58.1486 98.6759C58.0493 98.4762 57.9501 98.2766 57.8509 98.0769C57.7516 97.8772 57.6524 97.6775 57.5532 97.4779C57.454 97.1784 57.2555 96.8789 57.1563 96.5794C57.1563 96.4795 57.057 96.3797 57.057 96.2799C56.8586 95.8805 56.6601 95.4812 56.5609 95.0818C56.5609 94.982 56.4617 94.8822 56.4617 94.7823C56.3624 94.4828 56.2632 94.1833 56.0647 93.8838L55.8663 93.4845C55.767 93.185 55.6678 92.8855 55.5686 92.6858C55.5686 92.586 55.4694 92.4861 55.4694 92.2865C55.3701 91.8871 55.1717 91.5876 55.0724 91.1883V91.0884C54.9732 90.6891 54.7747 90.2898 54.6755 89.8904C54.6755 89.7906 54.5763 89.5909 54.5763 89.4911C54.4771 89.1916 54.3778 88.8921 54.3778 88.6924C54.3778 88.4927 54.2786 88.3929 54.2786 88.1932C54.1794 87.8937 54.1794 87.694 54.0801 87.3945C54.0801 87.1949 53.9809 87.095 53.9809 86.8954C53.8817 86.5959 53.8817 86.3962 53.7824 86.0967C53.7824 85.9968 53.6832 85.7972 53.6832 85.6973C53.584 85.3978 53.584 84.9985 53.4848 84.699C53.4848 84.5992 53.4848 84.5992 53.4848 84.4993C53.3855 84.1 53.3855 83.7006 53.2863 83.3013C53.2863 83.3013 53.2863 83.3013 53.2863 83.2015C53.2863 83.1016 53.2863 83.0018 53.2863 83.0018C53.2863 82.7023 53.1871 82.4028 53.1871 82.2031C53.1871 82.1033 53.1871 81.9036 53.1871 81.8038C53.1871 81.7039 53.1871 81.6041 53.1871 81.4044C53.1871 81.3046 53.1871 81.1049 53.1871 81.0051C53.1871 80.9053 53.1871 80.7056 53.1871 80.6058C53.1871 80.2064 53.1871 79.9069 53.1871 79.5076V76.812H52.8894L50.6071 78.01L39.4933 65.2312L52.6909 57.6437V54.6487L52.4924 54.5488L37.6079 62.935L33.1426 57.3442V60.9383L35.0481 64.0642L33.1426 65.5307L33.1426 67.7257L37.5087 66.529L48.8364 79.1681L33.1426 87.8937V91.5876C33.1426 91.8871 33.1426 92.1866 33.1426 92.4861C33.1426 92.586 33.1426 92.586 33.1426 92.6858C33.1426 92.7856 33.1426 92.9853 33.1426 93.0851C33.1426 93.185 33.1426 93.3846 33.1426 93.4845C33.1426 93.5843 33.1426 93.6841 33.1426 93.784C33.1426 93.8838 33.1426 94.0835 33.1426 94.1833C33.1426 94.2832 33.1426 94.383 33.1426 94.4828C33.1426 94.6825 33.1426 94.8822 33.2418 95.0818C33.2418 95.1817 33.2418 95.2815 33.2418 95.3813V95.4812C33.2418 95.7807 33.341 96.18 33.341 96.4795C33.341 96.5794 33.341 96.5794 33.341 96.6792C33.341 96.9787 33.4403 97.2782 33.4403 97.4779C33.4403 97.5777 33.4403 97.5777 33.4403 97.6775C33.4403 97.7774 33.5395 97.977 33.5395 98.0769C33.5395 98.1767 33.6387 98.3764 33.6387 98.5761C33.6387 98.6759 33.6387 98.7757 33.738 98.8756C33.738 99.0752 33.8372 99.1751 33.8372 99.3747C33.8372 99.4746 33.9364 99.5744 33.9364 99.6742C33.9364 99.7741 34.0356 99.9737 34.0356 100.074C34.0356 100.173 34.1349 100.373 34.1349 100.573C34.1349 100.673 34.1349 100.673 34.2341 100.772C34.3333 100.972 34.3333 101.172 34.4326 101.371C34.4326 101.471 34.5318 101.671 34.5318 101.771V101.871C34.631 102.27 34.7303 102.569 34.8295 102.969V103.069C34.9287 103.368 35.028 103.668 35.1272 103.967C35.1272 104.067 35.1272 104.067 35.2264 104.167C35.2264 104.267 35.3256 104.366 35.3256 104.566C35.4249 104.766 35.4249 104.866 35.5241 105.065C35.5241 105.165 35.6233 105.265 35.6233 105.365L35.8218 105.764C35.8218 105.864 35.921 105.964 35.921 106.064C36.0203 106.263 36.1195 106.463 36.1195 106.663C36.1195 106.763 36.2187 106.862 36.2187 106.962V107.062C36.3179 107.362 36.5164 107.761 36.7149 108.06C36.7149 108.16 36.8141 108.26 36.8141 108.36C36.9133 108.659 37.0126 108.859 37.211 109.159L37.3102 109.258C37.4095 109.458 37.5087 109.658 37.6079 109.857C37.7072 110.057 37.8064 110.157 37.9056 110.357V110.456C38.2033 110.956 38.501 111.555 38.7987 112.054C38.7987 112.054 38.7987 112.154 38.8979 112.154L38.9972 112.253C39.3941 112.952 39.8902 113.751 40.3864 114.45C40.3864 114.45 40.3864 114.55 40.4856 114.55C40.4856 114.55 40.5848 114.649 40.5848 114.749C40.9818 115.348 41.3787 115.848 41.7756 116.447L41.8748 116.646C42.0733 116.946 42.371 117.345 42.5694 117.645V117.744C42.7679 118.044 42.9664 118.244 43.1648 118.543L43.3633 118.743C43.661 119.042 43.8594 119.342 44.1571 119.641L44.3556 119.941C44.554 120.14 44.7525 120.34 44.8517 120.54L44.951 120.64C45.0502 120.739 45.1494 120.839 45.2486 121.039C45.3479 121.139 45.5463 121.338 45.6456 121.438L45.7448 121.538C45.844 121.638 46.0425 121.838 46.1417 121.937C46.241 122.037 46.3402 122.137 46.4394 122.237L46.6379 122.437C46.7371 122.536 46.9356 122.736 47.0348 122.836C47.134 122.936 47.2333 123.036 47.3325 123.135L47.5309 123.335L47.9279 123.734C48.0271 123.834 48.1263 123.934 48.2256 123.934C48.3248 124.034 48.424 124.134 48.5232 124.134L48.9202 124.433C49.0194 124.533 49.0194 124.533 49.1186 124.633C49.2179 124.733 49.3171 124.833 49.4163 124.932C49.5155 125.032 49.714 125.132 49.8132 125.232L50.0117 125.332C50.2102 125.432 50.3094 125.532 50.5078 125.631C50.6071 125.731 50.7063 125.831 50.8055 125.831L50.9048 125.931C51.2025 126.131 51.5001 126.33 51.7978 126.53C52.0955 126.73 52.294 126.829 52.5917 127.029L52.7901 127.129L82.9561 144.899L95.6575 141.805V129.225L86.1315 123.435Z" fill="black" fill-opacity="0.25"/>
</g>
<g style="mix-blend-mode:multiply" filter="url(#filter4_f_4002_22661)">
<g filter="url(#filter5_f_4002_22661)">
<path d="M40.3246 137.116C32.1246 132.316 25.0246 122.416 21.7246 112.316L15.7246 136.316C19.3246 141.716 23.5246 146.616 27.9246 150.916L54.8246 145.616L40.3246 137.116Z" fill="#5A97A5" fill-opacity="0.52"/>
</g>
<g filter="url(#filter6_f_4002_22661)">
<path d="M20.1242 105.515C19.9242 104.115 19.8242 102.615 19.8242 101.215V98.9148L0.324219 96.7148C0.724219 99.8148 1.22422 103.015 2.02422 106.115L20.1242 105.515Z" fill="#BBE3E8"/>
</g>
<path d="M57.424 0.215625C57.324 0.215625 57.224 0.215625 57.124 0.215625C56.924 0.215625 56.624 0.215625 56.424 0.115625C56.124 0.115625 55.824 0.015625 55.524 0.015625C55.424 0.015625 55.324 0.015625 55.324 0.015625C55.124 0.015625 54.924 0.015625 54.724 0.015625C54.424 0.015625 54.024 0.015625 53.724 0.015625H53.424C53.324 0.015625 53.124 0.015625 53.024 0.015625C52.724 0.015625 52.424 0.015625 52.124 0.015625L55.024 19.0156L60.124 22.0156L58.224 0.315625C57.924 0.315625 57.624 0.215625 57.424 0.215625Z" fill="#E9E6DA"/>
<g filter="url(#filter7_f_4002_22661)">
<path d="M85.5244 13.6152L89.1244 38.9152C89.3244 39.0152 89.6244 39.2152 89.8244 39.3152L89.9244 39.4152C90.5244 39.8152 91.2244 40.2152 91.8244 40.7152C91.9244 40.8152 92.0244 40.8152 92.1244 40.9152V17.4152L85.5244 13.6152Z" fill="#642133" fill-opacity="0.21"/>
</g>
<g filter="url(#filter8_f_4002_22661)">
<path d="M108.624 57.1152C109.124 57.7152 109.624 58.4152 110.124 59.1152C110.224 59.2152 110.324 59.3152 110.324 59.4152C111.124 60.5152 111.824 61.6152 112.624 62.7152C112.824 63.0152 113.024 63.2152 113.124 63.5152C113.424 63.9152 113.624 64.3152 113.924 64.8152C114.124 65.2152 114.424 65.5152 114.624 65.9152C114.924 66.3152 115.124 66.8152 115.424 67.2152C115.624 67.5152 115.824 67.9152 116.024 68.2152C116.624 69.2152 117.224 70.3152 117.724 71.4152C117.924 71.8152 118.124 72.2152 118.324 72.6152C118.524 73.0152 118.724 73.4152 118.924 73.8152C119.224 74.4152 119.524 74.9152 119.724 75.5152C119.824 75.7152 119.924 75.9152 120.024 76.1152C120.324 76.9152 120.724 77.6152 121.024 78.4152C121.124 78.6152 121.224 78.8152 121.324 79.0152C121.524 79.6152 121.824 80.1152 122.024 80.7152C122.124 81.0152 122.224 81.2152 122.324 81.5152C122.524 82.0152 122.724 82.6152 122.924 83.1152C123.024 83.3152 123.124 83.6152 123.224 83.8152C123.424 84.5152 123.724 85.2152 123.924 85.9152C123.924 86.0152 124.024 86.1152 124.024 86.2152C124.324 87.0152 124.524 87.8152 124.724 88.6152C124.824 88.8152 124.824 89.1152 124.924 89.3152C125.124 89.8152 125.224 90.4152 125.424 90.9152C125.524 91.2152 125.624 91.5152 125.624 91.8152C125.724 92.3152 125.924 92.8152 126.024 93.3152C126.124 93.6152 126.124 93.9152 126.224 94.2152C126.324 94.7152 126.424 95.2152 126.524 95.8152C126.624 96.1152 126.624 96.4152 126.724 96.6152C126.824 97.3152 126.924 97.9152 127.024 98.6152C127.024 98.7152 127.024 98.8152 127.124 99.0152C127.224 99.8152 127.324 100.515 127.424 101.315C127.424 101.515 127.424 101.715 127.524 101.915C127.624 102.515 127.624 103.015 127.724 103.615C127.724 103.915 127.724 104.115 127.824 104.415C127.824 104.915 127.924 105.415 127.924 106.015C127.924 106.215 127.924 106.515 127.924 106.715C127.924 107.415 127.924 108.215 127.924 108.915L127.824 135.915L147.524 134.115L147.624 97.3152C147.624 96.7152 147.624 96.0152 147.624 95.4152C147.624 95.3152 147.624 95.2152 147.624 95.0152C147.624 94.8152 147.624 94.5152 147.624 94.3152C147.624 94.0152 147.624 93.7152 147.624 93.4152C147.624 93.2152 147.624 92.9152 147.524 92.7152C147.524 92.5152 147.524 92.2152 147.424 91.9152C147.424 91.7152 147.424 91.6152 147.424 91.4152C147.424 91.0152 147.324 90.6152 147.324 90.2152C147.324 90.0152 147.324 89.8152 147.224 89.6152C147.224 89.5152 147.224 89.5152 147.224 89.4152C147.124 88.7152 147.024 88.0152 146.924 87.3152V87.2152C146.924 87.1152 146.924 87.0152 146.824 86.8152C146.724 86.3152 146.624 85.7152 146.524 85.2152C146.524 85.1152 146.524 85.0152 146.424 84.9152C146.324 84.6152 146.324 84.3152 146.224 84.1152C146.124 83.8152 146.124 83.4152 146.024 83.1152C146.024 82.9152 145.924 82.7152 145.924 82.5152C145.824 82.2152 145.824 81.9152 145.724 81.6152C145.624 81.4152 145.624 81.2152 145.524 80.9152C145.424 80.6152 145.324 80.3152 145.324 80.0152C145.224 79.7152 145.124 79.4152 145.124 79.1152C145.124 79.0152 145.024 78.8152 145.024 78.7152C144.924 78.3152 144.824 77.9152 144.624 77.5152C144.524 77.3152 144.524 77.0152 144.424 76.8152C144.424 76.7152 144.424 76.7152 144.324 76.6152C144.124 75.9152 143.924 75.2152 143.624 74.5152C143.624 74.4152 143.524 74.3152 143.524 74.2152C143.324 73.6152 143.124 73.0152 142.924 72.4152C142.924 72.3152 142.824 72.2152 142.824 72.1152C142.724 71.9152 142.624 71.6152 142.524 71.4152C142.424 71.1152 142.324 70.7152 142.124 70.4152C142.024 70.2152 141.924 70.0152 141.824 69.7152C141.724 69.4152 141.624 69.2152 141.524 68.9152C141.424 68.7152 141.424 68.5152 141.324 68.3152C141.124 67.9152 141.024 67.5152 140.824 67.1152C140.724 66.9152 140.624 66.7152 140.524 66.5152L140.424 66.3152C140.124 65.6152 139.824 65.0152 139.524 64.3152V64.2152C139.424 64.0152 139.324 63.8152 139.224 63.6152C139.024 63.1152 138.724 62.6152 138.524 62.1152C138.524 62.0152 138.424 61.9152 138.424 61.9152C138.224 61.5152 138.024 61.1152 137.824 60.7152C137.624 60.4152 137.524 60.0152 137.324 59.7152C137.324 59.6152 137.224 59.6152 137.224 59.5152C136.624 58.4152 136.124 57.4152 135.424 56.3152C135.324 56.2152 135.324 56.1152 135.324 56.0152C135.124 55.7152 135.024 55.5152 134.824 55.2152C134.524 54.8152 134.324 54.3152 134.024 53.9152C133.824 53.5152 133.524 53.2152 133.324 52.8152C133.024 52.4152 132.824 52.0152 132.524 51.5152C132.424 51.4152 132.324 51.2152 132.224 51.1152C132.124 51.0152 132.024 50.8152 131.924 50.7152C131.224 49.6152 130.424 48.5152 129.624 47.4152C129.524 47.3152 129.424 47.2152 129.424 47.1152C128.924 46.4152 128.424 45.8152 127.924 45.1152L127.824 45.0152C127.424 44.5152 127.024 44.0152 126.624 43.5152C126.524 43.4152 126.424 43.2152 126.324 43.1152C125.824 42.5152 125.324 41.9152 124.724 41.2152L124.624 41.1152C124.524 40.9152 124.324 40.8152 124.124 40.6152C123.824 40.2152 123.424 39.8152 123.024 39.4152L122.824 39.2152C122.624 39.0152 122.324 38.7152 122.124 38.5152C121.824 38.2152 121.624 37.9152 121.324 37.7152C121.224 37.6152 121.124 37.5152 121.024 37.4152C120.824 37.1152 120.524 36.9152 120.224 36.6152C119.924 36.3152 119.824 36.1152 119.524 35.9152C119.424 35.8152 119.324 35.7152 119.124 35.6152C118.824 35.3152 118.624 35.1152 118.324 34.8152C118.124 34.6152 117.924 34.4152 117.724 34.2152C117.624 34.1152 117.424 33.9152 117.324 33.8152C117.024 33.6152 116.824 33.3152 116.524 33.1152C116.324 32.9152 116.224 32.8152 116.024 32.6152C115.824 32.5152 115.624 32.3152 115.524 32.2152C115.324 32.0152 115.024 31.8152 114.824 31.6152L108.324 56.7152C108.424 56.8152 108.524 57.0152 108.624 57.1152Z" fill="#3D1940" fill-opacity="0.3"/>
</g>
</g>
<g filter="url(#filter9_f_4002_22661)">
<g opacity="0.2">
<g filter="url(#filter10_b_4002_22661)">
<path d="M23.1816 14.3875C23.6816 14.0875 24.1816 13.7875 24.6816 13.5875C24.8816 13.4875 24.9816 13.4875 25.1816 13.3875C25.5816 13.1875 25.8816 13.0875 26.2816 12.9875C26.5816 12.8875 26.8816 12.7875 27.1816 12.6875C27.3816 12.5875 27.5816 12.5875 27.7816 12.4875C28.1816 12.3875 28.4816 12.2875 28.8816 12.1875C28.9816 12.1875 29.1816 12.0875 29.2816 12.0875C29.7816 11.9875 30.2816 11.8875 30.7816 11.8875C30.8816 11.8875 31.0816 11.8875 31.1816 11.8875C31.4816 11.8875 31.7816 11.7875 32.0816 11.7875C32.4816 11.7875 32.8816 11.6875 33.3816 11.6875C33.5816 11.6875 33.8816 11.6875 34.0816 11.6875C34.3816 11.6875 34.7816 11.6875 35.0816 11.6875C35.3816 11.6875 35.6816 11.6875 35.8816 11.6875C36.1816 11.6875 36.4816 11.7875 36.7816 11.7875C37.0816 11.7875 37.3816 11.8875 37.7816 11.8875C38.0816 11.8875 38.2816 11.9875 38.5816 11.9875C38.8816 12.0875 39.2816 12.0875 39.5816 12.1875C39.7816 12.1875 40.0816 12.2875 40.2816 12.3875C40.6816 12.4875 40.9816 12.5875 41.3816 12.6875C41.5816 12.7875 41.8816 12.7875 42.0816 12.8875C42.4816 12.9875 42.8816 13.0875 43.2816 13.2875C43.4816 13.3875 43.6816 13.3875 43.8816 13.4875C44.4816 13.6875 45.0816 13.8875 45.6816 14.1875H45.7816C46.3816 14.3875 46.9816 14.6875 47.5816 14.9875C47.7816 15.0875 47.9816 15.1875 48.1816 15.2875C48.5816 15.4875 49.0816 15.6875 49.4816 15.9875C49.6816 16.0875 49.8816 16.1875 50.1816 16.2875C50.7816 16.5875 51.3816 16.8875 51.9816 17.2875L87.9816 38.2875C88.6816 38.6875 89.2816 39.0875 89.9816 39.4875L90.0816 39.5875C90.6816 39.9875 91.3816 40.3875 91.9816 40.8875C92.1816 41.0875 92.3816 41.1875 92.5816 41.3875C92.9816 41.6875 93.3816 41.9875 93.8816 42.2875C94.1816 42.4875 94.3816 42.6875 94.6816 42.8875C95.0816 43.1875 95.4816 43.4875 95.7816 43.7875C96.0816 43.9875 96.2816 44.1875 96.5816 44.4875C96.9816 44.7875 97.2816 45.0875 97.6816 45.3875C97.9816 45.5875 98.1816 45.8875 98.4816 46.0875C98.7816 46.3875 99.1816 46.6875 99.4816 46.9875C99.7816 47.2875 99.9816 47.4875 100.282 47.7875C100.582 48.0875 100.982 48.4875 101.282 48.7875C101.582 48.9875 101.782 49.2875 102.082 49.5875C102.482 49.9875 102.782 50.2875 103.182 50.6875C103.382 50.8875 103.682 51.1875 103.882 51.3875C104.282 51.7875 104.682 52.2875 105.082 52.7875C105.282 52.9875 105.382 53.0875 105.582 53.2875C106.182 53.8875 106.682 54.5875 107.282 55.2875C107.382 55.3875 107.482 55.5875 107.582 55.6875C107.982 56.1875 108.482 56.7875 108.882 57.2875C109.382 57.8875 109.882 58.5875 110.382 59.2875C110.482 59.3875 110.582 59.4875 110.582 59.5875C111.382 60.6875 112.082 61.7875 112.882 62.8875C113.082 63.1875 113.282 63.3875 113.382 63.6875C113.682 64.0875 113.882 64.4875 114.182 64.9875C114.382 65.3875 114.682 65.6875 114.882 66.0875C115.182 66.4875 115.382 66.9875 115.682 67.3875C115.882 67.6875 116.082 68.0875 116.282 68.3875C116.882 69.3875 117.482 70.4875 117.982 71.5875C118.182 71.9875 118.382 72.3875 118.582 72.7875C118.782 73.1875 118.982 73.5875 119.182 73.9875C119.482 74.5875 119.782 75.0875 119.982 75.6875C120.082 75.8875 120.182 76.0875 120.282 76.2875C120.582 77.0875 120.982 77.7875 121.282 78.5875C121.382 78.7875 121.482 78.9875 121.582 79.1875C121.782 79.7875 122.082 80.2875 122.282 80.8875C122.382 81.1875 122.482 81.3875 122.582 81.6875C122.782 82.1875 122.982 82.7875 123.182 83.2875C123.282 83.4875 123.382 83.7875 123.482 83.9875C123.682 84.6875 123.982 85.3875 124.182 86.0875C124.182 86.1875 124.282 86.2875 124.282 86.3875C124.582 87.1875 124.782 87.9875 124.982 88.7875C125.082 88.9875 125.082 89.2875 125.182 89.4875C125.382 89.9875 125.482 90.5875 125.682 91.0875C125.782 91.3875 125.882 91.6875 125.882 91.9875C125.982 92.4875 126.182 92.9875 126.282 93.4875C126.382 93.7875 126.382 94.0875 126.482 94.3875C126.582 94.8875 126.682 95.3875 126.782 95.9875C126.882 96.2875 126.882 96.5875 126.982 96.7875C127.082 97.4875 127.182 98.0875 127.282 98.7875C127.282 98.8875 127.282 98.9875 127.382 99.1875C127.482 99.9875 127.582 100.688 127.682 101.488C127.682 101.688 127.682 101.888 127.782 102.088C127.882 102.688 127.882 103.188 127.982 103.787C127.982 104.088 127.982 104.287 128.082 104.588C128.082 105.088 128.182 105.588 128.182 106.188C128.182 106.387 128.182 106.688 128.182 106.887C128.182 107.587 128.182 108.388 128.182 109.088L128.082 135.887L147.782 134.387L147.882 97.4875C147.882 96.8875 147.882 96.1875 147.882 95.5875C147.882 95.4875 147.882 95.3875 147.882 95.1875C147.882 94.9875 147.882 94.6875 147.882 94.4875C147.882 94.1875 147.882 93.8875 147.882 93.5875C147.882 93.3875 147.882 93.0875 147.782 92.8875C147.782 92.6875 147.782 92.3875 147.682 92.0875C147.682 91.8875 147.682 91.7875 147.682 91.5875C147.682 91.1875 147.582 90.7875 147.582 90.3875C147.582 90.1875 147.582 89.9875 147.482 89.7875C147.482 89.6875 147.482 89.6875 147.482 89.5875C147.382 88.8875 147.282 88.1875 147.182 87.4875V87.3875C147.182 87.2875 147.182 87.1875 147.082 86.9875C146.982 86.4875 146.882 85.8875 146.782 85.3875C146.782 85.2875 146.782 85.1875 146.682 85.0875C146.582 84.7875 146.582 84.4875 146.482 84.2875C146.382 83.9875 146.382 83.5875 146.282 83.2875C146.282 83.0875 146.182 82.8875 146.182 82.6875C146.082 82.3875 146.082 82.0875 145.982 81.7875C145.882 81.5875 145.882 81.3875 145.782 81.0875C145.682 80.7875 145.582 80.4875 145.582 80.1875C145.482 79.8875 145.382 79.5875 145.382 79.2875C145.382 79.1875 145.282 78.9875 145.282 78.8875C145.182 78.4875 145.082 78.0875 144.882 77.6875C144.782 77.4875 144.782 77.1875 144.682 76.9875C144.682 76.8875 144.682 76.8875 144.582 76.7875C144.382 76.0875 144.182 75.3875 143.882 74.6875C143.882 74.5875 143.782 74.4875 143.782 74.3875C143.582 73.7875 143.382 73.1875 143.182 72.5875C143.182 72.4875 143.082 72.3875 143.082 72.2875C142.982 72.0875 142.882 71.7875 142.782 71.5875C142.682 71.2875 142.582 70.8875 142.382 70.5875C142.282 70.3875 142.182 70.1875 142.082 69.8875C141.982 69.5875 141.882 69.3875 141.782 69.0875C141.682 68.8875 141.682 68.6875 141.582 68.4875C141.382 68.0875 141.282 67.6875 141.082 67.2875C140.982 67.0875 140.882 66.8875 140.782 66.6875L140.682 66.4875C140.382 65.7875 140.082 65.1875 139.782 64.4875V64.3875C139.682 64.1875 139.582 63.9875 139.482 63.7875C139.282 63.2875 138.982 62.7875 138.782 62.2875C138.782 62.1875 138.682 62.0875 138.682 62.0875C138.482 61.6875 138.282 61.2875 138.082 60.8875C137.882 60.5875 137.782 60.1875 137.582 59.8875C137.582 59.7875 137.482 59.7875 137.482 59.6875C136.882 58.5875 136.382 57.5875 135.682 56.4875C135.582 56.3875 135.582 56.2875 135.582 56.1875C135.382 55.8875 135.282 55.6875 135.082 55.3875C134.782 54.9875 134.582 54.4875 134.282 54.0875C134.082 53.6875 133.782 53.3875 133.582 52.9875C133.282 52.5875 133.082 52.1875 132.782 51.6875C132.682 51.5875 132.582 51.3875 132.482 51.2875C132.382 51.1875 132.282 50.9875 132.182 50.8875C131.482 49.7875 130.682 48.6875 129.882 47.5875C129.782 47.4875 129.682 47.3875 129.682 47.2875C129.182 46.5875 128.682 45.9875 128.182 45.2875L128.082 45.1875C127.682 44.6875 127.282 44.1875 126.882 43.6875C126.782 43.5875 126.682 43.3875 126.582 43.2875C126.082 42.6875 125.582 42.0875 124.982 41.3875L124.882 41.2875C124.782 41.0875 124.582 40.9875 124.382 40.7875C124.082 40.3875 123.682 39.9875 123.282 39.5875L123.082 39.3875C122.882 39.1875 122.582 38.8875 122.382 38.6875C122.082 38.3875 121.882 38.0875 121.582 37.8875C121.482 37.7875 121.382 37.6875 121.282 37.5875C121.082 37.2875 120.782 37.0875 120.482 36.7875C120.182 36.4875 120.082 36.2875 119.782 36.0875C119.682 35.9875 119.582 35.8875 119.382 35.7875C119.082 35.4875 118.882 35.2875 118.582 34.9875C118.382 34.7875 118.182 34.5875 117.982 34.3875C117.882 34.2875 117.682 34.0875 117.582 33.9875C117.282 33.7875 117.082 33.4875 116.782 33.2875C116.582 33.0875 116.482 32.9875 116.282 32.7875C116.082 32.6875 115.882 32.4875 115.782 32.3875C115.482 32.1875 115.282 31.8875 114.982 31.6875C114.882 31.5875 114.682 31.4875 114.582 31.2875C114.382 31.0875 114.082 30.8875 113.882 30.7875C113.682 30.5875 113.382 30.3875 113.082 30.1875C112.982 30.0875 112.882 29.9875 112.782 29.9875C112.482 29.7875 112.182 29.5875 111.882 29.2875C111.682 29.0875 111.482 28.9875 111.282 28.7875L111.082 28.6875C110.482 28.2875 109.982 27.8875 109.382 27.5875L109.282 27.4875C108.782 27.1875 108.182 26.7875 107.682 26.4875L107.282 26.2875L71.3816 5.2875C71.1816 5.1875 70.9816 5.0875 70.7816 4.9875L40.3816 4.1875L23.1816 14.3875Z" fill="white" fill-opacity="0.5"/>
</g>
<g filter="url(#filter11_f_4002_22661)">
<path d="M51.8797 31.0395L47.8797 28.6395L40.7797 24.5395C25.0797 15.4395 11.4797 17.9395 4.67969 29.1395L86.0797 52.3395C83.0797 49.7395 79.8797 47.4395 76.6797 45.5395L51.8797 31.0395Z" fill="white" fill-opacity="0.8"/>
</g>
</g>
</g>
<g opacity="0.9" clip-path="url(#clip2_4002_22661)" filter="url(#filter12_f_4002_22661)">
<g clip-path="url(#clip3_4002_22661)">
<g filter="url(#filter13_b_4002_22661)">
<path d="M40.3004 160.5L76.3004 181.5C98.6004 194.5 116.8 184 116.9 158.1L117 139.7V138.1V137.5L104.5 140.4L97.0004 138.8V146.5C97.0004 147.6 96.9004 148.7 96.8004 149.7C96.7004 150.3 96.6004 150.9 96.5004 151.5C94.4004 160.8 86.2004 164 76.5004 158.3L40.5004 137.3C29.2004 130.7 20.0004 114.6 20.0004 101.4V101.2L0.100412 67L0.000412379 89.8C-0.0995876 115.8 18.0004 147.5 40.3004 160.5Z" fill="white" fill-opacity="0.04"/>
</g>
<path d="M128.1 150.9C128.1 151.7 128.1 152.4 128 153.1C128 153.3 128 153.5 128 153.7C128 154.2 127.9 154.7 127.9 155.2C127.9 155.5 127.8 155.8 127.8 156C127.8 156.4 127.7 156.8 127.7 157.2C127.7 157.5 127.6 157.8 127.6 158.1C127.5 158.5 127.5 158.8 127.4 159.2C127.3 159.5 127.3 159.9 127.2 160.2C127.1 160.5 127.1 160.8 127 161.2C126.9 161.6 126.8 162 126.7 162.3C126.6 162.6 126.5 162.9 126.5 163.2C126.4 163.6 126.2 164.1 126.1 164.5C126 164.7 125.9 165 125.9 165.2C125.6 165.9 125.3 166.6 125 167.3C124.8 167.8 124.5 168.3 124.2 168.8C124.2 168.9 124.1 168.9 124.1 169C123.9 169.4 123.6 169.9 123.3 170.3C123.2 170.4 123.2 170.5 123.1 170.6C122.9 170.9 122.7 171.3 122.4 171.6C122.3 171.7 122.2 171.9 122.1 172C121.9 172.3 121.6 172.6 121.4 172.9C121.3 173 121.2 173.1 121.1 173.2C120.8 173.6 120.4 173.9 120.1 174.3C120 174.4 120 174.4 119.9 174.5C119.6 174.8 119.3 175.1 119 175.3C118.9 175.4 118.8 175.5 118.6 175.6C118.3 175.8 118.1 176 117.8 176.2C117.7 176.3 117.6 176.4 117.4 176.5C117.2 176.6 117 176.8 116.8 176.9L136 165.6C136.4 165.4 136.8 165.1 137.2 164.8C137.3 164.7 137.4 164.6 137.5 164.5C137.8 164.3 138.1 164.1 138.3 163.9C138.4 163.8 138.5 163.7 138.7 163.6C139 163.3 139.3 163.1 139.6 162.8C139.7 162.8 139.7 162.7 139.8 162.6C140.1 162.3 140.5 161.9 140.8 161.5C140.9 161.4 141 161.3 141.1 161.2C141.3 160.9 141.6 160.6 141.8 160.3C141.9 160.2 142 160 142.1 159.9C142.3 159.6 142.6 159.3 142.8 158.9C142.9 158.8 142.9 158.7 143 158.6L143.1 158.5C143.3 158.1 143.6 157.7 143.8 157.3C143.8 157.2 143.9 157.2 143.9 157.1C144.2 156.6 144.4 156.1 144.6 155.6V155.5C144.9 154.8 145.2 154.1 145.5 153.4C145.5 153.3 145.6 153.3 145.6 153.2C145.7 153 145.7 152.9 145.8 152.7C145.9 152.3 146.1 151.8 146.2 151.4C146.2 151.3 146.3 151.2 146.3 151C146.3 150.8 146.4 150.7 146.4 150.5C146.5 150.1 146.6 149.8 146.7 149.4C146.7 149.2 146.8 149.1 146.8 148.9C146.8 148.7 146.9 148.6 146.9 148.4C147 148.1 147 147.8 147.1 147.4C147.1 147.2 147.2 147.1 147.2 146.9C147.2 146.7 147.3 146.5 147.3 146.3C147.3 146 147.4 145.7 147.4 145.4C147.4 145.2 147.4 145.1 147.5 144.9C147.5 144.6 147.6 144.4 147.6 144.1C147.6 143.8 147.7 143.5 147.7 143.3C147.7 143.2 147.7 143.1 147.7 143C147.7 142.6 147.7 142.2 147.8 141.9C147.8 141.7 147.8 141.5 147.8 141.3C147.8 141.2 147.8 141.2 147.8 141.1C147.8 140.5 147.8 139.8 147.8 139.1V139V133.9L128 136.1L128.1 150.9Z" fill="white" fill-opacity="0.28"/>
</g>
</g>
</g>
<defs>
<filter id="filter0_iii_4002_22661" x="-0.5" y="16.8926" width="119.441" height="172.107" filterUnits="userSpaceOnUse" color-interpolation-filters="sRGB">
<feFlood flood-opacity="0" result="BackgroundImageFix"/>
<feBlend mode="normal" in="SourceGraphic" in2="BackgroundImageFix" result="shape"/>
<feColorMatrix in="SourceAlpha" type="matrix" values="0 0 0 0 0 0 0 0 0 0 0 0 0 0 0 0 0 0 127 0" result="hardAlpha"/>
<feOffset dx="3" dy="-2"/>
<feGaussianBlur stdDeviation="1"/>
<feComposite in2="hardAlpha" operator="arithmetic" k2="-1" k3="1"/>
<feColorMatrix type="matrix" values="0 0 0 0 0.34125 0 0 0 0 0.491925 0 0 0 0 0.525 0 0 0 0.3 0"/>
<feBlend mode="normal" in2="shape" result="effect1_innerShadow_4002_22661"/>
<feColorMatrix in="SourceAlpha" type="matrix" values="0 0 0 0 0 0 0 0 0 0 0 0 0 0 0 0 0 0 127 0" result="hardAlpha"/>
<feOffset dx="1" dy="3"/>
<feGaussianBlur stdDeviation="1"/>
<feComposite in2="hardAlpha" operator="arithmetic" k2="-1" k3="1"/>
<feColorMatrix type="matrix" values="0 0 0 0 1 0 0 0 0 1 0 0 0 0 1 0 0 0 0.5 0"/>
<feBlend mode="normal" in2="effect1_innerShadow_4002_22661" result="effect2_innerShadow_4002_22661"/>
<feColorMatrix in="SourceAlpha" type="matrix" values="0 0 0 0 0 0 0 0 0 0 0 0 0 0 0 0 0 0 127 0" result="hardAlpha"/>
<feOffset dx="-1.5" dy="-2"/>
<feGaussianBlur stdDeviation="0.25"/>
<feComposite in2="hardAlpha" operator="arithmetic" k2="-1" k3="1"/>
<feColorMatrix type="matrix" values="0 0 0 0 0.0333333 0 0 0 0 0.4 0 0 0 0 0.378 0 0 0 0.49 0"/>
<feBlend mode="normal" in2="effect2_innerShadow_4002_22661" result="effect3_innerShadow_4002_22661"/>
</filter>
<filter id="filter1_ii_4002_22661" x="21.1934" y="-2" width="127.795" height="179.008" filterUnits="userSpaceOnUse" color-interpolation-filters="sRGB">
<feFlood flood-opacity="0" result="BackgroundImageFix"/>
<feBlend mode="normal" in="SourceGraphic" in2="BackgroundImageFix" result="shape"/>
<feColorMatrix in="SourceAlpha" type="matrix" values="0 0 0 0 0 0 0 0 0 0 0 0 0 0 0 0 0 0 127 0" result="hardAlpha"/>
<feOffset dx="1" dy="-2"/>
<feGaussianBlur stdDeviation="0.5"/>
<feComposite in2="hardAlpha" operator="arithmetic" k2="-1" k3="1"/>
<feColorMatrix type="matrix" values="0 0 0 0 0.229167 0 0 0 0 0.199566 0 0 0 0 0.199566 0 0 0 0.3 0"/>
<feBlend mode="normal" in2="shape" result="effect1_innerShadow_4002_22661"/>
<feColorMatrix in="SourceAlpha" type="matrix" values="0 0 0 0 0 0 0 0 0 0 0 0 0 0 0 0 0 0 127 0" result="hardAlpha"/>
<feOffset dx="-2" dy="-2"/>
<feGaussianBlur stdDeviation="1"/>
<feComposite in2="hardAlpha" operator="arithmetic" k2="-1" k3="1"/>
<feColorMatrix type="matrix" values="0 0 0 0 0.02375 0 0 0 0 0.299092 0 0 0 0 0.316667 0 0 0 0.04 0"/>
<feBlend mode="normal" in2="effect1_innerShadow_4002_22661" result="effect2_innerShadow_4002_22661"/>
</filter>
<filter id="filter2_i_4002_22661" x="22.1934" y="-1" width="125.795" height="178.008" filterUnits="userSpaceOnUse" color-interpolation-filters="sRGB">
<feFlood flood-opacity="0" result="BackgroundImageFix"/>
<feBlend mode="normal" in="SourceGraphic" in2="BackgroundImageFix" result="shape"/>
<feColorMatrix in="SourceAlpha" type="matrix" values="0 0 0 0 0 0 0 0 0 0 0 0 0 0 0 0 0 0 127 0" result="hardAlpha"/>
<feOffset dx="-1.5" dy="-1.5"/>
<feGaussianBlur stdDeviation="0.5"/>
<feComposite in2="hardAlpha" operator="arithmetic" k2="-1" k3="1"/>
<feColorMatrix type="matrix" values="0 0 0 0 0.03375 0 0 0 0 0.20205 0 0 0 0 0.225 0 0 0 0.49 0"/>
<feBlend mode="normal" in2="shape" result="effect1_innerShadow_4002_22661"/>
</filter>
<filter id="filter3_f_4002_22661" x="-2" y="22" width="120" height="125" filterUnits="userSpaceOnUse" color-interpolation-filters="sRGB">
<feFlood flood-opacity="0" result="BackgroundImageFix"/>
<feBlend mode="normal" in="SourceGraphic" in2="BackgroundImageFix" result="shape"/>
<feGaussianBlur stdDeviation="1" result="effect1_foregroundBlur_4002_22661"/>
</filter>
<filter id="filter4_f_4002_22661" x="-1.67578" y="-1.98438" width="151.3" height="154.9" filterUnits="userSpaceOnUse" color-interpolation-filters="sRGB">
<feFlood flood-opacity="0" result="BackgroundImageFix"/>
<feBlend mode="normal" in="SourceGraphic" in2="BackgroundImageFix" result="shape"/>
<feGaussianBlur stdDeviation="1" result="effect1_foregroundBlur_4002_22661"/>
</filter>
<filter id="filter5_f_4002_22661" x="10.7246" y="107.316" width="49.0996" height="48.5996" filterUnits="userSpaceOnUse" color-interpolation-filters="sRGB">
<feFlood flood-opacity="0" result="BackgroundImageFix"/>
<feBlend mode="normal" in="SourceGraphic" in2="BackgroundImageFix" result="shape"/>
<feGaussianBlur stdDeviation="2.5" result="effect1_foregroundBlur_4002_22661"/>
</filter>
<filter id="filter6_f_4002_22661" x="-3.67578" y="92.7148" width="27.7998" height="17.4004" filterUnits="userSpaceOnUse" color-interpolation-filters="sRGB">
<feFlood flood-opacity="0" result="BackgroundImageFix"/>
<feBlend mode="normal" in="SourceGraphic" in2="BackgroundImageFix" result="shape"/>
<feGaussianBlur stdDeviation="2" result="effect1_foregroundBlur_4002_22661"/>
</filter>
<filter id="filter7_f_4002_22661" x="81.5244" y="9.61523" width="14.5996" height="35.3008" filterUnits="userSpaceOnUse" color-interpolation-filters="sRGB">
<feFlood flood-opacity="0" result="BackgroundImageFix"/>
<feBlend mode="normal" in="SourceGraphic" in2="BackgroundImageFix" result="shape"/>
<feGaussianBlur stdDeviation="2" result="effect1_foregroundBlur_4002_22661"/>
</filter>
<filter id="filter8_f_4002_22661" x="103.324" y="26.6152" width="49.2998" height="114.301" filterUnits="userSpaceOnUse" color-interpolation-filters="sRGB">
<feFlood flood-opacity="0" result="BackgroundImageFix"/>
<feBlend mode="normal" in="SourceGraphic" in2="BackgroundImageFix" result="shape"/>
<feGaussianBlur stdDeviation="2.5" result="effect1_foregroundBlur_4002_22661"/>
</filter>
<filter id="filter9_f_4002_22661" x="2.5625" y="2.1875" width="147.319" height="135.699" filterUnits="userSpaceOnUse" color-interpolation-filters="sRGB">
<feFlood flood-opacity="0" result="BackgroundImageFix"/>
<feBlend mode="normal" in="SourceGraphic" in2="BackgroundImageFix" result="shape"/>
<feGaussianBlur stdDeviation="1" result="effect1_foregroundBlur_4002_22661"/>
</filter>
<filter id="filter10_b_4002_22661" x="15.1816" y="-3.8125" width="140.7" height="147.699" filterUnits="userSpaceOnUse" color-interpolation-filters="sRGB">
<feFlood flood-opacity="0" result="BackgroundImageFix"/>
<feGaussianBlur in="BackgroundImage" stdDeviation="4"/>
<feComposite in2="SourceAlpha" operator="in" result="effect1_backgroundBlur_4002_22661"/>
<feBlend mode="normal" in="SourceGraphic" in2="effect1_backgroundBlur_4002_22661" result="shape"/>
</filter>
<filter id="filter11_f_4002_22661" x="2.67969" y="16.9961" width="85.4004" height="37.3438" filterUnits="userSpaceOnUse" color-interpolation-filters="sRGB">
<feFlood flood-opacity="0" result="BackgroundImageFix"/>
<feBlend mode="normal" in="SourceGraphic" in2="BackgroundImageFix" result="shape"/>
<feGaussianBlur stdDeviation="1" result="effect1_foregroundBlur_4002_22661"/>
</filter>
<filter id="filter12_f_4002_22661" x="-2" y="65" width="151.9" height="124.1" filterUnits="userSpaceOnUse" color-interpolation-filters="sRGB">
<feFlood flood-opacity="0" result="BackgroundImageFix"/>
<feBlend mode="normal" in="SourceGraphic" in2="BackgroundImageFix" result="shape"/>
<feGaussianBlur stdDeviation="1" result="effect1_foregroundBlur_4002_22661"/>
</filter>
<filter id="filter13_b_4002_22661" x="-8" y="59" width="133" height="136.078" filterUnits="userSpaceOnUse" color-interpolation-filters="sRGB">
<feFlood flood-opacity="0" result="BackgroundImageFix"/>
<feGaussianBlur in="BackgroundImage" stdDeviation="4"/>
<feComposite in2="SourceAlpha" operator="in" result="effect1_backgroundBlur_4002_22661"/>
<feBlend mode="normal" in="SourceGraphic" in2="effect1_backgroundBlur_4002_22661" result="shape"/>
</filter>
<linearGradient id="paint0_linear_4002_22661" x1="2.74912" y1="85.613" x2="108.074" y2="99.0674" gradientUnits="userSpaceOnUse">
<stop offset="0.235213" stop-color="#60F4F9"/>
<stop offset="1" stop-color="#E6A0FF"/>
</linearGradient>
<linearGradient id="paint1_linear_4002_22661" x1="93.0069" y1="95.7085" x2="56.3043" y2="90.4413" gradientUnits="userSpaceOnUse">
<stop stop-color="#FCA0FF"/>
<stop offset="1" stop-color="#E8F59A"/>
</linearGradient>
<linearGradient id="paint2_linear_4002_22661" x1="131.073" y1="60.3612" x2="45.5658" y2="77.1859" gradientUnits="userSpaceOnUse">
<stop stop-color="#EE95F1"/>
<stop offset="1" stop-color="#E7F2AA"/>
</linearGradient>
<clipPath id="clip0_4002_22661">
<rect width="148" height="187" fill="white"/>
</clipPath>
<clipPath id="clip1_4002_22661">
<rect width="116" height="121" fill="white" transform="translate(0 24)"/>
</clipPath>
<clipPath id="clip2_4002_22661">
<rect width="147.9" height="120.1" fill="white" transform="translate(0 67)"/>
</clipPath>
<clipPath id="clip3_4002_22661">
<rect width="147.8" height="120.079" fill="white" transform="translate(0 67)"/>
</clipPath>
</defs>
</svg>
