<svg width="20" height="20" viewBox="0 0 20 20" fill="none" xmlns="http://www.w3.org/2000/svg">
<g clip-path="url(#clip0)">
<path d="M19.266 6.25054H9.99976C7.9288 6.24851 6.24829 7.9257 6.24622 9.99666C6.24559 10.6399 6.41043 11.2725 6.72491 11.8336L2.0918 3.88397C5.46637 -0.483608 11.7427 -1.28857 16.1102 2.086C17.5129 3.16974 18.602 4.60706 19.266 6.25054Z" fill="#F44336"/>
<path d="M19.9995 9.99984C19.9949 15.5205 15.5207 19.9948 9.99995 19.9994C9.58184 20.001 9.16416 19.9731 8.75 19.9161L13.2498 11.8748C14.2811 10.0794 13.6664 7.78802 11.8749 6.74998C11.3077 6.4216 10.6637 6.24907 10.0083 6.25H19.2662C19.7528 7.44019 20.0019 8.71404 19.9995 9.99984Z" fill="#FFC107"/>
<path d="M13.2502 11.8751L8.7504 19.9164H8.74208C3.26623 19.2246 -0.611952 14.2247 0.0798914 8.7488C0.303827 6.97642 0.998757 5.29646 2.09238 3.88379L6.72549 11.8334L6.75049 11.8751C7.78369 13.67 10.0762 14.2874 11.8711 13.2542C12.4444 12.9242 12.9202 12.4484 13.2502 11.8751Z" fill="#4CAF50"/>
<path d="M13.2502 11.8748C12.217 13.6696 9.92442 14.287 8.12957 13.2539C7.55627 12.9239 7.08047 12.4481 6.75045 11.8748L6.72545 11.8331C5.71296 10.0265 6.35676 7.74118 8.16336 6.72869C8.72451 6.41421 9.3571 6.24938 10.0003 6.25H10.0086C10.664 6.24907 11.308 6.4216 11.8752 6.74998C13.6668 7.78806 14.2815 10.0794 13.2502 11.8748Z" fill="#F44336"/>
<path d="M13.2502 11.8748C12.217 13.6696 9.92442 14.287 8.12957 13.2539C7.55627 12.9239 7.08047 12.4481 6.75045 11.8748L6.72545 11.8331C5.71296 10.0265 6.35676 7.74118 8.16336 6.72869C8.72451 6.41421 9.3571 6.24938 10.0003 6.25H10.0086C10.664 6.24907 11.308 6.4216 11.8752 6.74998C13.6668 7.78806 14.2815 10.0794 13.2502 11.8748Z" fill="#2196F3"/>
<path d="M9.98549 14.1669C9.25904 14.1669 8.5454 13.9754 7.9164 13.612C7.28217 13.2451 6.75544 12.7181 6.38897 12.0837C5.23844 10.0909 5.92122 7.54274 7.91402 6.3922C8.54809 6.02613 9.26747 5.8336 9.99967 5.83399C12.3007 5.83219 14.1676 7.69617 14.1694 9.99724C14.1699 10.7297 13.9774 11.4494 13.6111 12.0837C12.8602 13.3747 11.4789 14.1683 9.98549 14.1669ZM10.0071 6.66727C8.81136 6.6609 7.7043 7.29732 7.10808 8.33387C6.18765 9.9299 6.73532 11.9699 8.33135 12.8903C9.92737 13.8108 11.9674 13.2631 12.8878 11.6671C13.8082 10.0729 13.262 8.03432 11.6678 7.11385C11.1631 6.82246 10.5907 6.66848 10.0079 6.66731H10.0071V6.66727Z" fill="#FAFAFA"/>
</g>
<defs>
<clipPath id="clip0">
<rect width="20" height="20" fill="white"/>
</clipPath>
</defs>
</svg>
