<svg width="30" height="37" viewBox="0 0 30 37" fill="none" xmlns="http://www.w3.org/2000/svg">
<path d="M19.2761 29.105L19.2849 25.9294L14.721 23.2943C14.6552 23.2562 14.5897 23.2162 14.5247 23.1744L14.5143 23.168C14.4515 23.128 14.3891 23.088 14.3268 23.0432C14.3052 23.0284 14.284 23.0128 14.2624 22.9976C14.2224 22.9685 14.18 22.9389 14.1392 22.9085C14.1136 22.8893 14.0885 22.8685 14.0633 22.8505C14.0261 22.8221 13.9893 22.7933 13.9529 22.7637C13.9262 22.7419 13.8996 22.7197 13.8729 22.6974C13.8377 22.6683 13.8027 22.6387 13.7678 22.6086C13.7411 22.5849 13.7145 22.561 13.6878 22.537C13.6534 22.5066 13.6193 22.4757 13.5854 22.4443C13.5582 22.4191 13.5311 22.3943 13.5055 22.3687C13.4711 22.3359 13.4371 22.3027 13.4031 22.2695C13.3783 22.2451 13.3531 22.2207 13.3283 22.1959C13.2927 22.16 13.2576 22.1236 13.2224 22.0868C13.2 22.0632 13.1772 22.04 13.1552 22.0164C13.1152 21.9724 13.0752 21.9276 13.0332 21.8825L12.9881 21.8325C12.9326 21.7696 12.878 21.7057 12.8241 21.6409C12.8117 21.6262 12.8001 21.611 12.7877 21.5962C12.7477 21.5454 12.7046 21.4942 12.6638 21.4426C12.6145 21.3797 12.566 21.316 12.5182 21.2515L12.4938 21.2195C12.4163 21.1143 12.3411 21.0064 12.2675 20.8972L12.2275 20.8372C12.135 20.6981 12.0461 20.5565 11.9608 20.4126L11.9281 20.3578C11.8686 20.256 11.8109 20.1531 11.7549 20.0491C11.7345 20.0112 11.7149 19.9732 11.6953 19.9352C11.6757 19.8972 11.6554 19.8552 11.633 19.8152C11.6046 19.7584 11.577 19.7017 11.5494 19.6445C11.5406 19.6261 11.5314 19.6077 11.5226 19.5893C11.488 19.5155 11.4542 19.4412 11.4214 19.3666C11.413 19.347 11.4046 19.3266 11.3967 19.3082C11.3727 19.2528 11.3492 19.1971 11.3263 19.1411L11.2955 19.0647C11.2744 19.0114 11.2538 18.9581 11.2335 18.9048C11.2247 18.8816 11.2159 18.858 11.2071 18.8348C11.1823 18.7668 11.1583 18.6987 11.1351 18.6305L11.126 18.6041C11.0993 18.5273 11.0748 18.4505 11.0524 18.3738C11.0448 18.3494 11.038 18.325 11.0312 18.3006C11.0156 18.247 11 18.1934 10.9856 18.1406C10.9776 18.1115 10.97 18.0823 10.9624 18.0531C10.9496 18.0035 10.9372 17.954 10.9252 17.9047C10.9183 17.8754 10.9115 17.8461 10.9048 17.8168C10.8932 17.766 10.8824 17.7152 10.872 17.6648C10.8664 17.638 10.8609 17.6108 10.8557 17.5849C10.8431 17.5198 10.8315 17.455 10.8209 17.3905C10.8209 17.3793 10.8169 17.3681 10.8153 17.3569C10.8033 17.2812 10.7926 17.2057 10.7833 17.1302C10.7809 17.1098 10.7789 17.0902 10.7765 17.069C10.7704 17.0144 10.7648 16.9599 10.7597 16.9055C10.7573 16.8799 10.7557 16.8543 10.7537 16.8291C10.7497 16.778 10.7469 16.7272 10.7445 16.6764C10.7445 16.6524 10.7421 16.628 10.7413 16.604C10.7389 16.532 10.7369 16.4605 10.7373 16.3897L10.7501 11.5115L10.3502 11.2812L8.3018 10.1C7.88157 9.84771 7.4186 9.67464 6.93591 9.58942V9.59222C6.93271 9.61701 6.93071 9.643 6.92791 9.66779C6.92511 9.69258 6.92191 9.72217 6.91951 9.75016C6.91951 9.76175 6.91711 9.77255 6.91592 9.78414C6.91272 9.82093 6.91112 9.85852 6.90912 9.8961C6.90912 9.9165 6.90632 9.93609 6.90552 9.95728V9.97207C6.90285 10.0353 6.90139 10.0994 6.90112 10.1644V10.176L6.87793 18.6285C6.87793 18.6882 6.87873 18.748 6.88033 18.808C6.88033 18.8196 6.88033 18.8308 6.88033 18.8424C6.88033 18.8668 6.88273 18.8916 6.88393 18.916C6.88513 18.9403 6.88593 18.9723 6.88793 19.0007C6.88793 19.0227 6.89152 19.0451 6.89312 19.0675C6.89472 19.0899 6.89712 19.1191 6.89952 19.1451C6.89952 19.1615 6.90192 19.1783 6.90352 19.1947C6.90712 19.2318 6.91192 19.2694 6.91592 19.307C6.91831 19.3278 6.92031 19.347 6.92271 19.3698L6.92511 19.3898C6.93364 19.4564 6.94311 19.5231 6.9535 19.5897V19.5953C6.9535 19.6065 6.9575 19.6181 6.9595 19.6293C6.9683 19.6833 6.97749 19.7373 6.98749 19.7916C6.98949 19.802 6.99189 19.8124 6.99389 19.8228C6.99908 19.85 7.00508 19.8772 7.01068 19.9028C7.01628 19.9284 7.02308 19.9664 7.02987 19.998C7.03387 20.0168 7.03867 20.0355 7.04307 20.0539C7.04973 20.083 7.05653 20.1122 7.06346 20.1415C7.06866 20.1635 7.07346 20.1855 7.07865 20.2071C7.08385 20.2287 7.09345 20.2627 7.10065 20.2902C7.10784 20.3178 7.11584 20.3486 7.12344 20.3774C7.12744 20.3914 7.13064 20.4054 7.13423 20.4174C7.14503 20.4574 7.15703 20.4974 7.16902 20.5374C7.17622 20.5617 7.18302 20.5861 7.19021 20.6105L7.19581 20.6305C7.21687 20.6996 7.239 20.7686 7.26219 20.8376V20.8412L7.27138 20.8676C7.29098 20.9256 7.31137 20.9836 7.33216 21.0416C7.33576 21.0516 7.33976 21.0616 7.34336 21.0716C7.35175 21.0947 7.36055 21.1175 7.36935 21.1407C7.38134 21.1731 7.39334 21.2051 7.40573 21.2375C7.41413 21.2591 7.42293 21.2803 7.43172 21.3019L7.46211 21.3774C7.46971 21.3954 7.47651 21.4138 7.4841 21.4318C7.4997 21.4694 7.51609 21.507 7.53249 21.5446C7.54088 21.5642 7.54888 21.5846 7.55768 21.603L7.56647 21.6234C7.59526 21.6881 7.62472 21.7528 7.65484 21.8173L7.65884 21.8261C7.66764 21.8445 7.67683 21.8629 7.68563 21.8813C7.70922 21.9304 7.73241 21.98 7.7568 22.0288L7.7688 22.052C7.78919 22.092 7.80878 22.132 7.83118 22.1719C7.84797 22.2043 7.86396 22.2367 7.88116 22.2687L7.89075 22.2859C7.94647 22.3899 8.00418 22.4928 8.06389 22.5946C8.06909 22.6034 8.07349 22.6122 8.07868 22.621C8.08388 22.6298 8.09108 22.6398 8.09668 22.6494C8.18198 22.7933 8.27088 22.9349 8.36338 23.074C8.36858 23.0816 8.37297 23.0896 8.37817 23.0976C8.38337 23.1056 8.39577 23.122 8.40416 23.1348C8.47774 23.2436 8.55251 23.3515 8.63048 23.4567L8.65327 23.4863C8.70125 23.5508 8.7499 23.6147 8.79922 23.6782L8.80761 23.689C8.8476 23.7378 8.88518 23.7858 8.92437 23.8333L8.95916 23.8761L8.96196 23.8793C9.01287 23.9406 9.06445 24.001 9.1167 24.0605L9.1231 24.0676L9.16828 24.1176C9.20267 24.1576 9.23745 24.1952 9.27224 24.2332L9.29023 24.252C9.31263 24.2756 9.33502 24.2988 9.35741 24.3224C9.3798 24.3459 9.40939 24.3775 9.43738 24.4047L9.46457 24.4319C9.48936 24.4567 9.51415 24.4811 9.53934 24.5055C9.56453 24.5299 9.58333 24.5499 9.60572 24.5711L9.6417 24.6046C9.66849 24.6302 9.69568 24.6554 9.72167 24.6802C9.74127 24.6982 9.76166 24.7166 9.78005 24.7342L9.82404 24.7742L9.90401 24.8458C9.9212 24.8606 9.93799 24.8761 9.95559 24.8905C9.97318 24.9049 9.99157 24.9197 10.0092 24.9341L10.0891 25.0005C10.1035 25.0121 10.1175 25.0241 10.1319 25.0357C10.1543 25.0533 10.1771 25.0701 10.1995 25.0873C10.2219 25.1045 10.2499 25.1273 10.2751 25.1448L10.3067 25.1688C10.337 25.1912 10.3682 25.2124 10.3986 25.2344C10.4198 25.2496 10.441 25.2652 10.4626 25.28L10.4798 25.2924C10.5358 25.3308 10.5922 25.3681 10.6489 25.4044L10.6577 25.41C10.7101 25.4431 10.7629 25.4755 10.8177 25.5067L10.8577 25.5295L17.8726 29.5812C17.915 29.6057 17.9573 29.6293 17.9994 29.652L18.0482 29.6772L18.1126 29.7104C18.1294 29.7188 18.1461 29.7279 18.1625 29.7363C18.1897 29.7499 18.2169 29.7619 18.2425 29.7763L18.2993 29.8031L18.3221 29.8139C18.3754 29.8379 18.4287 29.8604 18.482 29.8815L18.4884 29.8839C18.5399 29.9044 18.591 29.9236 18.642 29.9415L18.6636 29.9487L18.7223 29.9679C18.7487 29.9767 18.7755 29.9859 18.8023 29.9939L18.8423 30.0054L18.9131 30.025C18.9307 30.0298 18.9486 30.0354 18.9658 30.0398C18.983 30.0442 19.0058 30.0482 19.0238 30.0526L19.0942 30.0682L19.1298 30.0762L19.1654 30.0822C19.1918 29.9687 19.2137 29.8511 19.2305 29.7283C19.2594 29.5218 19.2746 29.3135 19.2761 29.105Z" fill="url(#paint0_linear)"/>
<path d="M15.3237 9.68502L10.4811 6.88886L9.69535 6.43503L8.31586 5.63853C3.96988 3.12986 0.421993 5.15191 0.407599 10.1457L0.384807 18.1967C0.370812 23.1948 3.8955 29.2973 8.24149 31.8064L15.2493 35.8521C19.5949 38.3612 23.1432 36.3407 23.1572 31.3454L23.1672 27.8019V27.4852L23.1791 23.2928C23.1943 18.2994 19.6692 12.1941 15.3237 9.68502ZM19.2858 25.7591V25.9278L19.277 29.1034C19.2766 29.3115 19.2626 29.5193 19.235 29.7256C19.2182 29.8483 19.195 29.9655 19.1698 30.0795C18.7536 31.8788 17.1582 32.485 15.2629 31.391L8.25429 27.3465C6.0487 26.0737 4.26017 22.9753 4.26737 20.4394L4.29016 12.3868C4.29536 10.5775 5.21461 9.53748 6.54292 9.55387C6.67516 9.55623 6.80705 9.56813 6.93757 9.58946C7.41972 9.67487 7.88212 9.84794 8.30187 10.1001L10.3479 11.2792L10.7478 11.5095L15.3117 14.1446C17.5164 15.4193 19.3062 18.5165 19.2978 21.0524L19.2858 25.7591Z" fill="url(#paint1_linear)"/>
<path d="M29.2283 19.3015C29.2283 19.2787 29.2259 19.2555 29.2251 19.2327C29.2251 19.1855 29.2207 19.1379 29.2183 19.0908C29.2155 19.0344 29.2139 18.9788 29.2103 18.922C29.2075 18.878 29.2031 18.8333 29.1995 18.7889C29.1959 18.7445 29.1919 18.6889 29.1875 18.6385C29.1847 18.6057 29.1827 18.5729 29.1795 18.5402C29.1723 18.4658 29.1631 18.391 29.1547 18.3166C29.1499 18.2767 29.1463 18.2367 29.1411 18.1967C29.1411 18.1835 29.1383 18.1703 29.1367 18.1567C29.1202 18.0255 29.1014 17.8939 29.0803 17.7616L29.0783 17.7501C29.0747 17.7273 29.0703 17.7045 29.0663 17.6817C29.0491 17.5761 29.0315 17.4706 29.0115 17.3646C29.0075 17.3434 29.0027 17.3226 28.9987 17.3014C28.9883 17.2482 28.9771 17.1951 28.9663 17.1415C28.9536 17.0787 28.942 17.0163 28.9264 16.9539C28.9184 16.9168 28.9088 16.8796 28.9004 16.8424C28.8873 16.7848 28.874 16.7272 28.8604 16.6697C28.85 16.6269 28.8412 16.5841 28.8304 16.5413C28.8168 16.4865 28.8012 16.4313 28.7872 16.3762C28.7732 16.321 28.7576 16.2618 28.742 16.2046C28.7348 16.1774 28.728 16.1502 28.7204 16.1247C28.6984 16.0447 28.6745 15.9671 28.6513 15.8883C28.6373 15.8412 28.6241 15.7936 28.6113 15.7464C28.6073 15.7336 28.6041 15.7208 28.6001 15.7064C28.5582 15.5702 28.5146 15.4341 28.4693 15.2982L28.4665 15.2902C28.4601 15.2714 28.4533 15.253 28.4469 15.2342C28.407 15.1214 28.3698 15.0083 28.327 14.8955C28.3198 14.8755 28.3118 14.8555 28.3046 14.8355C28.2878 14.7895 28.2702 14.7436 28.2526 14.6976C28.229 14.6348 28.2062 14.572 28.1818 14.5093C28.1654 14.4669 28.1479 14.4249 28.1307 14.3825C28.1107 14.3324 28.0905 14.2824 28.0703 14.2326C28.0559 14.197 28.0423 14.1614 28.0275 14.1262C27.9963 14.0514 27.9639 13.9775 27.9319 13.9031C27.9155 13.8631 27.8995 13.8267 27.8828 13.7883L27.866 13.7483C27.8094 13.6207 27.7515 13.4934 27.692 13.3665L27.684 13.3497C27.666 13.3097 27.6468 13.2737 27.6288 13.2353C27.5833 13.1398 27.5377 13.0442 27.4905 12.9494C27.4829 12.9342 27.4745 12.919 27.4669 12.9035C27.4269 12.8235 27.3869 12.7435 27.3442 12.6659C27.3114 12.6024 27.2794 12.5388 27.2458 12.4756C27.2394 12.464 27.2326 12.4528 27.2262 12.4408C27.1164 12.2364 27.0027 12.0338 26.8851 11.833C26.8751 11.8159 26.8663 11.7987 26.8563 11.7815C26.8267 11.7311 26.7956 11.6819 26.7656 11.6319C26.7152 11.5484 26.6652 11.4648 26.6136 11.382C26.5688 11.31 26.5233 11.2389 26.4777 11.1677C26.4253 11.0877 26.3733 11.005 26.3197 10.9242C26.3017 10.8966 26.2845 10.8686 26.2661 10.8414C26.2478 10.8142 26.2314 10.793 26.2146 10.7682C26.0694 10.5535 25.9219 10.3412 25.7691 10.1337L25.7671 10.1305C25.7523 10.1101 25.7363 10.0905 25.7216 10.0705C25.6272 9.94361 25.5315 9.81806 25.4345 9.69384L25.4177 9.67185C25.3417 9.57548 25.2641 9.48112 25.187 9.38636C25.1642 9.35877 25.1422 9.33038 25.1194 9.30279L25.1142 9.29639C25.0139 9.1759 24.9124 9.05701 24.8095 8.93972L24.7963 8.92533C24.7671 8.89174 24.7367 8.85975 24.7071 8.82656C24.6392 8.75059 24.5712 8.67382 24.502 8.59945L24.4668 8.56266C24.4228 8.51548 24.378 8.4695 24.3333 8.42271C24.2821 8.36913 24.2313 8.31435 24.1793 8.26277C24.1617 8.24478 24.1433 8.22758 24.1253 8.20959C24.0766 8.16041 24.0274 8.11243 23.9782 8.06405C23.929 8.01566 23.8914 7.97688 23.8474 7.93449C23.8239 7.9121 23.7999 7.89051 23.7763 7.86812C23.7231 7.81774 23.6695 7.76816 23.6163 7.71897C23.5763 7.68379 23.5404 7.6474 23.502 7.61261C23.4736 7.58702 23.4444 7.56263 23.4156 7.53704C23.3623 7.48933 23.3083 7.44214 23.2537 7.39549C23.2197 7.3663 23.1865 7.33592 23.1521 7.30713C23.1177 7.27834 23.0813 7.24995 23.0461 7.22076C22.9928 7.17704 22.9395 7.13372 22.8862 7.09081C22.8578 7.06802 22.8298 7.04402 22.801 7.02123C22.7567 6.98645 22.7119 6.95366 22.6675 6.91927C22.6231 6.88488 22.5683 6.8429 22.5187 6.80571C22.4979 6.79012 22.4788 6.77372 22.4564 6.75813C22.396 6.71375 22.3364 6.67176 22.274 6.62858C22.234 6.59899 22.1909 6.5686 22.1489 6.53981L22.1145 6.51542C22.0041 6.43972 21.8931 6.36628 21.7814 6.2951H21.779L21.7622 6.28471C21.6587 6.21913 21.5543 6.15475 21.4495 6.09318L21.3724 6.04839L14.3686 2.0027C14.2851 1.95445 14.202 1.90793 14.1191 1.86315C14.0871 1.84595 14.0555 1.83036 14.0235 1.81357L13.8959 1.74759C13.8632 1.7308 13.83 1.7128 13.7976 1.69641C13.7436 1.66962 13.6904 1.64603 13.6376 1.62084C13.6 1.60324 13.5629 1.58485 13.5257 1.56806L13.4805 1.54686C13.3739 1.49968 13.2691 1.4553 13.1662 1.41371L13.1502 1.40772C13.0499 1.36773 12.9503 1.33014 12.8507 1.29496L12.8051 1.27816C12.7652 1.26497 12.7284 1.25297 12.69 1.24058C12.6376 1.22338 12.5852 1.20499 12.5332 1.1894C12.5057 1.181 12.4785 1.1746 12.4509 1.16661C12.4045 1.15301 12.3585 1.14061 12.3121 1.12662C12.2773 1.11742 12.2422 1.10623 12.2078 1.09783C12.1734 1.08943 12.1322 1.08304 12.0938 1.07424C12.0478 1.06384 12.0014 1.05305 11.9559 1.04305C11.9327 1.03825 11.9087 1.03186 11.8855 1.02746C11.8411 1.01866 11.7979 1.01346 11.7535 1.00586C11.7004 0.996668 11.6468 0.987072 11.5936 0.979475C11.5764 0.977476 11.558 0.973477 11.5404 0.971078C11.4956 0.963081 11.4516 0.963081 11.4073 0.957483C11.3505 0.951085 11.2937 0.944688 11.2377 0.940289C11.2221 0.940289 11.2057 0.936691 11.1901 0.935491C11.1502 0.932692 11.1138 0.933492 11.075 0.931493C11.0074 0.928294 10.9406 0.925495 10.8735 0.923096C10.8555 0.923096 10.8371 0.923096 10.8191 0.923096C10.7899 0.923096 10.7619 0.926694 10.7327 0.927094C10.6487 0.927094 10.5656 0.932692 10.4836 0.93869C10.4592 0.93869 10.434 0.93869 10.41 0.942289C10.3744 0.945487 10.3401 0.950685 10.3049 0.954684L10.2289 0.963081C10.1365 0.975476 10.045 0.989471 9.955 1.00786L9.945 1.01106C9.91821 1.01666 9.89222 1.02386 9.86503 1.02986C9.79186 1.04625 9.71909 1.06344 9.64791 1.08344C9.61153 1.09383 9.57634 1.10583 9.54035 1.11742C9.49437 1.13182 9.44759 1.14461 9.40201 1.16101C9.39001 1.16501 9.37881 1.171 9.36722 1.175C9.29604 1.20099 9.22727 1.23018 9.1581 1.26017C9.12451 1.27457 9.09012 1.28776 9.05733 1.30295C8.95657 1.35014 8.85741 1.40092 8.76184 1.4565L4.90527 3.69567C5.00124 3.64009 5.1 3.58931 5.20036 3.54212C5.23355 3.52653 5.26794 3.51373 5.30153 3.49894C5.3703 3.46895 5.43948 3.43976 5.51025 3.41377C5.56703 3.39298 5.62501 3.37379 5.68338 3.35619C5.71937 3.345 5.75456 3.3326 5.79094 3.32221C5.86212 3.30221 5.93529 3.28502 6.00806 3.26863C6.03445 3.26263 6.06045 3.25543 6.08803 3.24983C6.1812 3.23104 6.27597 3.21584 6.37193 3.20305C6.39712 3.19985 6.42271 3.19705 6.4479 3.19425C6.50708 3.18746 6.56786 3.18266 6.62664 3.17826C6.7086 3.17186 6.79177 3.16826 6.87574 3.16626C6.92252 3.16626 6.96891 3.16346 7.01609 3.16386C7.08247 3.16386 7.15004 3.16746 7.21602 3.17066C7.27 3.17306 7.32398 3.17506 7.37876 3.17946C7.43354 3.18386 7.49151 3.19065 7.54829 3.19665C7.60507 3.20265 7.67225 3.21025 7.73542 3.21904C7.7882 3.22664 7.84138 3.23624 7.89536 3.24543C7.96254 3.25703 8.02971 3.26863 8.09769 3.28302C8.14327 3.29262 8.18966 3.30301 8.23564 3.31381C8.30814 3.3306 8.38105 3.34873 8.45436 3.36819C8.50034 3.38058 8.54672 3.39298 8.59271 3.40817C8.67268 3.43097 8.75265 3.45616 8.83262 3.48215C8.8726 3.49454 8.90899 3.50654 8.94737 3.51973C9.06093 3.55972 9.17489 3.5997 9.29005 3.64649L9.30604 3.65248C9.426 3.70047 9.54595 3.75285 9.66591 3.80763C9.70309 3.82442 9.74028 3.84281 9.77787 3.86041C9.86397 3.90092 9.95047 3.94318 10.0374 3.98716C10.0798 4.00875 10.1223 4.03074 10.1649 4.05313C10.2793 4.11351 10.394 4.17509 10.5096 4.24186L17.5198 8.28796C17.6501 8.36313 17.7797 8.44164 17.9085 8.52348L17.9268 8.53467C18.0508 8.61464 18.174 8.69461 18.2963 8.78058C18.3383 8.80977 18.3799 8.84016 18.4215 8.86975C18.5014 8.92773 18.585 8.9865 18.6662 9.04688C18.7158 9.08407 18.7649 9.12205 18.8145 9.16004C18.8878 9.21628 18.9609 9.2736 19.0336 9.33198C19.0869 9.37463 19.1403 9.41781 19.1936 9.46153C19.2631 9.51911 19.3323 9.57748 19.4011 9.63666C19.4544 9.68331 19.5077 9.73036 19.561 9.77781C19.6285 9.83752 19.6951 9.89817 19.761 9.95974C19.8145 10.0089 19.8681 10.0585 19.9209 10.1089C19.9889 10.1733 20.0565 10.2388 20.1236 10.3048C20.1724 10.3528 20.2216 10.4008 20.27 10.4496C20.3399 10.5199 20.4087 10.5919 20.4779 10.6639C20.5227 10.7107 20.5675 10.7566 20.6118 10.8042C20.6918 10.8906 20.7718 10.979 20.8518 11.0673C20.8813 11.1005 20.9117 11.1329 20.9413 11.1665C21.0504 11.2904 21.158 11.4164 21.2644 11.5444C21.2872 11.5719 21.3092 11.6003 21.332 11.6279C21.4151 11.7295 21.4983 11.8314 21.5795 11.9354C21.6765 12.0594 21.7721 12.1849 21.8662 12.3121C21.8818 12.3333 21.8982 12.3521 21.9142 12.3752C22.0669 12.5828 22.2149 12.7951 22.3596 13.0094C22.3948 13.0614 22.4304 13.1134 22.4648 13.1658C22.5179 13.2457 22.5703 13.3277 22.6227 13.4093C22.6683 13.4804 22.7139 13.5516 22.7587 13.6236C22.8102 13.7064 22.8602 13.7899 22.9106 13.8735C22.9506 13.9403 22.9906 14.007 23.0306 14.0734C23.1478 14.2741 23.2615 14.4769 23.3716 14.6816C23.4116 14.756 23.4516 14.8307 23.4888 14.9051C23.526 14.9795 23.5719 15.065 23.6119 15.145C23.6671 15.255 23.7211 15.3657 23.7739 15.4765C23.7923 15.5165 23.8111 15.5525 23.8291 15.5909C23.8973 15.7361 23.9639 15.8827 24.029 16.0307C24.0458 16.0707 24.0622 16.1079 24.0786 16.1466C24.1257 16.2559 24.1719 16.3656 24.2169 16.4757C24.2374 16.5258 24.2576 16.5758 24.2773 16.6257C24.3191 16.7307 24.3591 16.8359 24.3972 16.9412C24.4144 16.9871 24.432 17.0331 24.4492 17.0791C24.4977 17.2124 24.5445 17.3457 24.5896 17.479C24.596 17.4973 24.6028 17.5161 24.6092 17.5345C24.6598 17.6859 24.7081 17.8374 24.7539 17.9888C24.7683 18.0363 24.7815 18.0839 24.7939 18.1315C24.8251 18.2371 24.8555 18.3426 24.8839 18.4482C24.8995 18.5058 24.9143 18.5634 24.9294 18.6213C24.9548 18.7186 24.979 18.8159 25.0022 18.9132C25.0161 18.9711 25.0294 19.0288 25.0422 19.0864C25.0649 19.1861 25.0862 19.2857 25.1062 19.3854C25.117 19.4386 25.1282 19.4918 25.1386 19.5454C25.1631 19.6725 25.1856 19.7993 25.2061 19.9256C25.2097 19.9484 25.2145 19.9712 25.2181 19.994C25.2419 20.1433 25.2628 20.292 25.2809 20.4403C25.2861 20.4802 25.2897 20.5202 25.2945 20.5602C25.3068 20.6668 25.3177 20.7741 25.3273 20.8821C25.3317 20.9325 25.3357 20.9825 25.3393 21.0324C25.3468 21.1332 25.3529 21.2336 25.3577 21.3335C25.3601 21.3811 25.3625 21.4287 25.3645 21.4763C25.3697 21.6178 25.3729 21.7586 25.3725 21.8985L25.3497 29.9511C25.3497 30.0979 25.3453 30.2414 25.3389 30.383C25.3389 30.4229 25.3337 30.4629 25.3317 30.5029C25.3261 30.6001 25.3197 30.6964 25.3109 30.7912C25.3061 30.846 25.3001 30.8996 25.2941 30.9536C25.2853 31.0335 25.2761 31.1135 25.2653 31.1935C25.2573 31.251 25.2489 31.3074 25.2397 31.3638C25.2283 31.4363 25.2159 31.5079 25.2025 31.5785C25.1905 31.6417 25.178 31.7042 25.165 31.7661C25.1519 31.8279 25.1375 31.8907 25.1218 31.9544C25.1042 32.0272 25.0855 32.0989 25.0658 32.1695C25.0502 32.2251 25.0346 32.2803 25.0178 32.3346C24.9918 32.419 24.9642 32.5014 24.9354 32.5829C24.9195 32.6277 24.9043 32.6729 24.8879 32.7169C24.8355 32.8544 24.7799 32.9884 24.7191 33.1167C24.6719 33.2167 24.6228 33.3143 24.5708 33.4082C24.5652 33.4186 24.5584 33.4282 24.5528 33.4386C24.5052 33.5234 24.456 33.6058 24.4048 33.6857C24.3924 33.7049 24.3792 33.7233 24.3649 33.7425C24.3217 33.8073 24.2773 33.8706 24.2317 33.9324C24.2129 33.9576 24.1937 33.9828 24.1745 34.0076C24.1303 34.0647 24.0848 34.1201 24.0382 34.174C24.021 34.1943 24.0038 34.2139 23.9862 34.2347C23.9226 34.3059 23.857 34.3751 23.7895 34.4407C23.7791 34.4507 23.7679 34.4603 23.7575 34.4702C23.6994 34.5254 23.6399 34.5787 23.5791 34.6302C23.5568 34.649 23.5336 34.6674 23.5108 34.6858C23.4575 34.7282 23.4041 34.7689 23.3508 34.8081C23.328 34.8245 23.3056 34.8413 23.2825 34.8569C23.2061 34.9093 23.1285 34.9597 23.0485 35.006L26.9047 32.7669C26.9847 32.7205 27.0623 32.6701 27.139 32.6177C27.1622 32.6021 27.1846 32.5853 27.207 32.569C27.2616 32.5298 27.315 32.489 27.3669 32.4466C27.3897 32.4282 27.4129 32.4098 27.4353 32.391C27.4964 32.3398 27.5561 32.2865 27.6144 32.2311C27.6248 32.2215 27.6356 32.2123 27.6456 32.2023C27.7132 32.1367 27.7788 32.0675 27.8424 31.9964C27.86 31.9764 27.8772 31.9564 27.8947 31.9352C27.9411 31.8819 27.9866 31.8264 28.0311 31.7688C28.0503 31.7441 28.0711 31.7189 28.0883 31.6937C28.1339 31.6321 28.1781 31.5689 28.221 31.5041C28.2338 31.485 28.247 31.4666 28.261 31.447L28.273 31.4294C28.3202 31.3554 28.3646 31.2786 28.4086 31.2011C28.4146 31.1903 28.4214 31.1807 28.4273 31.1699C28.4775 31.0792 28.5253 30.9859 28.5709 30.89L28.5757 30.8784C28.6365 30.75 28.6921 30.6161 28.7444 30.4785C28.7492 30.4661 28.7548 30.4549 28.7596 30.4425C28.7712 30.411 28.7808 30.377 28.792 30.345C28.8208 30.265 28.8488 30.1806 28.8748 30.0963C28.882 30.0731 28.8904 30.0515 28.8972 30.0283C28.9064 29.9971 28.9136 29.9635 28.9224 29.9319C28.9421 29.861 28.9609 29.7892 28.9787 29.7164C28.9859 29.686 28.9951 29.6576 29.0019 29.6268C29.0087 29.5961 29.0147 29.5613 29.0215 29.5289C29.0349 29.4668 29.0475 29.404 29.0595 29.3405C29.0659 29.3074 29.0735 29.2754 29.0795 29.2418C29.0855 29.2082 29.0907 29.1646 29.0967 29.1266C29.1055 29.0703 29.1143 29.0135 29.1223 28.9559C29.1263 28.9259 29.1319 28.8971 29.1355 28.8667C29.1415 28.8179 29.1455 28.7672 29.1511 28.718C29.1567 28.6688 29.1631 28.61 29.1679 28.5548C29.1699 28.5325 29.1731 28.5109 29.1747 28.4885C29.1807 28.4165 29.1839 28.3417 29.1883 28.2681C29.1907 28.2282 29.1939 28.1882 29.1959 28.1482C29.1959 28.1382 29.1959 28.1286 29.1959 28.1186C29.2012 27.9941 29.2041 27.8676 29.2047 27.7391V27.7168L29.2275 19.6641C29.2315 19.5407 29.2317 19.4198 29.2283 19.3015Z" fill="url(#paint2_linear)"/>
<defs>
<linearGradient id="paint0_linear" x1="6.87793" y1="19.8352" x2="19.2849" y2="19.8352" gradientUnits="userSpaceOnUse">
<stop stop-color="#FFAA55"/>
<stop offset="1" stop-color="#E661C9"/>
</linearGradient>
<linearGradient id="paint1_linear" x1="0.384807" y1="20.7457" x2="23.1803" y2="20.7457" gradientUnits="userSpaceOnUse">
<stop stop-color="#00D2C9"/>
<stop offset="1" stop-color="#E661C9"/>
</linearGradient>
<linearGradient id="paint2_linear" x1="279.977" y1="1453.27" x2="1759.93" y2="1453.27" gradientUnits="userSpaceOnUse">
<stop stop-color="#FFAA55"/>
<stop offset="1" stop-color="#E661C9"/>
</linearGradient>
</defs>
</svg>
