<svg width="34" height="35" viewBox="0 0 34 35" fill="none" xmlns="http://www.w3.org/2000/svg">
<g clip-path="url(#clip0_314_20191)">
<path d="M31.861 24.2364L29.8217 31.1294L25.8191 30.0353L31.861 24.2364Z" fill="#E4761B"/>
<path d="M29.8275 31.1392L29.8205 31.1378L25.8066 30.0395L25.8151 30.0311L31.8751 24.214L31.8681 24.2393L29.8275 31.1392ZM25.8347 30.0325L29.8191 31.1224L31.8484 24.2604L25.8347 30.0325Z" fill="#E4761B"/>
<path d="M25.8206 30.0353L29.6814 24.7462L31.8625 24.2364L25.8206 30.0353Z" fill="#E4761B"/>
<path d="M25.825 30.0409L25.8137 30.0311L29.6759 24.7393H29.6787L31.8851 24.2238L25.825 30.0409ZM29.6858 24.7533L25.8741 29.9763L31.8388 24.2505L29.6858 24.7533Z" fill="#E4761B"/>
<path d="M28.8628 19.0399L31.8627 24.2377L29.6816 24.7475L28.8628 19.0399ZM28.8628 19.0399L30.7925 17.7029L31.8627 24.2377L28.8628 19.0399Z" fill="#F6851B"/>
<path d="M29.6743 24.7546L29.6729 24.7476L28.8541 19.0414L28.8513 19.0372L28.8569 19.033L30.7965 17.6903L30.7979 17.7015L31.8666 24.235L31.8709 24.242L29.6743 24.7546ZM28.8738 19.0751L29.687 24.7378L31.8512 24.2322L28.8738 19.0751ZM28.871 19.0414L31.8484 24.1999L30.7866 17.7142L28.871 19.0414Z" fill="#F6851B"/>
<path d="M26.405 15.1118L31.954 12.8394L31.6787 14.0837L26.405 15.1118ZM31.5031 15.5808L26.4064 15.1132L31.6787 14.0851L31.5031 15.5808Z" fill="#763D16"/>
<path d="M31.5087 15.5879H31.5017L26.405 15.1202V15.1118L26.4036 15.1061L31.9637 12.8281L31.6857 14.0865L31.5087 15.5879ZM26.4555 15.1104L31.4975 15.5738L31.6716 14.0949L26.4555 15.1104ZM31.9441 12.8506L26.4738 15.0921L31.6716 14.0795L31.9441 12.8506Z" fill="#763D16"/>
<path d="M31.5029 15.5808L30.7922 17.7029L26.4048 15.1118L31.5029 15.5808ZM32.6138 13.366L31.6785 14.0851L31.9537 12.8408L32.6138 13.366ZM31.5029 15.5808L31.6785 14.0851L32.4228 14.7031L31.5029 15.5808Z" fill="#763D16"/>
<path d="M30.7966 17.7127L30.7896 17.7085L26.4021 15.1187L26.4063 15.1061L31.496 15.5738L31.6687 14.1019L31.6659 14.1033L31.6702 14.0851L31.6716 14.0724L31.673 14.0739L31.9482 12.8295L32.6238 13.3688L31.6884 14.0879L32.4314 14.7058L32.4257 14.7115L31.5072 15.5878L30.7966 17.7127ZM26.4358 15.1215L30.7882 17.6916L31.4932 15.5864L26.4358 15.1215ZM31.6828 14.0977L31.5114 15.5611L32.4103 14.703L31.6828 14.0977ZM31.9581 12.852L31.6884 14.0668L32.6013 13.366L31.9581 12.852Z" fill="#763D16"/>
<path d="M21.5171 28.3548L22.9047 28.7972L25.8203 30.0346L21.5171 28.3548Z" fill="#E2761B"/>
<path d="M25.8178 30.0423L21.5146 28.3625L21.5189 28.3499L22.9064 28.7923L25.8235 30.0297L25.8178 30.0423ZM21.7267 28.4299L25.3712 29.8527L22.9008 28.8049L21.7267 28.4299Z" fill="#E2761B"/>
<path d="M30.792 17.7029L31.5027 15.5808L32.1122 16.0485L30.792 17.7029ZM30.792 17.7029L25.0352 15.8055L26.4059 15.1117L30.792 17.7029Z" fill="#763D16"/>
<path d="M30.7895 17.7101L25.0159 15.8084L26.4049 15.1061L26.4077 15.1075L30.7867 17.6932L31.4973 15.5696L32.1209 16.0485L32.1167 16.0542L30.7965 17.7087L30.7909 17.7058L30.7895 17.7101ZM25.0538 15.8042L30.7333 17.6749L26.4063 15.1202L25.0538 15.8042ZM31.5058 15.5921L30.8106 17.6679L32.1013 16.0499L31.5058 15.5921Z" fill="#763D16"/>
<path d="M27.7754 8.60358L26.4047 15.1131L25.0339 15.8069L27.7754 8.60358Z" fill="#763D16"/>
<path d="M25.0212 15.821L25.0283 15.8041L27.7683 8.60077L27.7824 8.60498L26.4116 15.1174L26.4088 15.1188L25.0212 15.821ZM27.7501 8.68925L25.0479 15.7915L26.399 15.1075L27.7501 8.68925Z" fill="#763D16"/>
<path d="M31.9537 12.8394L26.4048 15.1117L27.7755 8.60217L31.9537 12.8394Z" fill="#763D16"/>
<path d="M26.3948 15.1244L27.7711 8.58954L27.781 8.59937L31.9662 12.8436L31.9563 12.8478L26.3948 15.1244ZM27.7796 8.61763L26.4144 15.1005L31.9409 12.8366L27.7796 8.61763Z" fill="#763D16"/>
<path d="M27.7756 8.60359L33.5661 7.93507L31.9538 12.8394L27.7756 8.60359Z" fill="#763D16"/>
<path d="M31.9569 12.852L31.9485 12.8436L27.7605 8.59656L33.5762 7.92523L31.9569 12.852ZM27.7914 8.6092L31.9513 12.8268L33.5565 7.94349L27.7914 8.6092Z" fill="#763D16"/>
<path d="M30.7925 17.703L28.8628 19.04L25.0356 15.807L30.7925 17.703Z" fill="#F6851B"/>
<path d="M28.8613 19.0484L28.8571 19.0456L25.03 15.8126L25.0371 15.7999L30.8079 17.7015L30.7967 17.71L28.8613 19.0484ZM25.068 15.8238L28.8627 19.0301L30.777 17.7043L25.068 15.8238Z" fill="#F6851B"/>
<path d="M33.3161 3.2471L33.5661 7.93511L27.7756 8.60363L33.3161 3.2471Z" fill="#763D16"/>
<path d="M27.7561 8.61202L33.3219 3.23021L33.5733 7.93929L33.5663 7.94069L27.7561 8.61202ZM33.3093 3.26251L27.7954 8.59376L33.5592 7.92805L33.3093 3.26251Z" fill="#763D16"/>
<path d="M33.3158 3.24709L21.7432 11.661L21.5916 5.95482L33.3158 3.24709Z" fill="#E2761B"/>
<path d="M21.7362 11.6751V11.6611L21.5859 5.94783L21.5916 5.94643L33.3131 3.24008L33.3187 3.25272L21.7362 11.6751ZM21.6 5.96047L21.7503 11.6484L33.285 3.26255L21.6 5.96047Z" fill="#E2761B"/>
<path d="M12.9851 5.26949L21.5915 5.95486L21.7418 11.6625L12.9851 5.26949Z" fill="#F6851B"/>
<path d="M21.7504 11.6751L21.7392 11.6667L12.9614 5.25961L12.9867 5.26102L21.6001 5.94638V5.952L21.7504 11.6751ZM13.0106 5.27787L21.7364 11.647L21.5861 5.96043L13.0106 5.27787Z" fill="#F6851B"/>
<path d="M25.0359 15.8056L21.7439 11.6611L27.7774 8.60219L25.0359 15.8056Z" fill="#763D16"/>
<path d="M25.0371 15.8196L25.03 15.8098L21.7324 11.6582L21.7394 11.654L27.7884 8.58813L27.7813 8.60499L25.0371 15.8196ZM21.7535 11.6639L25.0329 15.7915L27.7631 8.61763L21.7535 11.6639Z" fill="#763D16"/>
<path d="M25.0358 15.8055L28.8629 19.0386L23.4895 19.6312L25.0358 15.8055Z" fill="#E4761B"/>
<path d="M23.478 19.6412L25.0313 15.7943L25.0384 15.7999L28.8781 19.0443L23.478 19.6412ZM25.0384 15.8182L23.5005 19.6257L28.8458 19.0358L25.0384 15.8182Z" fill="#E4761B"/>
<path d="M23.4883 19.6321L21.7427 11.6605L25.0346 15.805L23.4883 19.6321Z" fill="#E4761B"/>
<path d="M23.4878 19.6565L23.4836 19.6341L21.7378 11.6625L21.7504 11.6568L25.0453 15.8042L25.0439 15.8084L23.4878 19.6565ZM21.7561 11.6891L23.4906 19.6088L25.0271 15.807L21.7561 11.6891Z" fill="#E4761B"/>
<path d="M27.7754 8.60355L21.7419 11.6624L33.3145 3.24843L27.7754 8.60355Z" fill="#763D16"/>
<path d="M21.7463 11.668L21.7393 11.6554L33.3118 3.24142L33.3202 3.25266L27.7797 8.60918H27.7783L21.7463 11.668ZM33.2388 3.31165L21.8179 11.6147L27.7713 8.59654L33.2388 3.31165Z" fill="#763D16"/>
<path d="M13.0606 29.9012L15.7936 32.7508L12.0747 29.3661L13.0606 29.9012Z" fill="#C0AD9E"/>
<path d="M15.7888 32.7571L12.0698 29.3724L12.0783 29.3612L13.0656 29.8963L13.067 29.8977L15.8 32.7473L15.7888 32.7571ZM12.1232 29.4005L15.6455 32.6068L13.0571 29.9075L12.1232 29.4005Z" fill="#C0AD9E"/>
<path d="M25.8206 30.0353L27.1154 25.1141L29.6814 24.7461L25.8206 30.0353Z" fill="#CD6116"/>
<path d="M25.8264 30.0395L25.8137 30.0339L27.11 25.1071H27.1142L29.6956 24.7378L25.8264 30.0395ZM27.1213 25.1212L25.8362 30.0016L29.6647 24.756L27.1213 25.1212Z" fill="#CD6116"/>
<path d="M1.98071 16.1898L6.70946 11.2181L2.59024 15.5971L1.98071 16.1898Z" fill="#E2761B"/>
<path d="M1.98591 16.196L1.97607 16.1861L6.70479 11.2144L6.71462 11.2243L2.59543 15.6033L1.98591 16.196ZM4.95628 13.0739L2.23589 15.9333L2.587 15.5921L4.95628 13.0739Z" fill="#E2761B"/>
<path d="M29.6806 24.7453L27.1147 25.1133L28.8604 19.0391L29.6806 24.7453ZM21.7413 11.6603L17.1375 11.51L12.9846 5.26869L21.7413 11.6603Z" fill="#F6851B"/>
<path d="M27.1056 25.1225L27.1084 25.1127L28.8541 19.0385L28.8682 19.0399L29.6884 24.7532L29.6814 24.7546L27.1056 25.1225ZM28.8598 19.0722L27.1253 25.1043L29.6729 24.7391L28.8598 19.0722ZM21.7659 11.6694L21.7435 11.668L17.1355 11.5177L17.1341 11.5149L12.9797 5.27361L12.9896 5.26378L21.7659 11.6694ZM17.1425 11.5037L21.7196 11.6526L13.0134 5.29749L17.1425 11.5037Z" fill="#F6851B"/>
<path d="M28.8622 19.0399L27.1165 25.1141L26.9746 22.148L28.8622 19.0399Z" fill="#E4751F"/>
<path d="M27.1222 25.1156L27.1082 25.1142L26.9663 22.1451L26.9677 22.1437L28.8567 19.0356L28.8693 19.0413L27.1222 25.1156ZM26.9804 22.1493L27.1208 25.0706L28.8412 19.0876L26.9804 22.1493Z" fill="#E4751F"/>
<path d="M23.4895 19.6326L28.8629 19.04L26.9739 22.148L23.4895 19.6326Z" fill="#CD6116"/>
<path d="M26.9751 22.1578L26.9695 22.1536L23.4709 19.6283L28.8767 19.0314L26.9751 22.1578ZM23.5075 19.6382L26.9709 22.1382L28.8486 19.0483L23.5075 19.6382Z" fill="#CD6116"/>
<path d="M17.1382 11.5108L21.7419 11.6611L23.4877 19.6327L17.1382 11.5108Z" fill="#F6851B"/>
<path d="M23.4835 19.637L17.1243 11.5038H17.1397L21.749 11.654L21.7504 11.6596L23.4961 19.6313L23.4835 19.637ZM17.1538 11.5192L23.4764 19.6047L21.7378 11.6681L17.1538 11.5192Z" fill="#F6851B"/>
<path d="M17.1382 11.5108L4.71316 0.0140686L12.9853 5.26948L17.1382 11.5108ZM12.9769 31.649L2.18096 34.9916L0.0251465 26.7616L12.9769 31.649Z" fill="#E4761B"/>
<path d="M2.17687 35L2.17547 34.993L0.0168457 26.7489L0.0294856 26.7532L12.9995 31.649L12.9798 31.6546L2.17687 35ZM0.0365078 26.7714L2.1867 34.9818L12.9559 31.6476L0.0365078 26.7714ZM17.1341 11.5164L4.70907 0.0182698L4.7175 0.0070343L12.991 5.26385L12.9924 5.26525L17.1454 11.5066L17.1341 11.5164ZM4.77508 0.0604029L17.1004 11.4658L12.9812 5.27508L4.77508 0.0604029Z" fill="#E4761B"/>
<path d="M3.58521 18.2465L7.66229 15.0457L11.0793 15.8393L3.58521 18.2465Z" fill="#763D16"/>
<path d="M3.58832 18.2521L3.5813 18.2394L7.66119 15.0373L11.1063 15.8379L11.0824 15.8463L3.58832 18.2521ZM7.66541 15.0528L3.62062 18.2268L11.0543 15.8407L7.66541 15.0528Z" fill="#763D16"/>
<path d="M11.0811 15.8393L7.66406 15.0457L9.49405 7.49268L11.0811 15.8393Z" fill="#763D16"/>
<path d="M11.0893 15.8491L7.65405 15.0514L7.65546 15.0443L9.48544 7.49127H9.49948L11.0893 15.8491ZM7.67231 15.0401L11.0725 15.8294L9.49246 7.52498L7.67231 15.0401Z" fill="#763D16"/>
<path d="M2.59082 15.5963L7.66224 15.0443L3.58516 18.245L2.59082 15.5963Z" fill="#763D16"/>
<path d="M3.58248 18.2577L3.57968 18.2493L2.58252 15.5921L2.59095 15.5907L7.68768 15.0359L7.66802 15.0514L3.58248 18.2577ZM2.60078 15.6033L3.5881 18.2352L7.63993 15.0556L2.60078 15.6033Z" fill="#763D16"/>
<path d="M26.9727 22.1473L24.8674 21.0855L23.4883 19.6319L26.9727 22.1473Z" fill="#CD6116"/>
<path d="M26.9706 22.1536L24.864 21.0918L24.8626 21.0904L23.4834 19.6368L23.4932 19.627L26.9776 22.1424L26.9706 22.1536ZM24.8724 21.0806L26.8976 22.1016L23.5452 19.6818L24.8724 21.0806Z" fill="#CD6116"/>
<path d="M2.59098 15.5963L2.23145 13.6989L7.66238 15.0443L2.59098 15.5963Z" fill="#763D16"/>
<path d="M2.58549 15.6047L2.22314 13.6904L2.23438 13.6932L7.66535 15.0387L7.66395 15.0527L2.58549 15.6047ZM2.2414 13.7101L2.59813 15.5892L7.62463 15.0429L2.2414 13.7101Z" fill="#763D16"/>
<path d="M24.4333 23.4766L24.8673 21.0862L26.9726 22.148L24.4333 23.4766Z" fill="#233447"/>
<path d="M24.4233 23.4892L24.4261 23.4752L24.8629 21.0764L26.9891 22.148L26.9765 22.155L24.4233 23.4892ZM24.8727 21.0975L24.443 23.4639L26.9582 22.148L24.8727 21.0975Z" fill="#233447"/>
<path d="M27.1156 25.1141L24.4331 23.4766L26.9737 22.148L27.1156 25.1141Z" fill="#F6851B"/>
<path d="M27.1225 25.1268L27.1112 25.1198L24.4189 23.4752L24.4302 23.4696L26.9806 22.1353V22.1466L27.1225 25.1268ZM24.447 23.4766L27.107 25.1015L26.9666 22.1592L24.447 23.4766Z" fill="#F6851B"/>
<path d="M7.66267 15.0457L2.2317 13.7003L1.78931 12.1049L7.66267 15.0457ZM9.49265 7.49127L7.66267 15.0443L1.78931 12.1049L9.49265 7.49127ZM9.49265 7.49127L17.1384 11.5108L11.0811 15.8393L9.49265 7.49127Z" fill="#763D16"/>
<path d="M11.0753 15.8519L11.0739 15.8406L9.49253 7.52497L7.66817 15.0556L7.66115 15.0513L2.22597 13.7059L1.78357 12.1091L1.77515 12.1048L1.78217 12.1006L1.77936 12.0908L1.7906 12.0964L9.48691 7.48845L9.48551 7.47862L9.49534 7.48424L9.50658 7.47722L9.50377 7.48845L17.1551 11.5108L11.0753 15.8519ZM9.50236 7.50531L11.0852 15.828L17.1242 11.5122L9.50236 7.50531ZM1.80324 12.1034L7.65834 15.0345L9.4827 7.50531L1.80324 12.1034ZM2.23721 13.6947L7.60356 15.0233L1.80043 12.1175L2.23721 13.6947Z" fill="#763D16"/>
<path d="M11.0811 15.8392L17.1384 11.5108L19.8377 19.7576L11.0811 15.8392ZM19.8377 19.7576L11.4659 19.5821L11.0811 15.8392L19.8377 19.7576Z" fill="#E4761B"/>
<path d="M19.8489 19.7717L19.8363 19.7661L11.4588 19.5905V19.5849L11.0754 15.8448L11.0684 15.842L11.0754 15.8378L11.074 15.8294L11.081 15.8322L17.144 11.5009L19.8489 19.7717ZM11.4714 19.5765L19.8026 19.7506L11.088 15.8505L11.4714 19.5765ZM11.095 15.8378L19.8264 19.745L17.1355 11.522L11.095 15.8378Z" fill="#E4761B"/>
<path d="M3.58569 18.2459L11.0812 15.8387L11.466 19.5815L3.58569 18.2459ZM23.4894 19.6321L19.8378 19.7571L17.1385 11.5102L23.4894 19.6321Z" fill="#F6851B"/>
<path d="M19.8322 19.7661L19.8308 19.7604L17.1314 11.5136L17.1441 11.5066L23.5034 19.6397H23.4893L19.8322 19.7661ZM17.1581 11.5473L19.8434 19.752L23.4753 19.627L17.1581 11.5473ZM11.473 19.5905L11.4645 19.5891L3.58563 18.2521L3.58423 18.238L11.0881 15.8294L11.473 19.5905ZM3.61513 18.2436L11.4575 19.5736L11.0755 15.8477L3.61513 18.2436Z" fill="#F6851B"/>
<path d="M24.8681 21.0862L24.4341 23.4766L23.4902 19.6326L24.8681 21.0862Z" fill="#CD6116"/>
<path d="M24.4259 23.478L23.4751 19.6088L24.8739 21.0848V21.0876L24.4399 23.478H24.4259ZM23.5018 19.6565L24.4315 23.4429L24.8599 21.089L23.5018 19.6565Z" fill="#CD6116"/>
<path d="M4.7124 0.0133209L17.1375 11.5115L9.49171 7.49055L4.7124 0.0133209Z" fill="#763D16"/>
<path d="M17.1357 11.5178L9.48849 7.4969L9.48708 7.4955L4.70776 0.0168647L4.719 0.00843811L17.1441 11.5066L17.1357 11.5178ZM9.49832 7.48707L17.095 11.4813L4.74849 0.056189L9.49832 7.48707Z" fill="#763D16"/>
<path d="M0.0266113 26.7602L10.5051 26.3263L12.9783 31.649L0.0266113 26.7602Z" fill="#E4761B"/>
<path d="M12.9909 31.6616L12.9754 31.656L0.0236816 26.7686L0.0264905 26.7545L10.5092 26.3192L10.5106 26.3234L12.9909 31.6616ZM0.060197 26.7658L12.9628 31.6364L10.4994 26.3332L0.060197 26.7658Z" fill="#E4761B"/>
<path d="M12.9774 31.649L10.5042 26.3262L15.6514 26.0762L12.9774 31.649Z" fill="#CD6116"/>
<path d="M12.9772 31.6645L12.9716 31.6504L10.4941 26.3191L15.6639 26.0677L15.6583 26.0789L12.9772 31.6645ZM10.5152 26.3317L12.9772 31.6322L15.64 26.0831L10.5152 26.3317Z" fill="#CD6116"/>
<path d="M24.4332 23.4765L27.1157 25.1141L28.5945 28.5986L24.4332 23.4765ZM11.466 19.582L0.0268555 26.7601L3.58711 18.2449L11.466 19.582ZM10.504 26.3262L0.0268555 26.7601L11.466 19.582L10.504 26.3262ZM23.4894 19.6325L24.1748 22.1226L20.8659 22.315L23.4894 19.6325ZM20.8659 22.315L19.8379 19.7575L23.4894 19.6325L20.8659 22.315Z" fill="#F6851B"/>
<path d="M28.5887 28.6028L24.4274 23.4807L24.4358 23.4709L27.1197 25.1099L27.1211 25.1113L28.6 28.5958L28.5887 28.6028ZM24.4639 23.5032L28.5677 28.555L27.1085 25.1183L24.4639 23.5032ZM0.0112355 26.7784L0.0154488 26.7686H0L0.0210666 26.7559L3.58132 18.2379L3.58693 18.2393L11.4644 19.5764L11.4757 19.5694L11.4743 19.5778L11.4855 19.5792L11.4729 19.5876L10.5108 26.3332H10.5052L0.0280888 26.7672L0.0112355 26.7784ZM11.456 19.596L0.0519642 26.7517L10.4982 26.3191L11.456 19.596ZM3.58974 18.2534L0.0407287 26.7419L11.4448 19.5862L3.58974 18.2534ZM20.8629 22.3277L20.8601 22.3221L20.8475 22.3235L20.8573 22.3136L19.8279 19.7519L23.4864 19.6269L23.4934 19.6199L23.4948 19.6269H23.5075L23.4977 19.6368L24.1844 22.1311H24.176L20.8699 22.3235L20.8629 22.3277ZM23.485 19.6466L20.8826 22.3066L24.1648 22.1156L23.485 19.6466ZM19.8475 19.7646L20.8671 22.3024L23.471 19.641L19.8475 19.7646Z" fill="#F6851B"/>
<path d="M15.7929 32.7515L12.9771 31.649L22.7702 33.295L15.7929 32.7515Z" fill="#C0AD9E"/>
<path d="M22.7703 33.302L15.7917 32.7585H15.7903L12.9744 31.656L12.9786 31.642L22.7717 33.288L22.7703 33.302ZM15.7959 32.7445L22.6144 33.2753L13.0446 31.6672L15.7959 32.7445Z" fill="#C0AD9E"/>
<path d="M3.5858 18.2465L1.98193 16.1904L2.59146 15.5977L3.5858 18.2465Z" fill="#763D16"/>
<path d="M3.58001 18.2507L1.97192 16.1904L2.59409 15.5851L2.5983 15.5949L3.59265 18.2437L3.58001 18.2507ZM1.99159 16.1904L3.56315 18.2043L2.58847 15.6089L1.99159 16.1904Z" fill="#763D16"/>
<path d="M23.8824 32.0745L22.7715 33.295L12.9771 31.649L23.8824 32.0745Z" fill="#D7C1B3"/>
<path d="M22.773 33.302H22.7688L12.9771 31.656L12.9785 31.642L23.898 32.0689L22.773 33.302ZM13.0866 31.6602L22.7674 33.288L23.8657 32.0816L13.0866 31.6602Z" fill="#D7C1B3"/>
<path d="M24.4078 29.0831L12.9771 31.649L15.6511 26.0762L24.4078 29.0831Z" fill="#E4761B"/>
<path d="M12.9644 31.6589L12.97 31.6462L15.6468 26.0677L15.6525 26.0691L24.433 29.0859L12.9644 31.6589ZM15.6553 26.0831L12.991 31.6378L24.3838 29.0817L15.6553 26.0831Z" fill="#E4761B"/>
<path d="M12.9771 31.649L24.4078 29.0831L23.8811 32.0746L12.9771 31.649Z" fill="#D7C1B3"/>
<path d="M23.8881 32.0816H23.8825L12.977 31.656L12.9756 31.642L24.4161 29.0747L24.4147 29.0845L23.8881 32.0816ZM13.0318 31.6434L23.8768 32.0675L24.4007 29.0929L13.0318 31.6434Z" fill="#D7C1B3"/>
<path d="M1.78923 12.1049L1.41284 5.67963L9.49258 7.49276L1.78923 12.1049ZM2.59117 15.5964L1.48025 14.4686L2.23163 13.7004L2.59117 15.5964Z" fill="#763D16"/>
<path d="M2.60259 15.6188L1.47061 14.4699L2.23743 13.6863L2.60259 15.6188ZM1.49027 14.4685L2.58012 15.5752L2.2276 13.7143L1.49027 14.4685ZM1.7824 12.1161V12.1049L1.40601 5.66977L1.41443 5.67117L9.51102 7.48851L9.49557 7.49693L1.7824 12.1161ZM1.42145 5.68803L1.79644 12.0922L9.47591 7.49553L1.42145 5.68803Z" fill="#763D16"/>
<path d="M17.9658 21.4121L19.8379 19.7576L19.5711 23.8024L17.9658 21.4121Z" fill="#CD6116"/>
<path d="M19.5767 23.8235L17.9573 21.4121L19.8463 19.7422L19.5767 23.8235ZM17.9755 21.4135L19.5654 23.7814L19.8309 19.7745L17.9755 21.4135Z" fill="#CD6116"/>
<path d="M19.8372 19.7569L17.9651 21.4114L15.2405 22.8228L19.8372 19.7569Z" fill="#CD6116"/>
<path d="M15.2451 22.8305L15.238 22.8179L19.8335 19.752L19.8419 19.7632L17.9697 21.4177H17.9683L15.2451 22.8305ZM19.7548 19.8208L15.3518 22.7589L17.9613 21.4064L19.7548 19.8208Z" fill="#CD6116"/>
<path d="M28.5937 28.598L28.0839 28.2216L24.4324 23.476L28.5937 28.598Z" fill="#F6851B"/>
<path d="M28.5902 28.6043L28.079 28.2265L24.4275 23.4808L24.4387 23.4724L28.6001 28.5945L28.5902 28.6043ZM28.0903 28.2181L28.5551 28.5607L24.7631 23.8937L28.0903 28.2181Z" fill="#F6851B"/>
<path d="M15.2424 22.8249L11.4658 19.5835L19.8377 19.759L15.2424 22.8249Z" fill="#CD6116"/>
<path d="M15.2408 22.8334L15.2365 22.8305L11.4446 19.5751L19.8585 19.752L19.8403 19.7647L15.2408 22.8334ZM11.4839 19.5905L15.2422 22.8165L19.815 19.7647L11.4839 19.5905Z" fill="#CD6116"/>
<path d="M19.5706 23.8024L19.8374 19.7576L20.8655 22.3151L19.5706 23.8024Z" fill="#E4751F"/>
<path d="M19.5623 23.8221L19.8305 19.7576L19.8446 19.7548L20.8741 22.3151L20.8713 22.3179L19.5623 23.8221ZM19.8432 19.7899L19.5791 23.7828L20.8572 22.3137L19.8432 19.7899Z" fill="#E4751F"/>
<path d="M1.1123 12.7397L1.78924 12.1049L2.23164 13.7003L1.1123 12.7397Z" fill="#763D16"/>
<path d="M2.24575 13.72L1.10254 12.7383L1.79352 12.0894L2.24575 13.72ZM1.12361 12.7397L2.22047 13.6806L1.7865 12.1175L1.12361 12.7397Z" fill="#763D16"/>
<path d="M19.5706 23.8024L15.2422 22.8249L17.9667 21.4135L19.5706 23.8024Z" fill="#233447"/>
<path d="M19.5862 23.8136L19.5694 23.8094L15.2227 22.8278L15.2395 22.8193L17.9697 21.4037L19.5862 23.8136ZM15.262 22.8222L19.5539 23.7912L17.9627 21.422L15.262 22.8222Z" fill="#233447"/>
<path d="M9.49263 7.49125L1.41284 5.67812L4.71329 0.0140228L9.49263 7.49125Z" fill="#763D16"/>
<path d="M9.50802 7.50251L9.49117 7.4983L1.40161 5.68236L1.40582 5.67393L4.71327 0L4.71889 0.00983107L9.50802 7.50251ZM1.42408 5.67393L9.47853 7.48144L4.71468 0.0266843L1.42408 5.67393Z" fill="#763D16"/>
<path d="M22.7703 33.295L23.2296 34.5478L15.793 32.7515L22.7703 33.295Z" fill="#C0AD9E"/>
<path d="M23.2406 34.5576L23.228 34.5548L15.7915 32.7585L15.7943 32.7445L22.7758 33.288L22.7772 33.2922L23.2406 34.5576ZM15.88 32.7655L23.2182 34.5379L22.7645 33.3006L15.88 32.7655Z" fill="#C0AD9E"/>
<path d="M15.6511 26.0748L15.241 22.8249L19.5694 23.8024L15.6511 26.0748Z" fill="#F6851B"/>
<path d="M15.6456 26.086L15.2341 22.815L15.244 22.8178L19.5893 23.7995L15.6456 26.086ZM15.251 22.8332L15.6583 26.0636L19.5528 23.8051L15.251 22.8332Z" fill="#F6851B"/>
<path d="M11.4658 19.5821L15.2424 22.8235L15.6525 26.0734L11.4658 19.5821Z" fill="#E4751F"/>
<path d="M15.6454 26.079L11.4587 19.5863L11.4686 19.5765L15.2479 22.8207V22.8235L15.658 26.0734L15.6454 26.079ZM11.4967 19.62L15.6398 26.0453L15.2339 22.8277L11.4967 19.62Z" fill="#E4751F"/>
<path d="M20.8659 22.3151L24.1748 22.1227L28.0847 28.2222L20.8659 22.3151ZM11.466 19.5821L15.6526 26.0748L10.5054 26.3248L11.466 19.5821Z" fill="#F6851B"/>
<path d="M28.0804 28.2278L20.8475 22.3096L24.1789 22.1158L24.1817 22.1186L28.0916 28.218L28.0804 28.2278ZM20.8841 22.3208L28.0551 28.1885L24.1704 22.1298L20.8841 22.3208ZM10.4968 26.3332L10.4982 26.3248L11.4617 19.5625L15.6652 26.0804H15.6525L10.4968 26.3332ZM11.4701 19.6018L10.5137 26.3178L15.6399 26.0678L11.4701 19.6018Z" fill="#F6851B"/>
<path d="M20.8657 22.3151L24.9765 28.5733L19.5708 23.8024L20.8657 22.3151Z" fill="#E4751F"/>
<path d="M24.9725 28.5789L19.5613 23.8038L19.5655 23.7982L20.8674 22.3039L20.873 22.3123L24.9837 28.5705L24.9725 28.5789ZM19.5809 23.8024L24.943 28.534L20.866 22.3264L19.5809 23.8024Z" fill="#E4751F"/>
<path d="M19.5701 23.8017L24.9758 28.5726L24.407 29.0824L19.5701 23.8017Z" fill="#F6851B"/>
<path d="M24.4074 29.0929L24.4032 29.0873L19.5649 23.8066L19.5748 23.7968L24.9875 28.5733L24.4074 29.0929ZM19.6647 23.8951L24.4088 29.0733L24.9664 28.5733L19.6647 23.8951Z" fill="#F6851B"/>
<path d="M24.4078 29.0831L15.6511 26.0748L19.5695 23.8024L24.4078 29.0831ZM28.0846 28.2222L24.9766 28.5733L20.8658 22.3151L28.0846 28.2222Z" fill="#F6851B"/>
<path d="M24.4065 29.0901L15.6357 26.0776L15.6484 26.0706L19.5724 23.7954L19.5766 23.7996L24.4149 29.0803L24.4065 29.0901ZM15.668 26.0734L24.384 29.0677L19.5682 23.8108L15.668 26.0734ZM24.9724 28.5803L24.9696 28.5761L20.8588 22.3179L20.8687 22.3081L28.1015 28.2264L28.0847 28.2278L24.9724 28.5803ZM20.8968 22.3488L24.9809 28.5649L28.0678 28.2166L20.8968 22.3488Z" fill="#F6851B"/>
<path d="M28.9033 31.1645L27.5662 33.847L23.2293 34.5492L28.9033 31.1645ZM23.2307 34.5478L22.7715 33.295L23.8824 32.0746L23.2307 34.5478Z" fill="#C0AD9E"/>
<path d="M23.2306 34.5717L22.7615 33.2936L22.7643 33.2908L23.8752 32.0704L23.8878 32.0774L23.2404 34.5337L28.9199 31.1462L27.5703 33.8526H27.5661L23.2334 34.5534L23.2306 34.5717ZM28.8862 31.1828L23.2657 34.5352L27.5618 33.84L28.8862 31.1828ZM22.7783 33.2964L23.2292 34.5253L23.8682 32.1013L22.7783 33.2964Z" fill="#C0AD9E"/>
<path d="M23.8829 32.0745L24.7016 31.7487L23.2312 34.5478L23.8829 32.0745ZM23.2312 34.5478L24.7016 31.7487L28.9037 31.1645L23.2312 34.5478Z" fill="#C0AD9E"/>
<path d="M23.2126 34.566L23.2239 34.545L23.877 32.0689L23.8798 32.0675L24.6958 31.7431V31.7417H24.6986L24.7154 31.7347L24.7126 31.7389L28.9021 31.156L28.9063 31.1687L23.2126 34.566ZM24.7056 31.7557L23.2478 34.5295L28.8698 31.1757L24.7056 31.7557ZM23.8882 32.0802L23.2534 34.4902L24.6859 31.7628L23.8882 32.0802Z" fill="#C0AD9E"/>
<path d="M28.0846 28.2222L29.1127 28.8486L25.9878 29.2249L28.0846 28.2222Z" fill="#161616"/>
<path d="M25.9879 29.232L25.9836 29.2193L28.0847 28.2151L28.0875 28.2166L29.1324 28.8542L29.1127 28.857L25.9879 29.232ZM28.0847 28.2306L26.03 29.2137L29.0931 28.8457L28.0847 28.2306Z" fill="#161616"/>
<path d="M25.9873 29.2249L24.9761 28.5733L28.0842 28.2222L25.9873 29.2249ZM25.6277 29.7179L29.4296 29.2586L28.903 31.1645L25.6277 29.7179Z" fill="#161616"/>
<path d="M28.9089 31.1729L28.9019 31.1701L25.6028 29.7137L29.4412 29.2502L29.4383 29.26L28.9089 31.1729ZM25.6548 29.7221L28.899 31.1546L29.4201 29.2671L25.6548 29.7221ZM25.9876 29.2334L25.9848 29.2306L24.9568 28.5677L28.0845 28.2151L28.0887 28.2278L25.9876 29.2334ZM24.9961 28.5789L25.9876 29.2179L28.0437 28.2348L24.9961 28.5789Z" fill="#161616"/>
<path d="M28.903 31.1645L24.6995 31.7487L25.6264 29.7179L28.903 31.1645ZM24.7009 31.7487L23.8821 32.0745L24.4088 29.0831L24.7009 31.7487ZM24.4073 29.0831L24.9762 28.5733L25.9874 29.2249L24.4073 29.0831ZM29.1123 28.8485L29.4297 29.2586L25.6278 29.7179L29.1123 28.8485Z" fill="#161616"/>
<path d="M23.8726 32.0858L24.3992 29.0901L24.3908 29.0887L24.975 28.5648L24.9792 28.5677L25.9904 29.2193L25.9862 29.232L24.4161 29.0901L24.7054 31.722L25.6253 29.7081L25.6295 29.7095L29.1152 28.8401L29.4425 29.2629L29.4298 29.2643L25.6534 29.7207L28.9284 31.1659L24.7026 31.7543L23.8726 32.0858ZM24.4062 29.1322L23.8908 32.0633L24.6927 31.7445L24.4062 29.1322ZM25.6323 29.7277L24.7124 31.7403L28.8779 31.1602L25.6323 29.7277ZM29.1096 28.857L25.739 29.6968L29.4158 29.2516L29.1096 28.857ZM24.4245 29.0775L25.9595 29.2151L24.9764 28.5817L24.4245 29.0775Z" fill="#161616"/>
<path d="M25.6279 29.7179L25.9875 29.2249L29.1123 28.8485L25.6279 29.7179ZM24.4075 29.0831L25.6279 29.7179L24.701 31.7487L24.4075 29.0831Z" fill="#161616"/>
<path d="M24.697 31.7754L24.4006 29.0719L24.4119 29.0775L25.6267 29.7095L25.9848 29.2193H25.9876L29.1125 28.8429L29.1153 28.857L25.6337 29.7249L24.697 31.7754ZM24.4161 29.0957L24.704 31.7234L25.6155 29.7291L25.6113 29.7305L25.6183 29.7221L24.4161 29.0957ZM25.9919 29.232L25.6464 29.7067L29.003 28.8696L25.9919 29.232Z" fill="#161616"/>
<path d="M25.9872 29.2242L25.6277 29.7172L24.4072 29.0824L25.9872 29.2242Z" fill="#161616"/>
<path d="M25.6309 29.7277L25.6252 29.7249L24.4048 29.0901L24.409 29.0775L26.0002 29.2207L25.6309 29.7277ZM24.4427 29.0929L25.6252 29.7081L25.9735 29.2306L24.4427 29.0929Z" fill="#161616"/>
</g>
<defs>
<clipPath id="clip0_314_20191">
<rect width="33.5759" height="35" fill="white"/>
</clipPath>
</defs>
</svg>
