<svg width="20" height="20" viewBox="0 0 20 20" fill="none" xmlns="http://www.w3.org/2000/svg">
<circle cx="10" cy="10" r="10" fill="#122240"/>
<path d="M8.60161 9.62428C8.59762 9.62758 8.59383 9.63117 8.59003 9.63496C8.57052 9.65447 8.55503 9.67764 8.54447 9.70314C8.5339 9.72864 8.52847 9.75598 8.52847 9.78358C8.52847 9.81118 8.5339 9.83851 8.54447 9.86401C8.55503 9.88951 8.57052 9.91268 8.59003 9.9322L8.59133 9.9334L11.3867 12.7289L10.0014 14.1142L7.20726 11.3201C7.19079 11.303 7.17153 11.2889 7.1503 11.2784C7.10867 11.2576 7.06131 11.2511 7.01564 11.2602C6.96998 11.2692 6.92861 11.2931 6.89804 11.3282L4.11194 14.1142L2.72656 12.7289L5.52215 9.9327C5.54171 9.91319 5.55723 9.89001 5.56782 9.86449C5.5784 9.83897 5.58386 9.81161 5.58386 9.78398C5.58386 9.75635 5.5784 9.72899 5.56782 9.70347C5.55723 9.67795 5.54171 9.65477 5.52215 9.63526L2.72656 6.83937L4.11194 5.4541L6.90722 8.24948L6.90852 8.25068C6.92803 8.2702 6.9512 8.28568 6.9767 8.29625C7.0022 8.30681 7.02954 8.31225 7.05714 8.31225C7.08474 8.31225 7.11207 8.30681 7.13757 8.29625C7.16307 8.28568 7.18624 8.2702 7.20576 8.25068C7.20945 8.24689 7.21304 8.2431 7.21643 8.23911L10.0014 5.4541L11.3867 6.83937L8.60161 9.62428Z" fill="white"/>
<path d="M14.4864 9.62331C14.4824 9.6266 14.4786 9.63019 14.4748 9.63398C14.4553 9.6535 14.4398 9.67667 14.4292 9.70217C14.4187 9.72767 14.4132 9.755 14.4132 9.7826C14.4132 9.8102 14.4187 9.83754 14.4292 9.86304C14.4398 9.88854 14.4553 9.91171 14.4748 9.93122L14.4761 9.93242L17.2715 12.7278L15.8862 14.1132L13.092 11.3191C13.0756 11.302 13.0563 11.2879 13.0351 11.2774C12.9934 11.2566 12.9461 11.2502 12.9004 11.2592C12.8547 11.2682 12.8134 11.2922 12.7828 11.3273L9.9967 14.1132L8.61133 12.7279L11.4069 9.93172C11.4265 9.91221 11.442 9.88903 11.4526 9.86351C11.4632 9.83799 11.4686 9.81063 11.4686 9.783C11.4686 9.75537 11.4632 9.72801 11.4526 9.70249C11.442 9.67697 11.4265 9.65379 11.4069 9.63428L8.61133 6.8384L9.9967 5.45312L12.792 8.24851L12.7933 8.24971C12.8128 8.26922 12.836 8.28471 12.8615 8.29527C12.887 8.30584 12.9143 8.31127 12.9419 8.31127C12.9695 8.31127 12.9968 8.30584 13.0223 8.29527C13.0478 8.28471 13.071 8.26922 13.0905 8.24971C13.0942 8.24591 13.0978 8.24212 13.1012 8.23813L15.8862 5.45312L17.2715 6.8384L14.4864 9.62331Z" fill="white"/>
</svg>
