<svg width="30" height="35" viewBox="0 0 30 35" fill="none" xmlns="http://www.w3.org/2000/svg">
<g clip-path="url(#clip0_314_20184)">
<path fill-rule="evenodd" clip-rule="evenodd" d="M29.5735 4.40759C29.2891 4.12323 28.8626 3.83887 28.2938 3.83887H27.5829C25.3081 3.83887 20.4739 3.69669 16.2085 0.284368C15.4976 -0.142173 14.6445 -0.142173 14.0758 0.284368C9.81043 3.55451 4.83412 3.83887 2.70142 3.83887H1.70616C1.27962 3.83887 0.7109 3.98105 0.42654 4.40759C0.14218 4.69195 0 5.26067 0 5.68721C0.14218 11.6588 0.28436 15.9242 0.853081 19.1943C1.27962 21.6114 1.70616 23.6019 2.55924 25.1659C3.12796 26.3033 3.83886 27.2986 4.69194 28.1517C5.97156 29.4313 7.25118 30.2844 8.81516 31.1374C9.09953 31.2796 9.38389 31.4218 9.66825 31.564C10.9479 32.2749 12.5118 33.128 14.0758 34.2654C14.6445 34.692 15.4976 34.692 16.0663 34.2654C17.6303 33.128 19.1943 32.4171 20.4739 31.564C21.0427 31.2796 21.6114 30.8531 22.1801 30.5687C23.4597 29.7156 24.7393 29.0047 25.7346 27.8673C26.5877 27.0142 27.1564 26.019 27.7251 24.7393C28.5782 22.891 29.0047 20.6161 29.4313 17.6303C29.8578 14.6446 30 10.6635 30.1422 5.68721C30 5.26067 29.8578 4.69195 29.5735 4.40759ZM25.7346 18.6256C25.4502 20.9005 24.8815 22.4645 24.455 23.6019C24.0284 24.455 23.6019 25.0237 23.0332 25.5924C22.1801 26.4455 21.0427 27.1564 19.6209 28.0095C19.3365 28.1517 19.0521 28.2938 18.7678 28.5782C17.7725 29.1469 16.4929 29.8578 15.2133 30.7109C13.7915 29.8578 12.654 29.1469 11.5166 28.5782C10.9479 28.2938 10.3791 27.8673 9.81043 27.5829C8.53081 26.872 7.67772 26.1611 6.96682 25.4502C6.3981 24.8815 5.97156 24.1706 5.54502 23.3175C4.9763 22.0379 4.40758 20.0474 4.12322 17.2038C3.83886 14.6446 3.69668 11.5166 3.5545 7.39337C6.11374 7.25119 10.6635 6.82465 15.0711 3.83887C19.3365 6.68247 23.8863 7.25119 26.5877 7.39337C26.3033 12.3697 26.1611 16.0664 25.7346 18.6256Z" fill="#3375BB"/>
</g>
<defs>
<clipPath id="clip0_314_20184">
<rect width="30" height="34.5498" fill="white"/>
</clipPath>
</defs>
</svg>
