<svg width="20" height="12" viewBox="0 0 20 12" fill="none" xmlns="http://www.w3.org/2000/svg">
<path d="M4.00821 2.34459C7.20111 -0.78153 12.3778 -0.78153 15.5707 2.34459L15.955 2.72082C16.1146 2.87713 16.1146 3.13055 15.955 3.28686L14.6405 4.57388C14.5607 4.65203 14.4312 4.65203 14.3514 4.57388L13.8226 4.05614C11.5952 1.87528 7.98377 1.87528 5.75632 4.05614L5.19002 4.6106C5.11019 4.68875 4.98078 4.68875 4.90095 4.6106L3.58644 3.32358C3.42679 3.16727 3.42679 2.91385 3.58644 2.75754L4.00821 2.34459ZM18.2893 5.00628L19.4592 6.15174C19.6188 6.30804 19.6188 6.56146 19.4592 6.71777L14.1839 11.8828C14.0243 12.0391 13.7655 12.0391 13.6058 11.8828C13.6058 11.8828 13.6058 11.8828 13.6058 11.8828L9.86176 8.21702C9.82185 8.17794 9.75714 8.17794 9.71723 8.21702C9.71723 8.21702 9.71723 8.21702 9.71723 8.21702L5.97326 11.8828C5.81361 12.0391 5.55478 12.0391 5.39513 11.8828C5.39513 11.8828 5.39513 11.8828 5.39513 11.8828L0.119734 6.71771C-0.0399112 6.5614 -0.0399112 6.30798 0.119734 6.15167L1.28966 5.00622C1.4493 4.84991 1.70814 4.84991 1.86778 5.00622L5.61189 8.67202C5.6518 8.71109 5.71651 8.71109 5.75642 8.67202C5.75642 8.67202 5.75642 8.67202 5.75642 8.67202L9.50034 5.00622C9.65998 4.84991 9.91882 4.8499 10.0785 5.0062C10.0785 5.00621 10.0785 5.00621 10.0785 5.00621L13.8226 8.67202C13.8625 8.71109 13.9272 8.71109 13.9671 8.67202L17.7111 5.00628C17.8708 4.84998 18.1296 4.84998 18.2893 5.00628Z" fill="#00A3FF"/>
</svg>
