<svg width="652" height="383" viewBox="0 0 652 383" fill="none" xmlns="http://www.w3.org/2000/svg">
<path d="M66.7756 88.4642C37.9506 97.7942 12.2428 141.498 6.83808 171.288C3.39874 190.767 14.6994 211.063 31.7323 221.048C40.085 225.959 50.2392 229.396 54.6612 238.071C61.3761 251.493 49.2566 266.716 36.4819 274.573C23.7072 282.43 7.98453 288.486 2.2523 302.399C-1.5146 311.565 -0.0405943 322.041 3.7263 331.208C17.6474 364.599 58.4281 379.331 94.6231 377.53C130.818 375.73 165.211 361.653 200.587 354.451C322.438 329.571 450.349 386.042 572.036 360.18C591.034 356.088 610.032 349.868 624.609 337.1C641.15 322.86 650.485 301.253 651.796 279.483C653.106 258.696 645.736 235.289 627.229 225.959C616.42 220.557 603.317 220.721 591.525 223.667C583.992 225.631 576.622 228.578 568.76 228.578C561.063 228.578 552.382 224.813 550.253 217.283C547.96 209.427 553.201 201.406 559.425 196.005C572.036 185.201 588.905 179.8 600.206 167.687C611.179 156.066 615.765 138.715 612.161 123.329C608.395 107.779 596.439 94.5205 581.371 89.1189C542.883 75.5332 501.12 112.689 461.813 101.723C458.865 100.904 455.753 99.5947 454.279 97.1395C452.805 94.5205 453.133 91.4105 453.952 88.4642C458.701 72.5869 477.372 62.6021 478.191 46.0701C478.682 37.0674 473.278 28.7196 466.563 22.6632C420.541 -18.5851 345.968 7.2769 299.128 22.6632C222.152 48.1979 144.079 63.5842 66.7756 88.4642Z" fill="#A6A5FF"/>
<path d="M255.047 267.715L241.494 246.718L249.571 241.423C249.571 241.423 251.874 239.122 251.991 237.46C251.925 235.806 249.527 231.115 249.527 231.115L247.952 228.601C247.952 228.601 244.656 224.499 243.339 223.815C241.838 223.139 238.756 224.367 238.756 224.367L230.679 229.662L184.725 158.599L173.145 159.248L169.379 161.792C169.379 161.792 165.436 164.528 164.384 165.859C163.332 167.19 162.715 170.16 162.715 170.16L159.155 278.924C159.155 278.924 159.574 280.196 159.971 280.916C161.355 283.254 163.841 285.548 167.255 287.988C170.669 290.429 174.17 290.473 174.17 290.473L220.676 260.44L234.221 281.253L245.8 280.605L250.111 277.854L255.047 267.715ZM179.325 262.834L179.982 196.531L180.711 196.317L184 204.838L208.941 243.421L179.325 262.834Z" fill="#FAFAFA"/>
<path d="M507.32 191.727L504.081 189.304C504.081 189.304 500.516 186.853 499.076 186.397C497.637 185.942 494.969 186.363 494.969 186.363L403.132 217.195C403.132 217.195 402.244 217.938 401.697 218.547C400.219 220.388 398.981 223.236 398.012 226.766C397.042 230.295 398.103 233.182 398.103 233.182L437.754 262.648L424.515 280.375L428.617 289.775L432.316 292.567L442.566 293.801L455.805 276.074L462.758 281.125C462.758 281.125 465.445 282.348 466.807 281.811C468.17 281.274 471.275 277.769 471.275 277.769L472.782 275.602C472.782 275.602 475.277 271.55 475.392 270.245C475.522 268.778 473.574 266.634 473.574 266.634L466.621 261.583L511.585 201.141L507.32 191.727ZM472.847 215.301L448.408 248.143L422.944 229.297L478.318 209.212L478.764 209.744L472.847 215.301Z" fill="#FAFAFA"/>
<path d="M327.063 277.25C361.344 277.25 389.135 249.475 389.135 215.213C389.135 180.951 361.344 153.176 327.063 153.176C292.781 153.176 264.99 180.951 264.99 215.213C264.99 249.475 292.781 277.25 327.063 277.25Z" fill="#A37DFF"/>
<path fill-rule="evenodd" clip-rule="evenodd" d="M265.529 207.481C283.881 210.178 314.827 197.051 324.723 195.073C344.874 191.117 365.565 195.793 386.076 196.512C384.636 192.017 382.657 187.701 380.318 183.745C372.762 184.105 364.845 182.666 357.109 182.486C342.715 182.127 328.321 185.903 313.748 185.004C307.091 184.644 291.978 178.71 278.304 176.372C271.647 185.183 266.969 195.793 265.529 207.481Z" fill="#CCBBFF"/>
<path fill-rule="evenodd" clip-rule="evenodd" d="M327.063 153.176C320.765 153.176 314.648 154.075 308.891 155.873C316.627 160.369 332.28 161.807 335.879 162.347C342.356 163.246 349.373 163.605 354.95 160.009L355.13 159.829C346.674 155.693 337.138 153.176 327.063 153.176Z" fill="#CCBBFF"/>
<path fill-rule="evenodd" clip-rule="evenodd" d="M388.954 216.112C371.142 211.617 352.25 211.257 334.078 215.213C324.363 217.371 314.827 220.787 305.111 223.125C292.876 226.182 280.282 227.62 267.688 227.44C267.148 227.44 266.608 227.44 266.068 227.44C268.587 239.848 274.705 250.817 283.341 259.448C298.274 254.233 312.488 247.22 325.802 238.949C337.497 231.576 349.192 222.945 362.865 221.686C371.322 220.967 379.778 223.125 388.234 224.923C388.774 221.866 388.954 218.989 388.954 216.112Z" fill="#CCBBFF"/>
<path fill-rule="evenodd" clip-rule="evenodd" d="M385.716 235.173C377.26 233.914 362.327 241.287 358.548 244.523C355.31 247.22 352.431 250.637 349.013 253.154C344.515 256.211 339.117 257.65 333.719 258.909C323.104 261.606 312.489 264.663 301.874 268.079C300.614 268.439 299.175 269.158 298.455 270.237C306.911 274.732 316.627 277.25 326.882 277.25C334.079 277.25 340.916 275.991 347.393 273.833C353.87 264.663 357.649 252.795 367.904 248.479C369.703 247.76 375.641 246.861 381.218 245.422C383.018 242.006 384.457 238.769 385.716 235.173Z" fill="#CCBBFF"/>
<path fill-rule="evenodd" clip-rule="evenodd" d="M467.715 383C480.241 383 489.74 371.55 485.612 359.724C463.57 296.584 403.478 251.234 332.794 251.234C262.11 251.234 202.018 296.584 179.976 359.724C175.848 371.55 185.347 383 197.873 383H467.715Z" fill="#FAFAFA"/>
<path d="M419.303 184.153C430.881 184.153 440.267 174.773 440.267 163.202C440.267 151.63 430.881 142.25 419.303 142.25C407.726 142.25 398.34 151.63 398.34 163.202C398.34 174.773 407.726 184.153 419.303 184.153Z" fill="#ABC3FF"/>
<path fill-rule="evenodd" clip-rule="evenodd" d="M419.305 142.25C415.538 142.25 412.098 143.232 409.15 144.869C409.314 145.196 409.478 145.36 409.642 145.524C411.771 147.652 416.848 147.815 419.632 147.815C423.727 147.979 427.821 147.488 431.752 146.179C428.312 143.723 424.054 142.25 419.305 142.25Z" fill="#79A1F2"/>
<path fill-rule="evenodd" clip-rule="evenodd" d="M435.354 153.381C436.009 153.217 436.664 152.89 437.32 152.562C436.828 151.58 436.173 150.762 435.518 149.943C433.389 150.925 431.424 151.744 429.294 152.726C427.657 153.381 426.019 154.199 424.381 154.69C421.924 155.345 419.14 155.345 416.684 155.345C411.279 155.345 406.038 154.854 400.633 154.199C399.323 156.982 398.668 159.928 398.668 163.202C398.668 164.675 398.832 166.148 399.159 167.621C400.306 167.13 401.288 166.475 402.271 165.821C404.892 164.184 408.003 163.038 410.951 162.056C418.813 159.11 427.165 156.327 435.354 153.381Z" fill="#79A1F2"/>
<path fill-rule="evenodd" clip-rule="evenodd" d="M438.467 154.854C436.83 156.327 435.683 158.291 433.882 159.601C432.08 161.074 429.951 162.22 427.822 163.038C426.348 163.693 424.71 164.02 423.236 164.838C422.745 165.166 422.09 165.493 421.926 166.148C421.762 167.294 422.909 167.948 424.055 168.276C426.184 168.767 428.313 168.603 430.606 168.603C433.227 168.44 435.683 168.44 438.304 168.276C438.795 168.276 439.286 168.276 439.614 168.112C439.941 166.475 440.269 164.838 440.269 163.038C440.269 160.255 439.614 157.473 438.467 154.854Z" fill="#79A1F2"/>
<path fill-rule="evenodd" clip-rule="evenodd" d="M419.959 162.547C416.192 163.365 412.589 164.511 409.149 165.984C406.856 166.966 404.563 168.276 402.271 169.094C401.615 169.258 400.633 169.422 399.486 169.422C400.797 173.35 403.089 176.624 406.037 179.243C406.201 178.915 406.529 178.752 406.693 178.424C409.804 174.332 411.933 169.094 416.519 166.475C417.338 165.984 418.157 165.657 418.976 165.002C419.631 164.511 420.122 163.529 419.959 162.547Z" fill="#79A1F2"/>
<path fill-rule="evenodd" clip-rule="evenodd" d="M438.137 172.041C437.973 172.041 437.646 172.041 437.482 172.041C433.06 172.368 428.638 172.532 424.052 172.859C421.268 173.023 418.32 173.186 416.027 174.823C414.226 175.969 413.079 177.933 411.933 179.734C411.605 180.388 410.786 181.207 410.295 182.189C412.915 183.498 415.7 184.153 418.811 184.153C419.303 183.498 419.794 182.68 420.449 182.025C423.397 178.097 428.147 175.478 433.06 174.987C434.37 174.823 435.68 174.823 436.991 174.659C437.318 173.677 437.81 172.859 438.137 172.041Z" fill="#79A1F2"/>
<path fill-rule="evenodd" clip-rule="evenodd" d="M438.466 171.386C438.957 170.076 439.449 168.767 439.776 167.457C434.372 169.422 427.984 171.058 421.269 172.368C414.391 173.677 407.84 174.496 402.107 174.66C402.926 175.805 403.745 176.787 404.728 177.77C409.969 177.442 415.865 176.624 421.925 175.478C427.821 174.496 433.553 173.023 438.466 171.386Z" fill="#618DE5"/>
<path d="M398.832 176.46C391.298 176.46 385.238 175.314 384.583 171.713C383.928 168.276 388.35 164.839 397.685 161.238C398.504 160.91 399.487 161.401 399.814 162.22C400.142 163.038 399.651 164.02 398.832 164.348C389.333 167.949 387.695 170.568 387.695 171.059C388.022 172.859 399.814 174.987 421.105 170.731C430.113 168.931 438.302 166.639 444.362 164.02C451.241 161.074 452.387 158.946 452.223 158.619C452.059 158.128 449.439 156.163 438.793 156.491C437.975 156.491 437.156 155.836 437.156 154.854C437.156 153.872 437.811 153.217 438.793 153.217C449.275 152.89 455.007 154.527 455.663 157.964C456.318 160.91 453.042 163.857 445.836 167.13C439.612 169.913 431.096 172.368 421.924 174.169C415.701 175.151 406.529 176.46 398.832 176.46Z" fill="white"/>
<path d="M243.207 133.02C247.642 124.831 244.595 114.601 236.402 110.168C228.209 105.736 217.972 108.781 213.538 116.97C209.103 125.158 212.15 135.389 220.343 139.821C228.535 144.253 238.772 141.208 243.207 133.02Z" fill="#7B91FF"/>
<path fill-rule="evenodd" clip-rule="evenodd" d="M236.402 110.216C233.781 108.743 230.997 108.088 228.213 108.252C228.213 108.416 228.213 108.743 228.377 108.907C229.032 111.198 232.635 113.163 234.436 114.308C237.221 115.945 240.332 117.255 243.608 117.746C242.134 114.636 239.677 112.017 236.402 110.216Z" fill="#80C3FF"/>
<path fill-rule="evenodd" clip-rule="evenodd" d="M243.444 124.129C244.099 124.293 244.59 124.293 245.245 124.293C245.245 123.475 245.081 122.656 244.918 121.674C243.116 121.51 241.315 121.347 239.349 121.183C237.875 121.019 236.565 121.019 235.091 120.692C233.126 120.201 231.16 119.219 229.359 118.237C225.592 116.109 221.989 113.817 218.386 111.198C216.42 112.672 214.783 114.472 213.472 116.764C212.817 117.909 212.49 118.892 212.162 120.037C213.145 120.201 214.127 120.037 214.946 119.874C217.403 119.71 220.023 120.037 222.48 120.528C229.686 122.002 236.565 123.147 243.444 124.129Z" fill="#80C3FF"/>
<path fill-rule="evenodd" clip-rule="evenodd" d="M245.081 126.421C243.444 126.748 241.806 127.73 240.004 128.058C238.203 128.385 236.237 128.385 234.272 128.222C232.962 128.058 231.652 127.73 230.341 127.73C229.85 127.73 229.359 127.73 229.031 128.222C228.376 128.876 229.031 129.858 229.686 130.513C230.996 131.659 232.634 132.477 234.108 133.296C235.91 134.278 237.875 135.096 239.677 136.078C240.004 136.242 240.332 136.406 240.659 136.569C241.642 135.587 242.297 134.442 243.116 133.296C244.262 130.84 244.918 128.713 245.081 126.421Z" fill="#80C3FF"/>
<path fill-rule="evenodd" clip-rule="evenodd" d="M229.03 124.784C226.082 123.966 223.134 123.311 220.022 123.147C218.057 122.984 215.928 122.984 213.962 122.656C213.471 122.493 212.652 122.165 211.833 121.838C211.178 125.112 211.506 128.385 212.816 131.332C213.144 131.168 213.307 131.168 213.635 131.004C217.402 129.204 221.005 126.421 225.099 126.257C225.918 126.257 226.573 126.257 227.392 126.094C228.211 125.93 228.866 125.439 229.03 124.784Z" fill="#80C3FF"/>
<path fill-rule="evenodd" clip-rule="evenodd" d="M238.365 138.534C238.201 138.37 238.038 138.37 237.874 138.206C234.598 136.733 231.323 135.096 228.047 133.623C226.082 132.641 223.953 131.659 221.66 131.986C220.022 132.15 218.384 132.968 216.91 133.951C216.419 134.278 215.6 134.605 214.781 134.933C216.091 136.733 217.893 138.37 220.022 139.679C220.677 139.352 221.332 139.025 221.987 138.697C225.591 137.061 229.849 136.897 233.616 138.534C234.598 138.861 235.581 139.516 236.564 139.843C237.055 139.352 237.71 138.861 238.365 138.534Z" fill="#80C3FF"/>
<path fill-rule="evenodd" clip-rule="evenodd" d="M211.765 314.764L190.31 355.358L184.414 352.248C181.303 350.611 179.992 346.683 181.794 343.573L197.189 314.437C198.827 311.327 202.757 310.017 205.869 311.818L211.765 314.764Z" fill="#FAFAFA"/>
<path fill-rule="evenodd" clip-rule="evenodd" d="M476.47 355.317L461.043 324.593L467.036 321.62C470.19 320.038 474.081 321.351 475.664 324.502L485.348 343.722C486.93 346.873 485.617 350.763 482.463 352.344L476.47 355.317Z" fill="#FAFAFA"/>
<path fill-rule="evenodd" clip-rule="evenodd" d="M268.574 268.994L230.024 293.649L226.387 288.045C224.419 284.989 225.283 281.102 228.341 279.134L256.022 261.438C259.079 259.471 262.97 260.334 264.938 263.39L268.574 268.994Z" fill="#FAFAFA"/>
<path fill-rule="evenodd" clip-rule="evenodd" d="M445.942 305.829L410.983 276.216L415.356 271.209C417.634 268.547 421.758 268.116 424.422 270.393L449.671 291.607C452.335 293.883 452.766 298.005 450.489 300.667L445.942 305.829Z" fill="#FAFAFA"/>
<path d="M74.1706 176.133C77.0651 176.133 79.4115 173.788 79.4115 170.895C79.4115 168.002 77.0651 165.657 74.1706 165.657C71.2761 165.657 68.9297 168.002 68.9297 170.895C68.9297 173.788 71.2761 176.133 74.1706 176.133Z" fill="#90C9EA"/>
<path d="M407.152 45.811C408.509 45.811 409.609 44.7118 409.609 43.3558C409.609 41.9998 408.509 40.9005 407.152 40.9005C405.795 40.9005 404.695 41.9998 404.695 43.3558C404.695 44.7118 405.795 45.811 407.152 45.811Z" fill="#90C9EA"/>
<path d="M440.89 90.0057C442.247 90.0057 443.347 88.9065 443.347 87.5505C443.347 86.1945 442.247 85.0952 440.89 85.0952C439.533 85.0952 438.434 86.1945 438.434 87.5505C438.434 88.9065 439.533 90.0057 440.89 90.0057Z" fill="#90C9EA"/>
<path d="M111.041 200.41C112.397 200.41 113.497 199.311 113.497 197.955C113.497 196.599 112.397 195.5 111.041 195.5C109.684 195.5 108.584 196.599 108.584 197.955C108.584 199.311 109.684 200.41 111.041 200.41Z" fill="#90C9EA"/>
<path d="M380.458 132.563C382.176 132.563 383.569 131.171 383.569 129.453C383.569 127.736 382.176 126.344 380.458 126.344C378.739 126.344 377.346 127.736 377.346 129.453C377.346 131.171 378.739 132.563 380.458 132.563Z" fill="white"/>
<path d="M509.676 273.823C511.395 273.823 512.788 272.43 512.788 270.713C512.788 268.995 511.395 267.603 509.676 267.603C507.958 267.603 506.564 268.995 506.564 270.713C506.564 272.43 507.958 273.823 509.676 273.823Z" fill="white"/>
<path d="M600.411 278.897C602.129 278.897 603.522 277.504 603.522 275.787C603.522 274.069 602.129 272.677 600.411 272.677C598.692 272.677 597.299 274.069 597.299 275.787C597.299 277.504 598.692 278.897 600.411 278.897Z" fill="white"/>
<path d="M116.61 323.746C118.328 323.746 119.722 322.354 119.722 320.636C119.722 318.919 118.328 317.526 116.61 317.526C114.891 317.526 113.498 318.919 113.498 320.636C113.498 322.354 114.891 323.746 116.61 323.746Z" fill="white"/>
<path d="M294.145 101.3C295.864 101.3 297.257 99.9074 297.257 98.1898C297.257 96.4722 295.864 95.0798 294.145 95.0798C292.426 95.0798 291.033 96.4722 291.033 98.1898C291.033 99.9074 292.426 101.3 294.145 101.3Z" fill="white"/>
<path fill-rule="evenodd" clip-rule="evenodd" d="M259.917 172.83L264.011 175.121L259.753 177.413L257.46 181.505L255.331 177.249L251.236 174.958L255.331 172.83L257.624 168.738L259.917 172.83Z" fill="white"/>
<path fill-rule="evenodd" clip-rule="evenodd" d="M453.01 129.781L455.63 131.254L452.846 132.727L451.372 135.346L449.898 132.727L447.277 131.09L450.062 129.617L451.536 126.998L453.01 129.781Z" fill="white"/>
<path fill-rule="evenodd" clip-rule="evenodd" d="M137.082 258.109L139.866 259.582L137.082 261.055L135.608 263.674L134.134 261.055L131.35 259.419L134.134 258.109L135.772 255.326L137.082 258.109Z" fill="white"/>
<path fill-rule="evenodd" clip-rule="evenodd" d="M138.721 149.095L141.341 150.569L138.557 152.042L137.083 154.661L135.609 151.878L132.988 150.405L135.773 148.932L137.247 146.313L138.721 149.095Z" fill="white"/>
<path fill-rule="evenodd" clip-rule="evenodd" d="M56.8318 311.798L59.4523 313.271L56.8318 314.744L55.1941 317.363L53.7201 314.744L51.0996 313.107L53.8838 311.798L55.3578 309.015L56.8318 311.798Z" fill="white"/>
<path fill-rule="evenodd" clip-rule="evenodd" d="M542.924 236.339L545.708 237.812L542.924 239.285L541.45 241.904L539.976 239.285L537.355 237.649L539.976 236.339L541.614 233.557L542.924 236.339Z" fill="white"/>
<path fill-rule="evenodd" clip-rule="evenodd" d="M576.008 344.043L578.628 345.517L576.008 346.99L574.37 349.609L572.896 346.826L570.275 345.353L573.06 343.88L574.534 341.261L576.008 344.043Z" fill="white"/>
<g filter="url(#filter0_d)">
<g clip-path="url(#clip0)">
<path d="M351.815 292.405L333.615 274.46C332.754 273.61 331.354 273.61 330.385 274.46L300.231 304.192L270.077 274.46C269.215 273.61 267.815 273.61 266.846 274.46L248.646 292.405C247.785 293.255 247.785 294.741 248.646 295.591L278.8 325.323L248.646 355.055C247.785 355.904 247.785 357.391 248.646 358.24L266.846 376.186C267.708 377.035 269.108 377.035 270.077 376.186L300.231 346.454L330.385 376.186C331.246 377.035 332.754 377.035 333.615 376.186L351.815 358.24C352.677 357.391 352.677 355.904 351.815 355.055L321.662 325.323L351.815 295.591C352.677 294.635 352.677 293.255 351.815 292.405ZM316.923 323.624L316.815 323.73C315.954 324.579 315.954 326.066 316.815 326.916L346.969 356.647L332 371.407L301.846 341.675C301.631 341.463 301.415 341.357 301.2 341.251C300.231 340.826 299.154 341.038 298.508 341.782L268.462 371.407L253.492 356.647L283.646 326.916C284.508 326.066 284.508 324.579 283.646 323.73L253.492 293.998L268.462 279.238L298.615 308.97C299.477 309.82 300.985 309.82 301.846 308.97L301.954 308.864L332 279.238L346.969 293.998L316.923 323.624Z" fill="#122240"/>
<path d="M415.354 292.405L397.154 274.46C396.293 273.61 394.893 273.61 393.924 274.46L363.77 304.192L333.616 274.46C332.754 273.61 331.354 273.61 330.385 274.46L312.185 292.405C311.324 293.255 311.324 294.741 312.185 295.591L342.339 325.323L312.185 355.055C311.324 355.904 311.324 357.391 312.185 358.24L330.385 376.186C331.247 377.035 332.647 377.035 333.616 376.186L363.77 346.454L393.924 376.186C394.785 377.035 396.293 377.035 397.154 376.186L415.354 358.24C416.216 357.391 416.216 355.904 415.354 355.055L385.201 325.323L415.354 295.591C416.216 294.635 416.216 293.255 415.354 292.405ZM380.462 323.624L380.354 323.73C379.493 324.579 379.493 326.066 380.354 326.916L410.508 356.647L395.539 371.407L365.385 341.675C365.17 341.463 364.954 341.357 364.739 341.251C363.77 340.826 362.693 341.038 362.047 341.782L332.001 371.407L317.031 356.647L347.185 326.916C348.047 326.066 348.047 324.579 347.185 323.73L317.031 293.998L332.001 279.238L362.154 308.97C363.016 309.82 364.524 309.82 365.385 308.97L365.493 308.864L395.539 279.238L410.508 293.998L380.462 323.624Z" fill="#122240"/>
</g>
</g>
<defs>
<filter id="filter0_d" x="243" y="268.823" width="178" height="113" filterUnits="userSpaceOnUse" color-interpolation-filters="sRGB">
<feFlood flood-opacity="0" result="BackgroundImageFix"/>
<feColorMatrix in="SourceAlpha" type="matrix" values="0 0 0 0 0 0 0 0 0 0 0 0 0 0 0 0 0 0 127 0"/>
<feOffset/>
<feGaussianBlur stdDeviation="2.5"/>
<feColorMatrix type="matrix" values="0 0 0 0 0.472378 0 0 0 0 0.517031 0 0 0 0 0.670833 0 0 0 0.75 0"/>
<feBlend mode="normal" in2="BackgroundImageFix" result="effect1_dropShadow"/>
<feBlend mode="normal" in="SourceGraphic" in2="effect1_dropShadow" result="shape"/>
</filter>
<clipPath id="clip0">
<rect x="248" y="273.823" width="168" height="103" fill="white"/>
</clipPath>
</defs>
</svg>
