<svg width="150" height="150" viewBox="0 0 150 150" fill="none" xmlns="http://www.w3.org/2000/svg">
<circle cx="75" cy="75" r="75" fill="white"/>
<path d="M74.9982 0C33.5783 0 0 33.5793 0 74.9992C0 116.418 33.5783 150 74.9982 150C116.418 150 149.999 116.418 149.999 74.9992C149.999 33.5783 116.418 0 74.9982 0ZM75.2267 110.383V110.382H74.7687H42.7324C42.7324 86.9534 63.3086 86.9589 67.8747 80.8328L68.3972 78.0393C61.9821 74.7882 57.4536 66.9502 57.4536 57.7831C57.4536 45.706 65.3096 35.9139 74.9982 35.9139C84.6868 35.9139 92.5429 45.706 92.5429 57.7831C92.5429 66.8722 88.0949 74.6612 81.7653 77.9638L82.3603 81.1383C87.3699 86.9674 107.262 87.3474 107.262 110.383H75.2267Z" fill="#E0E0E0"/>
</svg>
