<svg width="50" height="50" viewBox="0 0 50 50" fill="none" xmlns="http://www.w3.org/2000/svg">
<rect x="0.353553" y="25" width="34.8553" height="34.8553" transform="rotate(-45 0.353553 25)" fill="#000A1D" stroke="#F6541D" stroke-width="0.5"/>
<rect x="3.8892" y="24.748" width="30.1413" height="30.1413" transform="rotate(-45 3.8892 24.748)" fill="#000A1D" stroke="#F6541D" stroke-width="0.5"/>
<path d="M31.8269 27.0821L25.9177 21.1731C25.8069 21.0622 25.6566 21 25.4999 21C25.3431 21 25.1928 21.0623 25.082 21.1731L19.1731 27.0822C18.9423 27.3129 18.9423 27.6871 19.1731 27.9178C19.4038 28.1486 19.778 28.1486 20.0087 27.9178L25.4999 22.4266L30.9913 27.9178C31.1066 28.0332 31.2579 28.0909 31.4091 28.0909C31.5603 28.0909 31.7116 28.0332 31.827 27.9178C32.0577 27.687 32.0577 27.3129 31.8269 27.0821Z" fill="white"/>
</svg>
