<svg width="135" height="120" viewBox="0 0 135 120" fill="none" xmlns="http://www.w3.org/2000/svg">
<g filter="url(#filter0_d_693_7426)">
<path d="M30 0H104.999V79.7626L67.4996 90.5333L30 79.7626V0Z" fill="#06132D"/>
</g>
<g filter="url(#filter1_d_693_7426)">
<path d="M30 0H104.999V79.7626L67.4996 90.5333L30 79.7626V0Z" fill="#06132D"/>
</g>
<path d="M81.7798 46.2779V59.7368C81.7836 59.812 81.7663 59.8867 81.73 59.9526C81.6938 60.0186 81.6399 60.0732 81.5744 60.1103C81.5133 60.1506 81.4417 60.1722 81.3685 60.1722C81.2953 60.1722 81.2237 60.1506 81.1626 60.1103L79.269 59.1635L77.2148 58.1364C76.831 58.3562 76.4323 58.5487 76.0215 58.7125C75.6094 58.8768 75.1979 59.0278 74.7871 59.1653C72.7103 59.826 70.5432 60.1587 68.3639 60.1514C65.6199 60.1514 63.219 59.719 61.161 58.8544C59.103 57.9898 57.3881 56.8503 56.0161 55.436C54.6629 54.0548 53.6112 52.4078 52.9273 50.5992C51.5555 47.0362 51.5555 43.0908 52.9273 39.5279C53.6108 37.7196 54.662 36.0726 56.0142 34.6911C57.3837 33.2787 59.0987 32.1401 61.1591 31.2755C63.2196 30.4108 65.6205 29.9785 68.362 29.9785C70.6195 29.9796 72.863 30.3337 75.0112 31.028C77.1659 31.7124 79.1317 32.8892 80.7527 34.4651C80.8309 34.5561 80.8738 34.672 80.8738 34.7919C80.8738 34.9119 80.8309 35.0278 80.7527 35.1188L74.661 40.2637C74.5508 40.3738 74.4416 40.4018 74.3323 40.3458C74.2701 40.3262 74.2125 40.2943 74.163 40.2519C74.1134 40.2096 74.0729 40.1577 74.0438 40.0993C73.5171 39.1317 72.8818 38.2273 72.1502 37.4036C71.4228 36.577 70.5423 35.8991 69.5572 35.4073C68.8179 35.0238 68.017 34.7728 67.1911 34.6659C66.3558 34.5562 65.5067 34.6265 64.7008 34.8722C63.8977 35.1075 63.1588 35.5226 62.5401 36.0861C61.9193 36.6539 61.4098 37.3325 61.0377 38.0871C60.4872 39.134 60.158 40.283 60.0704 41.4626C59.9737 42.6413 59.9943 43.8268 60.132 45.0014C60.4619 47.6365 61.5871 49.8868 63.5075 51.7524C64.8883 53.075 66.5277 54.0977 68.3228 54.7562C70.1388 55.4378 72.063 55.7857 74.0027 55.7833V46.2387L72.8505 43.1928C72.8221 43.1328 72.8109 43.0662 72.8182 43.0002C72.8254 42.9343 72.8508 42.8717 72.8916 42.8193C72.9284 42.7536 72.9829 42.6995 73.049 42.6632C73.115 42.6269 73.1898 42.6098 73.2651 42.6139H82.6491C82.7244 42.6098 82.7992 42.6269 82.8652 42.6632C82.9312 42.6995 82.9858 42.7536 83.0226 42.8193C83.0635 42.8716 83.0891 42.9342 83.0965 43.0001C83.1039 43.066 83.0929 43.1327 83.0647 43.1928L81.7798 46.2779Z" fill="#F3F7F8"/>
<defs>
<filter id="filter0_d_693_7426" x="0" y="-30" width="135" height="150.533" filterUnits="userSpaceOnUse" color-interpolation-filters="sRGB">
<feFlood flood-opacity="0" result="BackgroundImageFix"/>
<feColorMatrix in="SourceAlpha" type="matrix" values="0 0 0 0 0 0 0 0 0 0 0 0 0 0 0 0 0 0 127 0" result="hardAlpha"/>
<feOffset/>
<feGaussianBlur stdDeviation="15"/>
<feComposite in2="hardAlpha" operator="out"/>
<feColorMatrix type="matrix" values="0 0 0 0 0.054902 0 0 0 0 0.584314 0 0 0 0 0.733333 0 0 0 1 0"/>
<feBlend mode="normal" in2="BackgroundImageFix" result="effect1_dropShadow_693_7426"/>
<feBlend mode="normal" in="SourceGraphic" in2="effect1_dropShadow_693_7426" result="shape"/>
</filter>
<filter id="filter1_d_693_7426" x="23" y="-7" width="89" height="104.533" filterUnits="userSpaceOnUse" color-interpolation-filters="sRGB">
<feFlood flood-opacity="0" result="BackgroundImageFix"/>
<feColorMatrix in="SourceAlpha" type="matrix" values="0 0 0 0 0 0 0 0 0 0 0 0 0 0 0 0 0 0 127 0" result="hardAlpha"/>
<feOffset/>
<feGaussianBlur stdDeviation="3.5"/>
<feComposite in2="hardAlpha" operator="out"/>
<feColorMatrix type="matrix" values="0 0 0 0 0 0 0 0 0 0.64 0 0 0 0 1 0 0 0 1 0"/>
<feBlend mode="normal" in2="BackgroundImageFix" result="effect1_dropShadow_693_7426"/>
<feBlend mode="normal" in="SourceGraphic" in2="effect1_dropShadow_693_7426" result="shape"/>
</filter>
</defs>
</svg>
