<svg width="84" height="25" viewBox="0 0 84 25" fill="none" xmlns="http://www.w3.org/2000/svg">
<path d="M17.9146 14.5111L14.5111 17.9146L21.5965 25V18.1931L17.9146 14.5111ZM3.40347 0V6.80693L9.09653 12.5L0 21.5965H6.80693L16.0272 12.6238L3.40347 0ZM18.1931 3.40347L14.4493 7.14728L17.8527 10.5507L23.8552 4.54827L25 3.40347H18.1931Z" fill="black"/>
<path d="M41.8624 3.40344H25.959V21.5965H30.5072V7.95171H37.3142L31.6211 13.6448L36.1694 15.9034L44.1211 7.95171L41.8624 3.40344Z" fill="#E93324"/>
<path d="M49.8139 3.40344L45.2656 7.95171V21.5965H58.9104L63.4587 17.0482V3.40344H49.8139ZM58.9104 14.7896L56.6208 17.0482H49.8139V10.2413L52.0726 7.98265H58.8795V14.7896H58.9104Z" fill="#E93324"/>
<path d="M64.5732 3.40344L66.8319 7.95171H79.3319V14.7586L77.0732 17.0173H70.2663V10.2104H65.718V21.5656H79.3628L83.9111 17.0173V3.40344H64.5732Z" fill="#E93324"/>
<path d="M16.2211 12.4412L16.0898 12.5725L16.2211 12.7038L16.3524 12.5725L16.2211 12.4412Z" fill="white"/>
<path d="M16.2211 12.4412L16.0898 12.5725L16.2211 12.7038L16.3524 12.5725L16.2211 12.4412Z" fill="white"/>
</svg>
